<svg width="111" height="62" viewBox="0 0 111 62" fill="none" xmlns="http://www.w3.org/2000/svg">
<path d="M59.197 17.5732L60.8401 16.9013C62.1745 16.3743 63.8992 15.8364 65.9349 16.1767C70.1056 16.8749 72.9816 19.1168 74.6953 22.0898C75.357 23.236 74.8233 24.7467 73.5882 25.2275C72.5301 25.6396 71.6256 26.3669 70.9984 27.3101C70.3711 28.2532 70.0517 29.3662 70.0838 30.4969C70.1159 31.6275 70.498 32.7208 71.1777 33.6271C71.8574 34.5335 72.8017 35.2088 73.8815 35.5607C75.024 35.934 75.668 37.1965 75.293 38.3339C74.3182 41.2806 72.9155 44.0012 71.2547 46.1969C69.6138 48.3663 67.6111 50.1668 65.3813 51.0473C63.9257 51.6182 62.3642 51.4052 60.871 51.0363L59.9844 50.8014L58.6677 50.4215C58.07 50.248 57.4546 50.0987 56.8503 50.0987C56.2438 50.0987 55.6306 50.248 55.0329 50.4215L53.7162 50.8014L52.8296 51.0363C51.3365 51.4052 49.7727 51.6204 48.3193 51.0473C45.5116 49.9406 43.0348 47.3584 41.1623 44.313C39.1351 40.9592 37.7977 37.2378 37.2276 33.365C36.727 29.9528 36.9982 26.1212 38.584 22.8803C40.2161 19.5406 43.2068 16.9408 47.7657 16.1767C49.6183 15.8671 51.2107 16.2821 52.4855 16.7586L53.2156 17.044L54.5036 17.5732C55.3858 17.9179 56.0806 18.1199 56.8503 18.1199C57.6178 18.1199 58.3148 17.9179 59.197 17.5732ZM56.3386 8.97247C58.4912 6.82723 61.7973 6.64278 62.5759 7.42008C63.3567 8.19517 63.1714 11.4866 61.0166 13.6296C58.864 15.7727 55.5579 15.9571 54.7793 15.182C53.9985 14.4069 54.1838 11.1155 56.3386 8.97247Z" fill="black"/>
<rect x="0.5" y="0.5" width="110" height="61" rx="7.5" stroke="#285580"/>
</svg>
