<svg width="13" height="12" viewBox="0 0 13 12" fill="none" xmlns="http://www.w3.org/2000/svg">
<path d="M11.6206 5.84033C11.6206 8.70923 9.1794 11.0807 6.1103 11.0807C3.04121 11.0807 0.6 8.70923 0.6 5.84033C0.6 2.97144 3.04121 0.6 6.1103 0.6C9.1794 0.6 11.6206 2.97144 11.6206 5.84033Z" fill="#285580" stroke="white" stroke-width="1.2"/>
<path d="M9.74714 3.87376C9.74758 3.87394 9.74801 3.87412 9.74843 3.8743L5.03239 8.38197L5.03234 8.38202C5.02675 8.38736 5.01866 8.39296 5.00787 8.39723C4.99704 8.40152 4.98456 8.40403 4.97137 8.40403C4.95817 8.40403 4.94569 8.40152 4.93487 8.39723C4.92408 8.39296 4.91598 8.38736 4.91039 8.38201L4.91031 8.38193L2.56433 6.14001C2.56474 6.13983 2.56517 6.13965 2.56562 6.13948C2.57145 6.1372 2.57858 6.13575 2.58634 6.13581C2.5941 6.13588 2.60113 6.13744 2.6068 6.13977C2.61243 6.14209 2.61576 6.14473 2.6173 6.14626L2.61723 6.14632L2.62477 6.15353L4.55658 7.99999L4.97118 8.39626L5.38575 7.99997L9.69535 3.88038L9.69547 3.88027C9.69715 3.87866 9.70061 3.87602 9.7063 3.87376C9.71203 3.8715 9.71904 3.87002 9.72672 3.87002C9.73439 3.87002 9.74141 3.8715 9.74714 3.87376Z" fill="white" stroke="white" stroke-width="1.2"/>
</svg>
