<svg width="14" height="13" viewBox="0 0 14 13" fill="none" xmlns="http://www.w3.org/2000/svg">
<path d="M12.6668 6.34033C12.6668 9.48537 9.99142 12.0807 6.63342 12.0807C3.27541 12.0807 0.6 9.48537 0.6 6.34033C0.6 3.1953 3.27541 0.6 6.63342 0.6C9.99142 0.6 12.6668 3.1953 12.6668 6.34033Z" fill="#F8F9FA" stroke="black" stroke-width="1.2"/>
<path d="M10.6288 4.17518L10.6289 4.17525C10.6419 4.18772 10.6439 4.1987 10.6439 4.20411C10.6439 4.20951 10.6419 4.22049 10.6289 4.23297L5.49867 9.13653L5.49862 9.13658C5.48769 9.14703 5.47325 9.15668 5.45547 9.16372C5.43766 9.17078 5.41769 9.17471 5.39693 9.17471C5.37618 9.17471 5.35621 9.17078 5.3384 9.16372C5.32062 9.15668 5.30618 9.14703 5.29524 9.13657L5.29515 9.13649L2.74621 6.7006L2.74627 6.70053L2.73866 6.69351C2.73168 6.68707 2.72771 6.68086 2.72555 6.67606C2.72343 6.67133 2.72274 6.66732 2.72271 6.66403C2.72268 6.66074 2.72329 6.6568 2.72527 6.65217C2.72729 6.64747 2.73104 6.64135 2.73776 6.63493C2.74454 6.62845 2.75408 6.62195 2.76651 6.61708C2.77898 6.61221 2.79321 6.60945 2.80814 6.60958C2.82307 6.6097 2.83718 6.61269 2.84944 6.61773C2.86166 6.62274 2.87094 6.62932 2.87746 6.63577L2.87739 6.63583L2.88493 6.64304L4.98213 8.64758L5.39672 9.04386L5.8113 8.64756L10.4898 4.17529L10.49 4.17518C10.4967 4.16877 10.5061 4.16233 10.5183 4.15748C10.5306 4.15262 10.5446 4.1498 10.5594 4.1498C10.5742 4.1498 10.5882 4.15262 10.6005 4.15748C10.6127 4.16233 10.6221 4.16877 10.6288 4.17518Z" fill="black" stroke="black" stroke-width="1.2"/>
</svg>
