<svg width="61" height="61" viewBox="0 0 61 61" fill="none" xmlns="http://www.w3.org/2000/svg">
<circle cx="30.3999" cy="30.5" r="30" fill="#172734"/>
<path fill-rule="evenodd" clip-rule="evenodd" d="M18.0399 29.9002C18.0402 27.4061 18.76 24.9651 20.1132 22.87C21.4663 20.7749 23.3953 19.1148 25.6685 18.0888C27.9418 17.0628 30.4628 16.7145 32.9291 17.0858C35.3954 17.457 37.7021 18.532 39.5726 20.1818C41.4431 21.8316 42.7978 23.986 43.4742 26.3866C44.1506 28.7872 44.12 31.332 43.3859 33.7156C42.6519 36.0992 41.2457 38.2204 39.3361 39.8246C37.4264 41.4288 35.0944 42.448 32.6199 42.7597V33.1402H35.8599C36.2896 33.1402 36.7016 32.9695 37.0054 32.6657C37.3092 32.3619 37.4799 31.9498 37.4799 31.5202C37.4799 31.0905 37.3092 30.6785 37.0054 30.3747C36.7016 30.0709 36.2896 29.9002 35.8599 29.9002H32.6199V26.6602C32.6199 26.2305 32.7906 25.8185 33.0944 25.5147C33.3982 25.2109 33.8103 25.0402 34.2399 25.0402H35.0499C35.4796 25.0402 35.8916 24.8695 36.1954 24.5657C36.4992 24.2619 36.6699 23.8498 36.6699 23.4202C36.6699 22.9905 36.4992 22.5785 36.1954 22.2747C35.8916 21.9709 35.4796 21.8002 35.0499 21.8002H34.2399C32.951 21.8002 31.7148 22.3122 30.8034 23.2237C29.892 24.1351 29.3799 25.3712 29.3799 26.6602V29.9002H26.1399C25.7103 29.9002 25.2982 30.0709 24.9944 30.3747C24.6906 30.6785 24.5199 31.0905 24.5199 31.5202C24.5199 31.9498 24.6906 32.3619 24.9944 32.6657C25.2982 32.9695 25.7103 33.1402 26.1399 33.1402H29.3799V42.7597C26.248 42.3648 23.3678 40.8405 21.2799 38.4728C19.192 36.1052 18.04 33.0569 18.0399 29.9002ZM30.9999 46.1002C39.9472 46.1002 47.1999 38.8474 47.1999 29.9002C47.1999 20.9529 39.9472 13.7002 30.9999 13.7002C22.0527 13.7002 14.7999 20.9529 14.7999 29.9002C14.7999 38.8474 22.0527 46.1002 30.9999 46.1002Z" fill="#8894A4"/>
</svg>
