<svg width="16" height="14" viewBox="0 0 16 14" fill="none" xmlns="http://www.w3.org/2000/svg">
<path fill-rule="evenodd" clip-rule="evenodd" d="M14.4479 0.298584C14.6733 0.298584 14.8894 0.388124 15.0488 0.547507C15.2082 0.706889 15.2977 0.923057 15.2977 1.14846V13.0467C15.2977 13.2721 15.2082 13.4883 15.0488 13.6476C14.8894 13.807 14.6733 13.8966 14.4479 13.8966C14.2225 13.8966 14.0063 13.807 13.8469 13.6476C13.6875 13.4883 13.598 13.2721 13.598 13.0467V1.14846C13.598 0.923057 13.6875 0.706889 13.8469 0.547507C14.0063 0.388124 14.2225 0.298584 14.4479 0.298584ZM11.0484 2.84821C11.2738 2.84821 11.4899 2.93775 11.6493 3.09713C11.8087 3.25651 11.8982 3.47268 11.8982 3.69808V13.0467C11.8982 13.2721 11.8087 13.4883 11.6493 13.6476C11.4899 13.807 11.2738 13.8966 11.0484 13.8966C10.823 13.8966 10.6068 13.807 10.4474 13.6476C10.288 13.4883 10.1985 13.2721 10.1985 13.0467V3.69808C10.1985 3.47268 10.288 3.25651 10.4474 3.09713C10.6068 2.93775 10.823 2.84821 11.0484 2.84821ZM7.64887 5.39783C7.87427 5.39783 8.09043 5.48737 8.24982 5.64675C8.4092 5.80613 8.49874 6.0223 8.49874 6.2477V13.0467C8.49874 13.2721 8.4092 13.4883 8.24982 13.6476C8.09043 13.807 7.87427 13.8966 7.64887 13.8966C7.42347 13.8966 7.2073 13.807 7.04791 13.6476C6.88853 13.4883 6.79899 13.2721 6.79899 13.0467V6.2477C6.79899 6.0223 6.88853 5.80613 7.04791 5.64675C7.2073 5.48737 7.42347 5.39783 7.64887 5.39783ZM4.24937 7.94745C4.47477 7.94745 4.69094 8.03699 4.85032 8.19637C5.0097 8.35576 5.09924 8.57192 5.09924 8.79733V13.0467C5.09924 13.2721 5.0097 13.4883 4.85032 13.6476C4.69094 13.807 4.47477 13.8966 4.24937 13.8966C4.02397 13.8966 3.8078 13.807 3.64842 13.6476C3.48904 13.4883 3.3995 13.2721 3.3995 13.0467V8.79733C3.3995 8.57192 3.48904 8.35576 3.64842 8.19637C3.8078 8.03699 4.02397 7.94745 4.24937 7.94745ZM0.849874 10.4971C1.07527 10.4971 1.29144 10.5866 1.45083 10.746C1.61021 10.9054 1.69975 11.1215 1.69975 11.3469V13.0467C1.69975 13.2721 1.61021 13.4883 1.45083 13.6476C1.29144 13.807 1.07527 13.8966 0.849874 13.8966C0.624473 13.8966 0.408305 13.807 0.248922 13.6476C0.08954 13.4883 0 13.2721 0 13.0467V11.3469C0 11.1215 0.08954 10.9054 0.248922 10.746C0.408305 10.5866 0.624473 10.4971 0.849874 10.4971Z" fill="#5E5E5E"/>
</svg>
