<svg width="60" height="62" viewBox="0 0 60 62" fill="none" xmlns="http://www.w3.org/2000/svg">
<path d="M33.8125 41.9375H52.875" stroke="black" stroke-linecap="round" stroke-linejoin="round"/>
<path d="M33.8125 47.0209H46.5208" stroke="black" stroke-linecap="round" stroke-linejoin="round"/>
<path d="M36.3542 31.7709C36.2952 30.2531 36.5507 28.7395 37.1047 27.3251C37.6586 25.9108 38.499 24.6263 39.573 23.5522C40.6471 22.4782 41.9316 21.6378 43.3459 21.0838C44.7603 20.5299 46.2739 20.2744 47.7917 20.3334C49.3095 20.2744 50.8231 20.5299 52.2374 21.0838C53.6518 21.6378 54.9363 22.4782 56.0104 23.5522C57.0844 24.6263 57.9248 25.9108 58.4787 27.3251C59.0326 28.7395 59.2881 30.2531 59.2292 31.7709H36.3542Z" stroke="black" stroke-linecap="round" stroke-linejoin="round"/>
<path d="M40.1667 8.89587C40.1667 10.9182 40.97 12.8576 42.4 14.2876C43.83 15.7175 45.7694 16.5209 47.7917 16.5209C49.814 16.5209 51.7534 15.7175 53.1834 14.2876C54.6133 12.8576 55.4167 10.9182 55.4167 8.89587C55.4167 6.8736 54.6133 4.93415 53.1834 3.50418C51.7534 2.07422 49.814 1.27087 47.7917 1.27087C45.7694 1.27087 43.83 2.07422 42.4 3.50418C40.97 4.93415 40.1667 6.8736 40.1667 8.89587Z" stroke="black" stroke-linecap="round" stroke-linejoin="round"/>
<path d="M55.343 7.83591C53.9956 8.54708 52.4922 8.91135 50.9688 8.89579C49.1786 8.89641 47.4244 8.39273 45.9073 7.44243C44.3901 6.49214 43.1714 5.13368 42.3906 3.52271" stroke="black" stroke-linecap="round" stroke-linejoin="round"/>
<path d="M0.770816 59.7291C0.711857 58.2113 0.967362 56.6977 1.52129 55.2834C2.07521 53.869 2.91559 52.5845 3.98965 51.5105C5.0637 50.4364 6.34824 49.596 7.76258 49.0421C9.17692 48.4882 10.6905 48.2327 12.2083 48.2916C13.7261 48.2327 15.2397 48.4882 16.6541 49.0421C18.0684 49.596 19.3529 50.4364 20.427 51.5105C21.501 52.5845 22.3414 53.869 22.8953 55.2834C23.4493 56.6977 23.7048 58.2113 23.6458 59.7291H0.770816Z" stroke="black" stroke-linecap="round" stroke-linejoin="round"/>
<path d="M4.58331 36.8541C4.58331 38.8764 5.38666 40.8159 6.81662 42.2458C8.24659 43.6758 10.186 44.4791 12.2083 44.4791C14.2306 44.4791 16.17 43.6758 17.6 42.2458C19.03 40.8159 19.8333 38.8764 19.8333 36.8541C19.8333 34.8319 19.03 32.8924 17.6 31.4624C16.17 30.0325 14.2306 29.2291 12.2083 29.2291C10.186 29.2291 8.24659 30.0325 6.81662 31.4624C5.38666 32.8924 4.58331 34.8319 4.58331 36.8541Z" stroke="black" stroke-linecap="round" stroke-linejoin="round"/>
<path d="M19.7647 35.8375C18.4336 36.5216 16.9556 36.8706 15.4591 36.8542C13.6583 36.8544 11.8943 36.3446 10.3712 35.3838C8.84816 34.423 7.62836 33.0505 6.85303 31.4252" stroke="black" stroke-linecap="round" stroke-linejoin="round"/>
<path d="M31.2709 37.8541C30.5968 37.8541 29.9503 38.1219 29.4736 38.5986C28.997 39.0752 28.7292 39.7217 28.7292 40.3958V53.1041C28.7292 53.7782 28.997 54.4247 29.4736 54.9014C29.9503 55.378 30.5968 55.6458 31.2709 55.6458H35.0834V60.7291L41.4375 55.6458H56.6875C57.3616 55.6458 58.0081 55.378 58.4848 54.9014C58.9614 54.4247 59.2292 53.7782 59.2292 53.1041V40.3958C59.2292 39.7217 58.9614 39.0752 58.4848 38.5986C58.0081 38.1219 57.3616 37.8541 56.6875 37.8541H31.2709Z" stroke="black" stroke-linecap="round" stroke-linejoin="round"/>
<path d="M24.9167 6.35413H5.85419" stroke="black" stroke-linecap="round" stroke-linejoin="round"/>
<path d="M18.5625 11.4375H5.85419" stroke="black" stroke-linecap="round" stroke-linejoin="round"/>
<path d="M28.7291 1.27087C29.4032 1.27087 30.0497 1.53866 30.5264 2.01531C31.003 2.49197 31.2708 3.13845 31.2708 3.81254V16.5209C31.2708 17.195 31.003 17.8414 30.5264 18.3181C30.0497 18.7948 29.4032 19.0625 28.7291 19.0625H24.9166V25.4167L18.5625 19.0625H3.31248C2.63839 19.0625 1.9919 18.7948 1.51525 18.3181C1.0386 17.8414 0.770813 17.195 0.770813 16.5209V3.81254C0.770813 3.13845 1.0386 2.49197 1.51525 2.01531C1.9919 1.53866 2.63839 1.27087 3.31248 1.27087H28.7291Z" stroke="black" stroke-linecap="round" stroke-linejoin="round"/>
</svg>
