<svg width="71" height="66" viewBox="0 0 71 66" fill="none" xmlns="http://www.w3.org/2000/svg">
<path d="M0.5 62.0493L17.6793 64.8233C21.2572 65.3198 24.8975 64.5851 28.0028 62.7397L45.9912 52.0452C47.1996 51.3264 48.073 50.1571 48.4192 48.7943C48.7655 47.4316 48.5562 45.9871 47.8375 44.7787C47.1187 43.5703 45.9493 42.6969 44.5866 42.3507C43.2238 42.0044 41.7794 42.2137 40.5709 42.9324L26.5215 51.2848" stroke="black" stroke-linecap="round" stroke-linejoin="round"/>
<path d="M0.5 48.2552L7.8 43.9178C10.5004 42.3108 13.6165 41.5402 16.7547 41.7035L24.0182 42.0806C24.6876 42.0839 25.3493 42.2229 25.9635 42.4892C26.5776 42.7556 27.1313 43.1437 27.5911 43.6302C28.0509 44.1168 28.4072 44.6915 28.6384 45.3197C28.8697 45.9479 28.9711 46.6164 28.9365 47.2849C28.8745 48.4894 28.3748 49.6297 27.5313 50.4917C26.6878 51.3537 25.5586 51.878 24.3558 51.9661L15.0787 51.9204" stroke="black" stroke-linecap="round" stroke-linejoin="round"/>
<path d="M21.4874 35.7266V14.2981C21.4874 12.676 22.1314 11.1203 23.2777 9.97283C24.4241 8.82531 25.9791 8.17984 27.6012 8.17822H64.3354C65.1393 8.17782 65.9354 8.33582 66.6783 8.64319C67.4211 8.95057 68.0961 9.40129 68.6647 9.96961C69.2333 10.5379 69.6844 11.2127 69.9921 11.9554C70.2999 12.6981 70.4583 13.4941 70.4583 14.2981V35.7266C70.4583 37.3505 69.8132 38.9079 68.6649 40.0561C67.5166 41.2044 65.9593 41.8495 64.3354 41.8495H54.0546" stroke="black" stroke-linecap="round" stroke-linejoin="round"/>
<path d="M21.4813 20.421H42.8582" stroke="black" stroke-linecap="round" stroke-linejoin="round"/>
<path d="M49.0814 20.421H70.4583" stroke="black" stroke-linecap="round" stroke-linejoin="round"/>
<path d="M55.1526 8.17832H36.787L37.8911 3.00748C38.0989 2.38542 38.5088 1.85075 39.0556 1.48861C39.6024 1.12647 40.2546 0.957676 40.9084 1.00911H51.0281C51.6823 0.957511 52.335 1.12619 52.8823 1.48831C53.4296 1.85042 53.8401 2.38518 54.0484 3.00748L55.1526 8.17832Z" stroke="black" stroke-linecap="round" stroke-linejoin="round"/>
<path d="M44.3881 18.015H47.5484C47.5484 18.015 49.0784 18.015 49.0784 19.545V24.4968C49.0784 24.4968 49.0784 26.0268 47.5484 26.0268H44.3881C44.3881 26.0268 42.8582 26.0268 42.8582 24.4968V19.545C42.8582 19.545 42.8582 18.015 44.3881 18.015Z" stroke="black" stroke-linecap="round" stroke-linejoin="round"/>
</svg>
