<svg width="67" height="68" viewBox="0 0 67 68" fill="none" xmlns="http://www.w3.org/2000/svg">
<path d="M57.1446 14.0666C57.6342 14.5509 57.9114 15.2098 57.9153 15.8985L58.1556 60.8065C58.1593 61.4953 57.8892 62.1573 57.4048 62.6469C56.9204 63.1365 56.2613 63.4136 55.5726 63.4173L11.4255 63.6535C10.7367 63.6572 10.0747 63.3872 9.58511 62.9028C9.09549 62.4183 8.81836 61.7593 8.81467 61.0705L8.52287 6.53585C8.51918 5.84712 8.78925 5.18512 9.27365 4.69551C9.75806 4.20589 10.4171 3.92875 11.1059 3.92507L45.6263 3.74036C46.315 3.73682 46.9769 4.00698 47.4664 4.49142L57.1446 14.0666Z" fill="#E3E3E3"/>
<path d="M54.4085 11.3596L47.4664 4.49142C46.9769 4.00698 46.315 3.73682 45.6263 3.74036L11.1059 3.92507C10.4171 3.92875 9.75806 4.20589 9.27365 4.69551C8.78925 5.18512 8.51918 5.84712 8.52287 6.53585L8.79536 57.4609L54.4085 11.3596Z" fill="white"/>
<path d="M57.1446 14.0666C57.6342 14.5509 57.9114 15.2098 57.9153 15.8985L58.1556 60.8065C58.1593 61.4953 57.8892 62.1573 57.4048 62.6469C56.9204 63.1365 56.2613 63.4136 55.5726 63.4173L11.4255 63.6535C10.7367 63.6572 10.0747 63.3872 9.58511 62.9028C9.09549 62.4183 8.81836 61.7593 8.81467 61.0705L8.52287 6.53585C8.51918 5.84712 8.78925 5.18512 9.27365 4.69551C9.75806 4.20589 10.4171 3.92875 11.1059 3.92507L45.6263 3.74036C46.315 3.73682 46.9769 4.00698 47.4664 4.49142L57.1446 14.0666Z" stroke="#191919" stroke-width="1.2" stroke-linecap="round" stroke-linejoin="round"/>
<path d="M17.8132 44.1404L48.9759 43.9736" stroke="#191919" stroke-width="1.2" stroke-linecap="round" stroke-linejoin="round"/>
<path d="M17.8553 51.9324L49.018 51.7656" stroke="#191919" stroke-width="1.2" stroke-linecap="round" stroke-linejoin="round"/>
<path d="M17.7716 36.3518L48.9343 36.1851" stroke="#191919" stroke-width="1.2" stroke-linecap="round" stroke-linejoin="round"/>
<path d="M17.7304 28.5615L48.8931 28.3948" stroke="#191919" stroke-width="1.2" stroke-linecap="round" stroke-linejoin="round"/>
<path d="M17.688 20.7693L35.8662 20.672" stroke="#191919" stroke-width="1.2" stroke-linecap="round" stroke-linejoin="round"/>
<path d="M17.688 20.7693L35.8662 20.672" stroke="#191919" stroke-width="1.2" stroke-linecap="round" stroke-linejoin="round"/>
<path d="M17.7304 28.5615L48.8931 28.3948" stroke="#191919" stroke-width="1.2" stroke-linecap="round" stroke-linejoin="round"/>
<path d="M17.7716 36.3518L48.9343 36.1851" stroke="#191919" stroke-width="1.2" stroke-linecap="round" stroke-linejoin="round"/>
<path d="M17.8132 44.1404L48.9759 43.9736" stroke="#191919" stroke-width="1.2" stroke-linecap="round" stroke-linejoin="round"/>
<path d="M17.8553 51.9324L49.018 51.7656" stroke="#191919" stroke-width="1.2" stroke-linecap="round" stroke-linejoin="round"/>
</svg>
