<svg width="71" height="69" viewBox="0 0 71 69" fill="none" xmlns="http://www.w3.org/2000/svg">
<path fill-rule="evenodd" clip-rule="evenodd" d="M37.268 0.653193C36.1759 -0.215778 34.6235 -0.215778 33.5314 0.653193L18.5782 12.5488C17.2884 13.5749 17.0792 15.4463 18.1111 16.7287C19.143 18.0113 21.0249 18.2194 22.3145 17.1933L23.437 16.3003V25.2798C23.437 28.5647 26.1149 31.2276 29.4183 31.2276H41.3812C44.6843 31.2276 47.3624 28.5647 47.3624 25.2798V16.3003L48.4846 17.1933C49.7742 18.2194 51.6565 18.0113 52.6881 16.7287C53.7203 15.4463 53.5108 13.5749 52.2212 12.5488L37.268 0.653193ZM59.1329 8.52302C57.6832 7.73607 55.8666 8.26679 55.0752 9.70868C54.2841 11.1503 54.8178 12.9568 56.2675 13.7437C57.2046 14.2523 57.8295 15.2347 57.8295 16.3575V41.6361H12.9696V16.3575C12.9696 15.2458 13.5819 14.2721 14.5036 13.759C15.9449 12.9568 16.4594 11.1446 15.6526 9.71138C14.8459 8.27816 13.0235 7.7669 11.5822 8.56911C8.84775 10.0912 6.98835 13.0065 6.98835 16.3575V44.6103L0.289137 62.3743C-0.810491 65.2905 1.35746 68.4015 4.48958 68.4015H66.3096C69.442 68.4015 71.6096 65.2905 70.5097 62.3743L63.8108 44.6103V16.3575C63.8108 12.9723 61.9138 10.032 59.1329 8.52302ZM30.9138 55.7623C29.6751 55.7623 28.6709 56.7609 28.6709 57.993C28.6709 59.225 29.6751 60.2233 30.9138 60.2233H39.8857C41.1244 60.2233 42.1289 59.2247 42.1289 57.993C42.1289 56.7612 41.1244 55.7623 39.8857 55.7623H30.9138Z" fill="black"/>
</svg>
