<svg width="55" height="70" viewBox="0 0 55 70" fill="none" xmlns="http://www.w3.org/2000/svg">
<path d="M35.0338 1.09814V16.1656C35.0338 18.2461 36.7202 19.9325 38.8006 19.9325H53.8681" stroke="black" stroke-width="1.5" stroke-linecap="round" stroke-linejoin="round"/>
<path d="M46.3344 68.9019H8.66562C4.50476 68.9022 1.13187 65.529 1.13187 61.3682V8.63189C1.13187 4.47103 4.50476 1.09814 8.66562 1.09814H35.0337L53.8681 19.9325V61.3682C53.8681 65.529 50.4952 68.9022 46.3344 68.9019Z" stroke="black" stroke-width="1.5" stroke-linecap="round" stroke-linejoin="round"/>
<path d="M23.7331 36.8835C23.7331 32.5339 19.0245 29.8154 15.2577 31.99C13.5094 32.9994 12.4325 34.8649 12.4325 36.8835V48.1841C12.4325 52.5336 17.1411 55.2521 20.908 53.0775C22.6562 52.0682 23.7331 50.2027 23.7331 48.1841" stroke="black" stroke-width="1.5" stroke-linecap="round" stroke-linejoin="round"/>
<path d="M31.2669 31.2332L36.9172 53.8344L42.5675 31.2332" stroke="black" stroke-width="1.5" stroke-linecap="round" stroke-linejoin="round"/>
</svg>
