<svg width="66" height="66" viewBox="0 0 66 66" fill="none" xmlns="http://www.w3.org/2000/svg">
<path d="M33.7111 45.3733H4.69778C3.71707 45.3733 2.77652 44.9837 2.08305 44.2903C1.38959 43.5968 1 42.6563 1 41.6756V4.69778C1 3.71707 1.38959 2.77652 2.08305 2.08305C2.77652 1.38959 3.71707 1 4.69778 1H52.7689C53.7496 1 54.6901 1.38959 55.3836 2.08305C56.0771 2.77652 56.4667 3.71707 56.4667 4.69778V19.4889" stroke="black" stroke-width="1.5" stroke-linecap="round" stroke-linejoin="round"/>
<path d="M36.5556 56.4666H19.4889L21.3378 45.3733" stroke="black" stroke-width="1.5" stroke-linecap="round" stroke-linejoin="round"/>
<path d="M13.9422 56.4667H19.4889" stroke="black" stroke-width="1.5" stroke-linecap="round" stroke-linejoin="round"/>
<path d="M20.9111 11.6666H35.1333" stroke="black" stroke-width="1.5" stroke-linecap="round" stroke-linejoin="round"/>
<path d="M13.8 21.6222H42.2444" stroke="black" stroke-width="1.5" stroke-linecap="round" stroke-linejoin="round"/>
<path d="M18.0667 31.5778H35.1333" stroke="black" stroke-width="1.5" stroke-linecap="round" stroke-linejoin="round"/>
<path d="M42.2444 39.4C42.2444 42.4176 43.4432 45.3115 45.5769 47.4453C47.7107 49.579 50.6046 50.7778 53.6222 50.7778C56.6398 50.7778 59.5338 49.579 61.6675 47.4453C63.8013 45.3115 65 42.4176 65 39.4C65 36.3824 63.8013 33.4884 61.6675 31.3547C59.5338 29.2209 56.6398 28.0222 53.6222 28.0222C50.6046 28.0222 47.7107 29.2209 45.5769 31.3547C43.4432 33.4884 42.2444 36.3824 42.2444 39.4Z" stroke="black" stroke-width="1.5" stroke-linecap="round" stroke-linejoin="round"/>
<path d="M51.4889 39.3999C51.4889 39.9657 51.7136 40.5084 52.1137 40.9084C52.5138 41.3085 53.0564 41.5333 53.6222 41.5333C54.188 41.5333 54.7306 41.3085 55.1307 40.9084C55.5308 40.5084 55.7556 39.9657 55.7556 39.3999C55.7556 38.8341 55.5308 38.2915 55.1307 37.8914C54.7306 37.4914 54.188 37.2666 53.6222 37.2666C53.0564 37.2666 52.5138 37.4914 52.1137 37.8914C51.7136 38.2915 51.4889 38.8341 51.4889 39.3999Z" stroke="black" stroke-width="1.5" stroke-linecap="round" stroke-linejoin="round"/>
<path d="M46.5111 48.2832V65L53.6222 59.3111L60.7333 65V48.2832" stroke="black" stroke-width="1.5" stroke-linecap="round" stroke-linejoin="round"/>
</svg>
