<svg width="61" height="61" viewBox="0 0 61 61" fill="none" xmlns="http://www.w3.org/2000/svg">
<circle cx="30.8" cy="30.5" r="30" fill="#172734"/>
<path fill-rule="evenodd" clip-rule="evenodd" d="M36.8 17C38.7891 17 40.6968 17.7902 42.1033 19.1967C43.5098 20.6032 44.3 22.5109 44.3 24.5V36.5C44.3 38.4891 43.5098 40.3968 42.1033 41.8033C40.6968 43.2098 38.7891 44 36.8 44H24.8C22.8109 44 20.9032 43.2098 19.4967 41.8033C18.0902 40.3968 17.3 38.4891 17.3 36.5V24.5C17.3 22.5109 18.0902 20.6032 19.4967 19.1967C20.9032 17.7902 22.8109 17 24.8 17H36.8ZM36.8 20H24.8C23.6065 20 22.4619 20.4741 21.618 21.318C20.7741 22.1619 20.3 23.3065 20.3 24.5V36.5C20.3 37.6935 20.7741 38.8381 21.618 39.682C22.4619 40.5259 23.6065 41 24.8 41H36.8C37.9935 41 39.138 40.5259 39.982 39.682C40.8259 38.8381 41.3 37.6935 41.3 36.5V24.5C41.3 23.3065 40.8259 22.1619 39.982 21.318C39.138 20.4741 37.9935 20 36.8 20ZM30.8 24.5C32.3913 24.5 33.9174 25.1321 35.0426 26.2574C36.1678 27.3826 36.8 28.9087 36.8 30.5C36.8 32.0913 36.1678 33.6174 35.0426 34.7426C33.9174 35.8679 32.3913 36.5 30.8 36.5C29.2087 36.5 27.6826 35.8679 26.5573 34.7426C25.4321 33.6174 24.8 32.0913 24.8 30.5C24.8 28.9087 25.4321 27.3826 26.5573 26.2574C27.6826 25.1321 29.2087 24.5 30.8 24.5ZM30.8 27.5C30.0043 27.5 29.2413 27.8161 28.6787 28.3787C28.1161 28.9413 27.8 29.7043 27.8 30.5C27.8 31.2956 28.1161 32.0587 28.6787 32.6213C29.2413 33.1839 30.0043 33.5 30.8 33.5C31.5956 33.5 32.3587 33.1839 32.9213 32.6213C33.4839 32.0587 33.8 31.2956 33.8 30.5C33.8 29.7043 33.4839 28.9413 32.9213 28.3787C32.3587 27.8161 31.5956 27.5 30.8 27.5ZM37.55 22.25C37.9478 22.25 38.3293 22.408 38.6106 22.6893C38.8919 22.9706 39.05 23.3522 39.05 23.75C39.05 24.1478 38.8919 24.5294 38.6106 24.8107C38.3293 25.092 37.9478 25.25 37.55 25.25C37.1522 25.25 36.7706 25.092 36.4893 24.8107C36.208 24.5294 36.05 24.1478 36.05 23.75C36.05 23.3522 36.208 22.9706 36.4893 22.6893C36.7706 22.408 37.1522 22.25 37.55 22.25Z" fill="#8894A4"/>
</svg>
