<svg width="169" height="47" viewBox="0 0 169 47" fill="none" xmlns="http://www.w3.org/2000/svg">
<circle cx="33.1792" cy="24.1792" r="18.1792" fill="#E1F0FF"/>
<path d="M29.9222 16.0863C29.515 15.845 29 16.1384 29 16.6117V30.7554C29 31.2287 29.515 31.5222 29.9222 31.2809L41.856 24.2091C42.2551 23.9725 42.2551 23.3947 41.856 23.1581L29.9222 16.0863Z" fill="black"/>
<path d="M33.5 1.175C33.5 0.526066 32.9736 -0.0030671 32.3254 0.0293422C26.5205 0.319615 21.0125 2.75352 16.883 6.88299C12.4759 11.2901 10 17.2674 10 23.5C10 29.7326 12.4759 35.7099 16.883 40.117C21.0125 44.2465 26.5205 46.6804 32.3254 46.9707C32.9736 47.0031 33.5 46.4739 33.5 45.825C33.5 45.1761 32.9734 44.6534 32.3255 44.6174C27.1442 44.3294 22.2334 42.144 18.5447 38.4553C14.5783 34.4889 12.35 29.1093 12.35 23.5C12.35 17.8907 14.5783 12.5111 18.5447 8.54469C22.2334 4.85603 27.1442 2.67058 32.3255 2.38261C32.9734 2.3466 33.5 1.82393 33.5 1.175Z" fill="#285580"/>
<path d="M73.2246 28.3809C73.2246 29.2923 73.1758 29.9401 73.0781 30.3242C73.0326 30.513 72.9186 30.6074 72.7363 30.6074C72.2546 30.6074 71.5319 30.5781 70.5684 30.5195C69.6048 30.4674 68.8822 30.4414 68.4004 30.4414C67.9447 30.4414 67.2643 30.4512 66.3594 30.4707C65.4544 30.4902 64.7741 30.5 64.3184 30.5C64.1556 30.5 64.0742 30.4186 64.0742 30.2559C64.0742 29.5462 64.097 28.4753 64.1426 27.043C64.1947 25.6107 64.2207 24.5365 64.2207 23.8203C64.2207 23.0651 64.1849 21.9355 64.1133 20.4316C64.0482 18.9212 64.0156 17.7884 64.0156 17.0332C64.0156 16.89 64.097 16.8184 64.2598 16.8184C64.377 16.8184 64.556 16.8281 64.7969 16.8477C65.0378 16.8672 65.2201 16.877 65.3438 16.877C65.4609 16.877 65.6432 16.8672 65.8906 16.8477C66.138 16.8281 66.3203 16.8184 66.4375 16.8184C66.5938 16.8184 66.6719 16.8802 66.6719 17.0039C66.6719 17.694 66.6458 18.7324 66.5938 20.1191C66.5417 21.5059 66.5156 22.5475 66.5156 23.2441C66.5156 23.5827 66.5156 24.097 66.5156 24.7871C66.5091 25.4772 66.5059 25.9915 66.5059 26.3301C66.5059 27.7754 66.5645 28.498 66.6816 28.498C69.084 28.498 70.8971 28.4395 72.1211 28.3223C72.1797 28.3158 72.3294 28.293 72.5703 28.2539C72.7656 28.2148 72.9154 28.1953 73.0195 28.1953C73.1562 28.1953 73.2246 28.2572 73.2246 28.3809ZM82.6191 25.2559C82.6191 25.7376 82.4108 26.0599 81.9941 26.2227C81.7142 26.3268 79.6992 26.5189 75.9492 26.7988C76.0339 27.3717 76.3496 27.86 76.8965 28.2637C77.4173 28.6478 77.9772 28.8398 78.5762 28.8398C79.6048 28.8398 80.5488 28.5078 81.4082 27.8438C81.5124 27.7591 81.6165 27.6745 81.7207 27.5898C81.7728 27.5898 81.8053 27.5964 81.8184 27.6094C81.8379 27.6224 81.9616 27.8503 82.1895 28.293C82.4173 28.7292 82.5312 28.9635 82.5312 28.9961C82.5312 29.0352 82.4792 29.11 82.375 29.2207C81.418 30.2363 80.1908 30.7441 78.6934 30.7441C77.1829 30.7441 75.9785 30.2949 75.0801 29.3965C74.1816 28.4915 73.7324 27.2871 73.7324 25.7832C73.7324 24.4421 74.1621 23.2734 75.0215 22.2773C75.9264 21.2422 77.0365 20.7246 78.3516 20.7246C79.5755 20.7246 80.5977 21.1738 81.418 22.0723C82.2188 22.9447 82.6191 24.0059 82.6191 25.2559ZM80.2949 24.6602C80.2949 24.1198 80.0801 23.6413 79.6504 23.2246C79.2272 22.8079 78.7487 22.5996 78.2148 22.5996C77.6159 22.5996 77.082 22.8405 76.6133 23.3223C76.151 23.804 75.9199 24.3444 75.9199 24.9434C75.9199 25.0801 76.0371 25.1484 76.2715 25.1484C77.235 25.1484 78.3874 25.0508 79.7285 24.8555C80.1061 24.8034 80.2949 24.7383 80.2949 24.6602ZM93.4883 21.6621C93.4883 21.6882 93.4785 21.7467 93.459 21.8379C93.2051 23.3288 93.0781 24.6146 93.0781 25.6953C93.0781 25.7604 93.1595 27.222 93.3223 30.0801L93.332 30.2168C93.3385 30.4056 93.2507 30.5 93.0684 30.5C92.8926 30.5 92.6224 30.5195 92.2578 30.5586C91.8997 30.6042 91.6328 30.627 91.457 30.627C91.3333 30.627 91.2389 30.3991 91.1738 29.9434C91.1087 29.4876 91.0469 29.2598 90.9883 29.2598C90.9492 29.2598 90.7734 29.3867 90.4609 29.6406C90.0768 29.9531 89.7188 30.1908 89.3867 30.3535C88.8724 30.6139 88.3581 30.7441 87.8438 30.7441C86.5807 30.7441 85.5163 30.2396 84.6504 29.2305C83.8301 28.2669 83.4199 27.1439 83.4199 25.8613C83.4199 24.416 83.8333 23.2214 84.6602 22.2773C85.526 21.2943 86.6654 20.8027 88.0781 20.8027C89.0742 20.8027 89.9434 21.1478 90.6855 21.8379C90.7962 21.9681 90.9688 22.1569 91.2031 22.4043C91.2227 22.4238 91.2422 22.4336 91.2617 22.4336C91.3008 22.4336 91.3561 22.2285 91.4277 21.8184C91.4993 21.4082 91.5905 21.2031 91.7012 21.2031C91.877 21.2031 92.2057 21.252 92.6875 21.3496C93.2214 21.4668 93.4883 21.571 93.4883 21.6621ZM90.998 25.7441C90.998 24.9434 90.7604 24.2565 90.2852 23.6836C89.7839 23.0651 89.1426 22.7559 88.3613 22.7559C87.5801 22.7559 86.929 23.0618 86.4082 23.6738C85.9069 24.2598 85.6562 24.9499 85.6562 25.7441C85.6562 26.5319 85.9069 27.2155 86.4082 27.7949C86.929 28.4004 87.5801 28.7031 88.3613 28.7031C89.123 28.7031 89.7611 28.3939 90.2754 27.7754C90.7572 27.196 90.998 26.5189 90.998 25.7441ZM100.676 21.3301C100.676 22.0462 100.627 22.6973 100.529 23.2832C100.51 23.4329 100.445 23.5078 100.334 23.5078C100.197 23.5078 99.9889 23.4948 99.709 23.4688C99.4355 23.4362 99.2272 23.4199 99.084 23.4199C98.2637 23.4199 97.7396 23.651 97.5117 24.1133C97.375 24.3932 97.3066 24.9759 97.3066 25.8613V26.9355C97.3066 27.3001 97.3197 27.8535 97.3457 28.5957C97.3783 29.3379 97.3945 29.8913 97.3945 30.2559C97.3945 30.4316 97.3197 30.5195 97.1699 30.5195C96.9681 30.5195 96.6621 30.5163 96.252 30.5098C95.8418 30.5033 95.5358 30.5 95.334 30.5C95.1842 30.5 95.1094 30.4186 95.1094 30.2559C95.1094 29.7285 95.1159 28.9342 95.1289 27.873C95.1484 26.8118 95.1582 26.0143 95.1582 25.4805C95.1582 23.8724 95.0085 22.5801 94.709 21.6035C94.696 21.5514 94.6895 21.5124 94.6895 21.4863C94.6895 21.4082 94.7318 21.3529 94.8164 21.3203C95.0573 21.2943 95.3958 21.2552 95.832 21.2031C96.5352 21.0729 96.8607 21.0078 96.8086 21.0078C96.9128 21.0078 96.9811 21.1999 97.0137 21.584C97.0462 21.9681 97.1048 22.1602 97.1895 22.1602C97.2025 22.1602 97.2188 22.1536 97.2383 22.1406C97.5052 21.9714 97.7721 21.8021 98.0391 21.6328C98.332 21.457 98.6315 21.3268 98.9375 21.2422C99.1914 21.1641 99.5169 21.125 99.9141 21.125C100.422 21.125 100.676 21.1934 100.676 21.3301ZM110.354 30.3047C110.354 30.4479 110.288 30.5195 110.158 30.5195C109.943 30.5195 109.621 30.5163 109.191 30.5098C108.768 30.5033 108.449 30.5 108.234 30.5C108.117 30.5 108.059 30.4056 108.059 30.2168C108.059 29.8978 108.068 29.4128 108.088 28.7617C108.107 28.1107 108.117 27.6224 108.117 27.2969C108.117 27.0365 108.114 26.6491 108.107 26.1348C108.101 25.6139 108.098 25.2233 108.098 24.9629C108.098 24.2207 107.99 23.6966 107.775 23.3906C107.515 23.026 107.033 22.8438 106.33 22.8438C106.005 22.8438 105.552 23.026 104.973 23.3906C104.361 23.7747 104.055 24.1165 104.055 24.416V30.2754C104.055 30.4382 103.993 30.5195 103.869 30.5195C103.661 30.5195 103.348 30.5163 102.932 30.5098C102.515 30.5033 102.202 30.5 101.994 30.5C101.857 30.5 101.789 30.4251 101.789 30.2754C101.789 29.7611 101.796 28.9896 101.809 27.9609C101.828 26.9323 101.838 26.1576 101.838 25.6367C101.838 24.25 101.691 22.9707 101.398 21.7988C101.379 21.7402 101.369 21.6979 101.369 21.6719C101.369 21.6068 101.411 21.5612 101.496 21.5352C101.542 21.5286 101.913 21.4701 102.609 21.3594C103.312 21.2422 103.68 21.1836 103.713 21.1836C103.752 21.1836 103.778 21.2357 103.791 21.3398C103.824 21.7435 103.898 22.1504 104.016 22.5605C104.354 22.2936 104.8 21.9616 105.354 21.5645C106.037 21.1478 106.698 20.9395 107.336 20.9395C108.56 20.9395 109.396 21.2943 109.846 22.0039C110.178 22.5247 110.344 23.3678 110.344 24.5332C110.344 24.735 110.337 25.0443 110.324 25.4609C110.318 25.8776 110.314 26.1901 110.314 26.3984C110.314 26.8346 110.321 27.4857 110.334 28.3516C110.347 29.2174 110.354 29.8685 110.354 30.3047ZM130.969 30.2559C130.969 30.4186 130.887 30.5 130.725 30.5C130.607 30.5 130.428 30.4902 130.188 30.4707C129.953 30.4512 129.777 30.4414 129.66 30.4414C129.543 30.4414 129.364 30.4512 129.123 30.4707C128.882 30.4902 128.703 30.5 128.586 30.5C128.423 30.5 128.342 30.3926 128.342 30.1777C128.342 29.3509 128.368 28.1107 128.42 26.457C128.472 24.8034 128.498 23.5632 128.498 22.7363C128.498 22.6126 128.472 22.5508 128.42 22.5508C128.361 22.5508 128.316 22.5866 128.283 22.6582C127.951 23.3678 127.167 25.2624 125.93 28.3418C125.728 28.9342 125.438 29.6732 125.061 30.5586C125.015 30.6432 124.781 30.6855 124.357 30.6855C123.745 30.6855 123.407 30.6302 123.342 30.5195C123.12 29.9922 122.805 29.2533 122.395 28.3027C121.854 27.0137 121.024 25.0931 119.904 22.541C119.885 22.4954 119.842 22.4499 119.777 22.4043C119.725 22.4434 119.699 22.515 119.699 22.6191C119.699 23.459 119.712 24.7188 119.738 26.3984C119.771 28.0781 119.787 29.3379 119.787 30.1777C119.787 30.3926 119.706 30.5 119.543 30.5C119.432 30.5 119.263 30.4902 119.035 30.4707C118.807 30.4512 118.638 30.4414 118.527 30.4414C118.41 30.4414 118.234 30.4512 118 30.4707C117.772 30.4902 117.6 30.5 117.482 30.5C117.32 30.5 117.238 30.4382 117.238 30.3145C117.238 29.5918 117.271 28.5111 117.336 27.0723C117.408 25.627 117.443 24.543 117.443 23.8203C117.443 23.0716 117.408 21.9486 117.336 20.4512C117.271 18.9473 117.238 17.821 117.238 17.0723C117.238 16.9486 117.313 16.877 117.463 16.8574C118.348 16.7402 119.016 16.6816 119.465 16.6816C119.53 16.6816 119.621 16.8151 119.738 17.082C121.314 20.5456 122.668 23.638 123.801 26.3594C124.068 26.9974 124.227 27.3164 124.279 27.3164C124.344 27.3164 124.484 27.056 124.699 26.5352C125.585 24.4258 126.812 21.2943 128.381 17.1406C128.479 16.8867 128.586 16.7598 128.703 16.7598C128.924 16.7598 129.257 16.7728 129.699 16.7988C130.148 16.8249 130.484 16.8379 130.705 16.8379C130.868 16.8379 130.949 16.916 130.949 17.0723C130.949 17.821 130.923 18.9473 130.871 20.4512C130.826 21.9486 130.803 23.0716 130.803 23.8203C130.803 24.5365 130.829 25.6107 130.881 27.043C130.939 28.4753 130.969 29.5462 130.969 30.2559ZM141.867 25.7441C141.867 27.1048 141.421 28.2669 140.529 29.2305C139.618 30.2266 138.488 30.7246 137.141 30.7246C135.786 30.7246 134.654 30.2298 133.742 29.2402C132.85 28.2832 132.404 27.1243 132.404 25.7637C132.404 24.403 132.85 23.2441 133.742 22.2871C134.66 21.3105 135.793 20.8223 137.141 20.8223C138.482 20.8223 139.608 21.3105 140.52 22.2871C141.418 23.2376 141.867 24.39 141.867 25.7441ZM139.807 25.7637C139.807 24.9694 139.562 24.2923 139.074 23.7324C138.566 23.14 137.922 22.8438 137.141 22.8438C136.359 22.8438 135.712 23.1367 135.197 23.7227C134.709 24.2891 134.465 24.9694 134.465 25.7637C134.465 26.5449 134.712 27.222 135.207 27.7949C135.728 28.4004 136.372 28.7031 137.141 28.7031C137.915 28.7031 138.56 28.4004 139.074 27.7949C139.562 27.222 139.807 26.5449 139.807 25.7637ZM148.84 21.3301C148.84 22.0462 148.791 22.6973 148.693 23.2832C148.674 23.4329 148.609 23.5078 148.498 23.5078C148.361 23.5078 148.153 23.4948 147.873 23.4688C147.6 23.4362 147.391 23.4199 147.248 23.4199C146.428 23.4199 145.904 23.651 145.676 24.1133C145.539 24.3932 145.471 24.9759 145.471 25.8613V26.9355C145.471 27.3001 145.484 27.8535 145.51 28.5957C145.542 29.3379 145.559 29.8913 145.559 30.2559C145.559 30.4316 145.484 30.5195 145.334 30.5195C145.132 30.5195 144.826 30.5163 144.416 30.5098C144.006 30.5033 143.7 30.5 143.498 30.5C143.348 30.5 143.273 30.4186 143.273 30.2559C143.273 29.7285 143.28 28.9342 143.293 27.873C143.312 26.8118 143.322 26.0143 143.322 25.4805C143.322 23.8724 143.173 22.5801 142.873 21.6035C142.86 21.5514 142.854 21.5124 142.854 21.4863C142.854 21.4082 142.896 21.3529 142.98 21.3203C143.221 21.2943 143.56 21.2552 143.996 21.2031C144.699 21.0729 145.025 21.0078 144.973 21.0078C145.077 21.0078 145.145 21.1999 145.178 21.584C145.21 21.9681 145.269 22.1602 145.354 22.1602C145.367 22.1602 145.383 22.1536 145.402 22.1406C145.669 21.9714 145.936 21.8021 146.203 21.6328C146.496 21.457 146.796 21.3268 147.102 21.2422C147.355 21.1641 147.681 21.125 148.078 21.125C148.586 21.125 148.84 21.1934 148.84 21.3301ZM158.186 25.2559C158.186 25.7376 157.977 26.0599 157.561 26.2227C157.281 26.3268 155.266 26.5189 151.516 26.7988C151.6 27.3717 151.916 27.86 152.463 28.2637C152.984 28.6478 153.544 28.8398 154.143 28.8398C155.171 28.8398 156.115 28.5078 156.975 27.8438C157.079 27.7591 157.183 27.6745 157.287 27.5898C157.339 27.5898 157.372 27.5964 157.385 27.6094C157.404 27.6224 157.528 27.8503 157.756 28.293C157.984 28.7292 158.098 28.9635 158.098 28.9961C158.098 29.0352 158.046 29.11 157.941 29.2207C156.984 30.2363 155.757 30.7441 154.26 30.7441C152.749 30.7441 151.545 30.2949 150.646 29.3965C149.748 28.4915 149.299 27.2871 149.299 25.7832C149.299 24.4421 149.729 23.2734 150.588 22.2773C151.493 21.2422 152.603 20.7246 153.918 20.7246C155.142 20.7246 156.164 21.1738 156.984 22.0723C157.785 22.9447 158.186 24.0059 158.186 25.2559ZM155.861 24.6602C155.861 24.1198 155.646 23.6413 155.217 23.2246C154.794 22.8079 154.315 22.5996 153.781 22.5996C153.182 22.5996 152.648 22.8405 152.18 23.3223C151.717 23.804 151.486 24.3444 151.486 24.9434C151.486 25.0801 151.604 25.1484 151.838 25.1484C152.801 25.1484 153.954 25.0508 155.295 24.8555C155.673 24.8034 155.861 24.7383 155.861 24.6602Z" fill="#090F24"/>
</svg>
