<svg width="520" height="19" viewBox="0 0 520 19" fill="none" xmlns="http://www.w3.org/2000/svg">
<ellipse cx="9.45119" cy="9.03361" rx="9.45119" ry="9.03361" fill="#285580"/>
<path fill-rule="evenodd" clip-rule="evenodd" d="M15.7346 5.33206C15.9175 5.50686 16.0202 5.74391 16.0202 5.99108C16.0202 6.23824 15.9175 6.47529 15.7346 6.65009L8.42507 13.6367C8.32847 13.7291 8.21378 13.8023 8.08756 13.8523C7.96134 13.9023 7.82605 13.928 7.68943 13.928C7.5528 13.928 7.41752 13.9023 7.2913 13.8523C7.16507 13.8023 7.05039 13.7291 6.95379 13.6367L3.32209 10.1661C3.22895 10.0801 3.15465 9.97724 3.10354 9.86351C3.05243 9.74979 3.02553 9.62748 3.02441 9.50371C3.02328 9.37994 3.04795 9.2572 3.09699 9.14264C3.14602 9.02809 3.21844 8.92401 3.31 8.83649C3.40157 8.74897 3.51045 8.67976 3.6303 8.63289C3.75015 8.58603 3.87857 8.56244 4.00806 8.56352C4.13755 8.56459 4.26551 8.59031 4.38449 8.63916C4.50347 8.68801 4.61108 8.75902 4.70104 8.84805L7.6891 11.7041L14.355 5.33206C14.4456 5.24544 14.5531 5.17673 14.6715 5.12985C14.7898 5.08297 14.9167 5.05884 15.0448 5.05884C15.1729 5.05884 15.2998 5.08297 15.4182 5.12985C15.5365 5.17673 15.6441 5.24544 15.7346 5.33206Z" fill="white"/>
<path d="M27.8505 14.0336V3.12451H35.2014V5.02614H30.157V7.62557H34.8232V9.52721H30.157V12.132H35.2227V14.0336H27.8505ZM38.8888 5.85178L40.3909 8.71222L41.9303 5.85178H44.2581L41.8877 9.94269L44.322 14.0336H42.0049L40.3909 11.2051L38.8036 14.0336H36.4598L38.8888 9.94269L36.545 5.85178H38.8888ZM45.6058 17.1018V5.85178H47.843V7.22607H47.9442C48.0436 7.0059 48.1874 6.78218 48.3757 6.55491C48.5674 6.32408 48.816 6.13232 49.1214 5.97962C49.4303 5.82337 49.8139 5.74525 50.272 5.74525C50.8685 5.74525 51.419 5.9015 51.9232 6.214C52.4275 6.52295 52.8306 6.98992 53.1324 7.61492C53.4342 8.23637 53.5852 9.01584 53.5852 9.95334C53.5852 10.866 53.4378 11.6366 53.1431 12.2651C52.8519 12.8901 52.4541 13.3642 51.9499 13.6874C51.4492 14.007 50.8881 14.1668 50.2666 14.1668C49.8263 14.1668 49.4516 14.094 49.1427 13.9484C48.8373 13.8028 48.5869 13.6199 48.3916 13.3997C48.1963 13.176 48.0472 12.9505 47.9442 12.7232H47.8749V17.1018H45.6058ZM47.827 9.94269C47.827 10.4292 47.8945 10.8536 48.0294 11.2158C48.1644 11.578 48.3597 11.8603 48.6154 12.0627C48.871 12.2616 49.1818 12.361 49.5475 12.361C49.9168 12.361 50.2293 12.2598 50.485 12.0574C50.7407 11.8514 50.9342 11.5673 51.0656 11.2051C51.2006 10.8394 51.2681 10.4185 51.2681 9.94269C51.2681 9.47039 51.2024 9.05491 51.071 8.69624C50.9396 8.33758 50.746 8.05704 50.4904 7.85462C50.2347 7.65221 49.9204 7.551 49.5475 7.551C49.1782 7.551 48.8657 7.64866 48.61 7.84397C48.3579 8.03928 48.1644 8.31627 48.0294 8.67493C47.8945 9.0336 47.827 9.45619 47.827 9.94269ZM58.8266 14.1934C57.985 14.1934 57.2606 14.0229 56.6534 13.682C56.0497 13.3376 55.5845 12.8511 55.2578 12.2225C54.931 11.5904 54.7677 10.8429 54.7677 9.97998C54.7677 9.13836 54.931 8.39972 55.2578 7.76407C55.5845 7.12842 56.0443 6.63303 56.6374 6.27792C57.234 5.9228 57.9335 5.74525 58.7361 5.74525C59.2759 5.74525 59.7784 5.83225 60.2435 6.00626C60.7123 6.17671 61.1207 6.43417 61.4687 6.77863C61.8203 7.12309 62.0937 7.55633 62.289 8.07834C62.4843 8.59681 62.582 9.20405 62.582 9.90008V10.5233H55.6732V9.11705H60.446C60.446 8.79035 60.3749 8.50093 60.2329 8.2488C60.0909 7.99667 59.8938 7.79958 59.6416 7.65753C59.3931 7.51194 59.1036 7.43914 58.7734 7.43914C58.4289 7.43914 58.1235 7.51904 57.8572 7.67884C57.5944 7.83509 57.3884 8.04638 57.2393 8.31272C57.0901 8.5755 57.0138 8.86847 57.0102 9.19163V10.5286C57.0102 10.9335 57.0848 11.2832 57.234 11.578C57.3867 11.8727 57.6015 12.1 57.8785 12.2598C58.1555 12.4196 58.484 12.4995 58.8639 12.4995C59.1161 12.4995 59.3469 12.464 59.5564 12.393C59.7659 12.322 59.9453 12.2154 60.0944 12.0734C60.2435 11.9313 60.3572 11.7573 60.4353 11.5514L62.534 11.6898C62.4275 12.1941 62.2091 12.6345 61.8788 13.0109C61.5521 13.3837 61.1296 13.6749 60.6111 13.8845C60.0962 14.0904 59.5014 14.1934 58.8266 14.1934ZM64.0628 14.0336V5.85178H66.2627V7.27934H66.348C66.4971 6.77153 66.7475 6.388 67.099 6.12877C67.4506 5.86599 67.8554 5.73459 68.3135 5.73459C68.4271 5.73459 68.5497 5.7417 68.681 5.7559C68.8124 5.77011 68.9279 5.78964 69.0273 5.81449V7.82799C68.9208 7.79603 68.7734 7.76762 68.5852 7.74276C68.397 7.7179 68.2247 7.70547 68.0685 7.70547C67.7347 7.70547 67.4364 7.77827 67.1736 7.92387C66.9144 8.06592 66.7084 8.26478 66.5557 8.52046C66.4065 8.77614 66.332 9.07089 66.332 9.40469V14.0336H64.0628ZM70.2005 14.0336V5.85178H72.4697V14.0336H70.2005ZM71.3404 4.79709C71.003 4.79709 70.7136 4.68523 70.4722 4.46151C70.2342 4.23424 70.1153 3.96258 70.1153 3.64653C70.1153 3.33403 70.2342 3.06591 70.4722 2.84219C70.7136 2.61492 71.003 2.50128 71.3404 2.50128C71.6778 2.50128 71.9654 2.61492 72.2033 2.84219C72.4448 3.06591 72.5655 3.33403 72.5655 3.64653C72.5655 3.96258 72.4448 4.23424 72.2033 4.46151C71.9654 4.68523 71.6778 4.79709 71.3404 4.79709ZM78.0161 14.1934C77.1745 14.1934 76.45 14.0229 75.8428 13.682C75.2391 13.3376 74.7739 12.8511 74.4472 12.2225C74.1205 11.5904 73.9572 10.8429 73.9572 9.97998C73.9572 9.13836 74.1205 8.39972 74.4472 7.76407C74.7739 7.12842 75.2338 6.63303 75.8268 6.27792C76.4234 5.9228 77.123 5.74525 77.9255 5.74525C78.4653 5.74525 78.9678 5.83225 79.433 6.00626C79.9018 6.17671 80.3101 6.43417 80.6581 6.77863C81.0097 7.12309 81.2831 7.55633 81.4785 8.07834C81.6738 8.59681 81.7714 9.20405 81.7714 9.90008V10.5233H74.8627V9.11705H79.6354C79.6354 8.79035 79.5644 8.50093 79.4223 8.2488C79.2803 7.99667 79.0832 7.79958 78.8311 7.65753C78.5825 7.51194 78.2931 7.43914 77.9628 7.43914C77.6184 7.43914 77.313 7.51904 77.0466 7.67884C76.7839 7.83509 76.5779 8.04638 76.4287 8.31272C76.2796 8.5755 76.2032 8.86847 76.1997 9.19163V10.5286C76.1997 10.9335 76.2743 11.2832 76.4234 11.578C76.5761 11.8727 76.791 12.1 77.0679 12.2598C77.3449 12.4196 77.6734 12.4995 78.0534 12.4995C78.3055 12.4995 78.5363 12.464 78.7459 12.393C78.9554 12.322 79.1347 12.2154 79.2839 12.0734C79.433 11.9313 79.5466 11.7573 79.6248 11.5514L81.7235 11.6898C81.617 12.1941 81.3986 12.6345 81.0683 13.0109C80.7416 13.3837 80.319 13.6749 79.8005 13.8845C79.2856 14.0904 78.6908 14.1934 78.0161 14.1934ZM85.5214 9.30349V14.0336H83.2523V5.85178H85.4149V7.29532H85.5108C85.6919 6.81947 85.9955 6.44305 86.4216 6.16606C86.8478 5.88552 87.3645 5.74525 87.9717 5.74525C88.5399 5.74525 89.0353 5.86954 89.4579 6.11812C89.8804 6.3667 90.2089 6.72181 90.4433 7.18346C90.6777 7.64155 90.7949 8.18843 90.7949 8.82408V14.0336H88.5257V9.22891C88.5292 8.7282 88.4014 8.33758 88.1422 8.05704C87.8829 7.77295 87.526 7.6309 87.0715 7.6309C86.7661 7.6309 86.4962 7.6966 86.2618 7.82799C86.031 7.95938 85.8499 8.15114 85.7185 8.40327C85.5907 8.65185 85.525 8.95192 85.5214 9.30349ZM96.28 14.1934C95.442 14.1934 94.7211 14.0158 94.1174 13.6607C93.5173 13.3021 93.0556 12.8049 92.7325 12.1693C92.4129 11.5336 92.253 10.8021 92.253 9.97465C92.253 9.13658 92.4146 8.4015 92.7378 7.7694C93.0645 7.13374 93.5279 6.63836 94.128 6.28324C94.7282 5.92458 95.442 5.74525 96.2694 5.74525C96.9832 5.74525 97.6082 5.87486 98.1444 6.1341C98.6806 6.39333 99.105 6.75732 99.4175 7.22607C99.73 7.69482 99.9022 8.24525 99.9342 8.87735H97.7928C97.7325 8.46897 97.5727 8.14049 97.3134 7.89191C97.0577 7.63978 96.7222 7.51371 96.3067 7.51371C95.9551 7.51371 95.6479 7.60959 95.3852 7.80136C95.1259 7.98957 94.9235 8.26478 94.7779 8.62699C94.6323 8.98921 94.5595 9.42778 94.5595 9.94269C94.5595 10.4647 94.6305 10.9086 94.7726 11.2744C94.9182 11.6401 95.1224 11.9189 95.3852 12.1107C95.6479 12.3024 95.9551 12.3983 96.3067 12.3983C96.5659 12.3983 96.7985 12.345 97.0045 12.2385C97.214 12.132 97.3862 11.9775 97.5212 11.7751C97.6597 11.5691 97.7502 11.3223 97.7928 11.0347H99.9342C99.8986 11.6597 99.7282 12.2101 99.4228 12.6859C99.1209 13.1582 98.7037 13.5276 98.171 13.7939C97.6383 14.0602 97.008 14.1934 96.28 14.1934ZM105.116 14.1934C104.274 14.1934 103.55 14.0229 102.942 13.682C102.339 13.3376 101.874 12.8511 101.547 12.2225C101.22 11.5904 101.057 10.8429 101.057 9.97998C101.057 9.13836 101.22 8.39972 101.547 7.76407C101.874 7.12842 102.333 6.63303 102.926 6.27792C103.523 5.9228 104.223 5.74525 105.025 5.74525C105.565 5.74525 106.067 5.83225 106.533 6.00626C107.001 6.17671 107.41 6.43417 107.758 6.77863C108.109 7.12309 108.383 7.55633 108.578 8.07834C108.773 8.59681 108.871 9.20405 108.871 9.90008V10.5233H101.962V9.11705H106.735C106.735 8.79035 106.664 8.50093 106.522 8.2488C106.38 7.99667 106.183 7.79958 105.931 7.65753C105.682 7.51194 105.393 7.43914 105.062 7.43914C104.718 7.43914 104.413 7.51904 104.146 7.67884C103.883 7.83509 103.677 8.04638 103.528 8.31272C103.379 8.5755 103.303 8.86847 103.299 9.19163V10.5286C103.299 10.9335 103.374 11.2832 103.523 11.578C103.676 11.8727 103.891 12.1 104.168 12.2598C104.445 12.4196 104.773 12.4995 105.153 12.4995C105.405 12.4995 105.636 12.464 105.845 12.393C106.055 12.322 106.234 12.2154 106.383 12.0734C106.533 11.9313 106.646 11.7573 106.724 11.5514L108.823 11.6898C108.717 12.1941 108.498 12.6345 108.168 13.0109C107.841 13.3837 107.419 13.6749 106.9 13.8845C106.385 14.0904 105.79 14.1934 105.116 14.1934ZM113.367 14.1668C112.745 14.1668 112.182 14.007 111.678 13.6874C111.177 13.3642 110.78 12.8901 110.485 12.2651C110.194 11.6366 110.048 10.866 110.048 9.95334C110.048 9.01584 110.199 8.23637 110.501 7.61492C110.803 6.98992 111.204 6.52295 111.705 6.214C112.209 5.9015 112.761 5.74525 113.361 5.74525C113.82 5.74525 114.201 5.82337 114.507 5.97962C114.816 6.13232 115.064 6.32408 115.252 6.55491C115.444 6.78218 115.59 7.0059 115.689 7.22607H115.758V3.12451H118.022V14.0336H115.785V12.7232H115.689C115.583 12.9505 115.432 13.176 115.236 13.3997C115.045 13.6199 114.794 13.8028 114.485 13.9484C114.18 14.094 113.807 14.1668 113.367 14.1668ZM114.086 12.361C114.452 12.361 114.761 12.2616 115.013 12.0627C115.268 11.8603 115.464 11.578 115.599 11.2158C115.737 10.8536 115.806 10.4292 115.806 9.94269C115.806 9.45619 115.739 9.0336 115.604 8.67493C115.469 8.31627 115.274 8.03928 115.018 7.84397C114.762 7.64866 114.452 7.551 114.086 7.551C113.713 7.551 113.399 7.65221 113.143 7.85462C112.887 8.05704 112.694 8.33758 112.562 8.69624C112.431 9.05491 112.365 9.47039 112.365 9.94269C112.365 10.4185 112.431 10.8394 112.562 11.2051C112.697 11.5673 112.891 11.8514 113.143 12.0574C113.399 12.2598 113.713 12.361 114.086 12.361ZM123.36 14.0336V5.85178H125.522V7.29532H125.618C125.789 6.81592 126.073 6.43772 126.47 6.16073C126.868 5.88374 127.344 5.74525 127.898 5.74525C128.459 5.74525 128.937 5.88552 129.331 6.16606C129.725 6.44305 129.988 6.81947 130.119 7.29532H130.204C130.371 6.82657 130.673 6.45192 131.11 6.17138C131.55 5.88729 132.071 5.74525 132.671 5.74525C133.434 5.74525 134.054 5.9885 134.53 6.47501C135.009 6.95796 135.249 7.64333 135.249 8.53111V14.0336H132.985V8.97856C132.985 8.52401 132.864 8.1831 132.623 7.95583C132.381 7.72856 132.079 7.61492 131.717 7.61492C131.305 7.61492 130.984 7.74631 130.753 8.0091C130.522 8.26833 130.407 8.61101 130.407 9.03715V14.0336H128.207V8.93062C128.207 8.52934 128.092 8.20974 127.861 7.97181C127.633 7.73388 127.333 7.61492 126.961 7.61492C126.708 7.61492 126.481 7.67884 126.279 7.80668C126.08 7.93097 125.922 8.10675 125.805 8.33403C125.687 8.55775 125.629 8.82053 125.629 9.12238V14.0336H123.36ZM140.77 14.1934C139.928 14.1934 139.204 14.0229 138.597 13.682C137.993 13.3376 137.528 12.8511 137.201 12.2225C136.874 11.5904 136.711 10.8429 136.711 9.97998C136.711 9.13836 136.874 8.39972 137.201 7.76407C137.528 7.12842 137.988 6.63303 138.581 6.27792C139.177 5.9228 139.877 5.74525 140.679 5.74525C141.219 5.74525 141.722 5.83225 142.187 6.00626C142.656 6.17671 143.064 6.43417 143.412 6.77863C143.764 7.12309 144.037 7.55633 144.232 8.07834C144.428 8.59681 144.525 9.20405 144.525 9.90008V10.5233H137.617V9.11705H142.389C142.389 8.79035 142.318 8.50093 142.176 8.2488C142.034 7.99667 141.837 7.79958 141.585 7.65753C141.336 7.51194 141.047 7.43914 140.717 7.43914C140.372 7.43914 140.067 7.51904 139.801 7.67884C139.538 7.83509 139.332 8.04638 139.183 8.31272C139.034 8.5755 138.957 8.86847 138.954 9.19163V10.5286C138.954 10.9335 139.028 11.2832 139.177 11.578C139.33 11.8727 139.545 12.1 139.822 12.2598C140.099 12.4196 140.427 12.4995 140.807 12.4995C141.059 12.4995 141.29 12.464 141.5 12.393C141.709 12.322 141.889 12.2154 142.038 12.0734C142.187 11.9313 142.301 11.7573 142.379 11.5514L144.477 11.6898C144.371 12.1941 144.152 12.6345 143.822 13.0109C143.496 13.3837 143.073 13.6749 142.554 13.8845C142.04 14.0904 141.445 14.1934 140.77 14.1934ZM148.275 9.30349V14.0336H146.006V5.85178H148.169V7.29532H148.265C148.446 6.81947 148.749 6.44305 149.176 6.16606C149.602 5.88552 150.118 5.74525 150.726 5.74525C151.294 5.74525 151.789 5.86954 152.212 6.11812C152.634 6.3667 152.963 6.72181 153.197 7.18346C153.432 7.64155 153.549 8.18843 153.549 8.82408V14.0336H151.28V9.22891C151.283 8.7282 151.155 8.33758 150.896 8.05704C150.637 7.77295 150.28 7.6309 149.825 7.6309C149.52 7.6309 149.25 7.6966 149.016 7.82799C148.785 7.95938 148.604 8.15114 148.472 8.40327C148.345 8.65185 148.279 8.95192 148.275 9.30349ZM159.689 5.85178V7.55633H154.762V5.85178H159.689ZM155.881 3.89155H158.15V11.5194C158.15 11.7289 158.182 11.8923 158.246 12.0095C158.31 12.1231 158.398 12.203 158.512 12.2492C158.629 12.2953 158.764 12.3184 158.917 12.3184C159.023 12.3184 159.13 12.3095 159.236 12.2918C159.343 12.2705 159.425 12.2545 159.481 12.2438L159.838 13.9324C159.725 13.9679 159.565 14.0087 159.359 14.0549C159.153 14.1046 158.903 14.1348 158.608 14.1455C158.061 14.1668 157.582 14.094 157.17 13.9271C156.761 13.7602 156.443 13.5009 156.216 13.1494C155.989 12.7978 155.877 12.3539 155.881 11.8177V3.89155ZM164.776 14.1934C163.949 14.1934 163.233 14.0176 162.629 13.6661C162.029 13.3109 161.566 12.8173 161.239 12.1852C160.912 11.5496 160.749 10.8127 160.749 9.97465C160.749 9.12948 160.912 8.39084 161.239 7.75874C161.566 7.12309 162.029 6.62948 162.629 6.27792C163.233 5.9228 163.949 5.74525 164.776 5.74525C165.604 5.74525 166.317 5.9228 166.917 6.27792C167.521 6.62948 167.986 7.12309 168.313 7.75874C168.64 8.39084 168.803 9.12948 168.803 9.97465C168.803 10.8127 168.64 11.5496 168.313 12.1852C167.986 12.8173 167.521 13.3109 166.917 13.6661C166.317 14.0176 165.604 14.1934 164.776 14.1934ZM164.787 12.4356C165.163 12.4356 165.477 12.3291 165.73 12.116C165.982 11.8994 166.172 11.6046 166.3 11.2318C166.431 10.8589 166.497 10.4345 166.497 9.95867C166.497 9.48282 166.431 9.05846 166.3 8.68559C166.172 8.31272 165.982 8.01797 165.73 7.80136C165.477 7.58474 165.163 7.47643 164.787 7.47643C164.407 7.47643 164.087 7.58474 163.828 7.80136C163.572 8.01797 163.379 8.31272 163.247 8.68559C163.12 9.05846 163.056 9.48282 163.056 9.95867C163.056 10.4345 163.12 10.8589 163.247 11.2318C163.379 11.6046 163.572 11.8994 163.828 12.116C164.087 12.3291 164.407 12.4356 164.787 12.4356ZM170.279 14.0336V5.85178H172.479V7.27934H172.564C172.713 6.77153 172.963 6.388 173.315 6.12877C173.666 5.86599 174.071 5.73459 174.529 5.73459C174.643 5.73459 174.765 5.7417 174.897 5.7559C175.028 5.77011 175.144 5.78964 175.243 5.81449V7.82799C175.137 7.79603 174.989 7.76762 174.801 7.74276C174.613 7.7179 174.441 7.70547 174.284 7.70547C173.95 7.70547 173.652 7.77827 173.389 7.92387C173.13 8.06592 172.924 8.26478 172.772 8.52046C172.622 8.77614 172.548 9.07089 172.548 9.40469V14.0336H170.279ZM183.224 8.18488L181.146 8.31272C181.111 8.13516 181.035 7.97536 180.917 7.83332C180.8 7.68772 180.646 7.57231 180.454 7.48708C180.266 7.3983 180.04 7.35391 179.777 7.35391C179.426 7.35391 179.129 7.42849 178.888 7.57763C178.646 7.72323 178.526 7.91854 178.526 8.16357C178.526 8.35888 178.604 8.52401 178.76 8.65896C178.916 8.7939 179.184 8.90221 179.564 8.98388L181.045 9.28218C181.841 9.44553 182.434 9.70832 182.824 10.0705C183.215 10.4327 183.41 10.9086 183.41 11.4981C183.41 12.0343 183.252 12.5048 182.936 12.9097C182.624 13.3145 182.194 13.6305 181.647 13.8578C181.104 14.0815 180.477 14.1934 179.767 14.1934C178.684 14.1934 177.821 13.9679 177.178 13.5169C176.539 13.0624 176.164 12.4445 176.054 11.6632L178.286 11.546C178.353 11.8763 178.517 12.1284 178.776 12.3024C179.035 12.4729 179.367 12.5581 179.772 12.5581C180.17 12.5581 180.489 12.4818 180.731 12.3291C180.976 12.1728 181.1 11.9722 181.104 11.7271C181.1 11.5212 181.013 11.3525 180.843 11.2211C180.672 11.0862 180.41 10.9832 180.054 10.9122L178.638 10.6298C177.839 10.47 177.244 10.193 176.853 9.79887C176.466 9.40469 176.272 8.90221 176.272 8.29141C176.272 7.76584 176.415 7.31307 176.699 6.9331C176.986 6.55313 177.389 6.26016 177.908 6.0542C178.43 5.84823 179.041 5.74525 179.74 5.74525C180.774 5.74525 181.587 5.96364 182.18 6.40043C182.776 6.83722 183.124 7.43204 183.224 8.18488Z" fill="black"/>
<circle cx="217.936" cy="9.03361" r="9.03361" fill="#285580"/>
<path fill-rule="evenodd" clip-rule="evenodd" d="M223.942 5.33206C224.117 5.50686 224.215 5.74391 224.215 5.99108C224.215 6.23824 224.117 6.47529 223.942 6.65009L216.955 13.6367C216.863 13.7291 216.753 13.8023 216.633 13.8523C216.512 13.9023 216.383 13.928 216.252 13.928C216.121 13.928 215.992 13.9023 215.872 13.8523C215.751 13.8023 215.641 13.7291 215.549 13.6367L212.078 10.1661C211.989 10.0801 211.918 9.97724 211.869 9.86351C211.82 9.74979 211.794 9.62748 211.793 9.50371C211.792 9.37994 211.816 9.2572 211.863 9.14264C211.909 9.02809 211.979 8.92401 212.066 8.83649C212.154 8.74897 212.258 8.67976 212.372 8.63289C212.487 8.58603 212.61 8.56244 212.733 8.56352C212.857 8.56459 212.979 8.59031 213.093 8.63916C213.207 8.68801 213.31 8.75902 213.396 8.84805L216.252 11.7041L222.623 5.33206C222.71 5.24544 222.813 5.17673 222.926 5.12985C223.039 5.08297 223.16 5.05884 223.282 5.05884C223.405 5.05884 223.526 5.08297 223.639 5.12985C223.752 5.17673 223.855 5.24544 223.942 5.33206Z" fill="white"/>
<path d="M240.035 10.241H241.996L242.981 11.5087L243.95 12.638L245.777 14.9285H243.625L242.368 13.3837L241.724 12.4675L240.035 10.241ZM245.943 8.57905C245.943 9.76869 245.717 10.7808 245.266 11.6153C244.819 12.4498 244.208 13.0872 243.434 13.5276C242.663 13.9644 241.797 14.1827 240.834 14.1827C239.865 14.1827 238.995 13.9626 238.224 13.5222C237.454 13.0819 236.845 12.4445 236.397 11.6099C235.95 10.7754 235.726 9.76513 235.726 8.57905C235.726 7.38942 235.95 6.37735 236.397 5.54283C236.845 4.70832 237.454 4.07266 238.224 3.63587C238.995 3.19553 239.865 2.97536 240.834 2.97536C241.797 2.97536 242.663 3.19553 243.434 3.63587C244.208 4.07266 244.819 4.70832 245.266 5.54283C245.717 6.37735 245.943 7.38942 245.943 8.57905ZM243.604 8.57905C243.604 7.80846 243.489 7.1586 243.258 6.62948C243.031 6.10036 242.709 5.69908 242.294 5.42565C241.878 5.15221 241.392 5.01549 240.834 5.01549C240.277 5.01549 239.79 5.15221 239.375 5.42565C238.959 5.69908 238.636 6.10036 238.405 6.62948C238.178 7.1586 238.064 7.80846 238.064 8.57905C238.064 9.34965 238.178 9.99951 238.405 10.5286C238.636 11.0577 238.959 11.459 239.375 11.7325C239.79 12.0059 240.277 12.1426 240.834 12.1426C241.392 12.1426 241.878 12.0059 242.294 11.7325C242.709 11.459 243.031 11.0577 243.258 10.5286C243.489 9.99951 243.604 9.34965 243.604 8.57905ZM252.855 10.5499V5.85178H255.125V14.0336H252.946V12.5474H252.861C252.676 13.0269 252.369 13.4122 251.939 13.7033C251.513 13.9945 250.993 14.1401 250.378 14.1401C249.832 14.1401 249.35 14.0158 248.935 13.7673C248.519 13.5187 248.194 13.1653 247.96 12.7073C247.729 12.2492 247.612 11.7005 247.609 11.0613V5.85178H249.878V10.6565C249.881 11.1394 250.011 11.5212 250.267 11.8017C250.522 12.0823 250.865 12.2225 251.295 12.2225C251.568 12.2225 251.824 12.1604 252.062 12.0361C252.3 11.9082 252.491 11.72 252.637 11.4715C252.786 11.2229 252.859 10.9157 252.855 10.5499ZM259.273 14.1881C258.751 14.1881 258.285 14.0975 257.877 13.9164C257.469 13.7318 257.146 13.4601 256.908 13.1014C256.673 12.7392 256.556 12.2882 256.556 11.7484C256.556 11.2939 256.64 10.9122 256.806 10.6032C256.973 10.2943 257.201 10.0457 257.488 9.85746C257.776 9.66925 258.103 9.52721 258.468 9.43133C258.838 9.33545 259.225 9.26797 259.63 9.22891C260.105 9.1792 260.489 9.13303 260.78 9.09042C261.071 9.04425 261.283 8.97678 261.414 8.888C261.545 8.79922 261.611 8.66783 261.611 8.49383V8.46187C261.611 8.12451 261.505 7.8635 261.292 7.67884C261.082 7.49418 260.784 7.40185 260.397 7.40185C259.988 7.40185 259.663 7.49241 259.422 7.67351C259.18 7.85107 259.021 8.07479 258.942 8.34468L256.844 8.17422C256.95 7.67707 257.16 7.24738 257.472 6.88516C257.785 6.51939 258.188 6.23885 258.681 6.04354C259.179 5.84468 259.754 5.74525 260.407 5.74525C260.862 5.74525 261.297 5.79851 261.712 5.90505C262.131 6.01158 262.502 6.17671 262.826 6.40043C263.152 6.62415 263.41 6.9118 263.598 7.26336C263.786 7.61137 263.88 8.02863 263.88 8.51513V14.0336H261.728V12.899H261.664C261.533 13.1547 261.357 13.3802 261.137 13.5755C260.917 13.7673 260.652 13.9182 260.343 14.0283C260.034 14.1348 259.678 14.1881 259.273 14.1881ZM259.923 12.622C260.256 12.622 260.551 12.5563 260.807 12.4249C261.062 12.29 261.263 12.1089 261.409 11.8816C261.554 11.6543 261.627 11.3969 261.627 11.1092V10.241C261.556 10.2872 261.458 10.3298 261.334 10.3688C261.213 10.4043 261.077 10.4381 260.924 10.47C260.771 10.4984 260.619 10.5251 260.466 10.5499C260.313 10.5712 260.175 10.5908 260.05 10.6085C259.784 10.6476 259.551 10.7097 259.353 10.795C259.154 10.8802 258.999 10.9956 258.889 11.1412C258.779 11.2832 258.724 11.4608 258.724 11.6739C258.724 11.9828 258.836 12.219 259.06 12.3823C259.287 12.5421 259.575 12.622 259.923 12.622ZM267.91 3.12451V14.0336H265.641V3.12451H267.91ZM269.728 14.0336V5.85178H271.997V14.0336H269.728ZM270.868 4.79709C270.53 4.79709 270.241 4.68523 269.999 4.46151C269.761 4.23424 269.642 3.96258 269.642 3.64653C269.642 3.33403 269.761 3.06591 269.999 2.84219C270.241 2.61492 270.53 2.50128 270.868 2.50128C271.205 2.50128 271.493 2.61492 271.731 2.84219C271.972 3.06591 272.093 3.33403 272.093 3.64653C272.093 3.96258 271.972 4.23424 271.731 4.46151C271.493 4.68523 271.205 4.79709 270.868 4.79709ZM278.167 5.85178V7.55633H273.239V5.85178H278.167ZM274.358 3.89155H276.627V11.5194C276.627 11.7289 276.659 11.8923 276.723 12.0095C276.787 12.1231 276.876 12.203 276.989 12.2492C277.107 12.2953 277.241 12.3184 277.394 12.3184C277.501 12.3184 277.607 12.3095 277.714 12.2918C277.82 12.2705 277.902 12.2545 277.959 12.2438L278.316 13.9324C278.202 13.9679 278.042 14.0087 277.836 14.0549C277.63 14.1046 277.38 14.1348 277.085 14.1455C276.538 14.1668 276.059 14.094 275.647 13.9271C275.239 13.7602 274.921 13.5009 274.694 13.1494C274.466 12.7978 274.354 12.3539 274.358 11.8177V3.89155ZM281.046 17.1018C280.758 17.1018 280.488 17.0787 280.236 17.0325C279.987 16.9899 279.781 16.9349 279.618 16.8674L280.129 15.1735C280.396 15.2552 280.635 15.2996 280.849 15.3067C281.065 15.3138 281.252 15.2641 281.408 15.1575C281.568 15.051 281.697 14.8699 281.797 14.6142L281.93 14.268L278.995 5.85178H281.381L283.075 11.8603H283.16L284.87 5.85178H287.273L284.092 14.9178C283.94 15.3582 283.732 15.7417 283.469 16.0684C283.21 16.3987 282.882 16.6526 282.484 16.8301C282.086 17.0112 281.607 17.1018 281.046 17.1018ZM299.533 5.85178L296.673 14.0336H294.116L291.256 5.85178H293.653L295.352 11.7058H295.437L297.131 5.85178H299.533ZM300.694 14.0336V5.85178H302.964V14.0336H300.694ZM301.834 4.79709C301.497 4.79709 301.208 4.68523 300.966 4.46151C300.728 4.23424 300.609 3.96258 300.609 3.64653C300.609 3.33403 300.728 3.06591 300.966 2.84219C301.208 2.61492 301.497 2.50128 301.834 2.50128C302.172 2.50128 302.459 2.61492 302.697 2.84219C302.939 3.06591 303.06 3.33403 303.06 3.64653C303.06 3.96258 302.939 4.23424 302.697 4.46151C302.459 4.68523 302.172 4.79709 301.834 4.79709ZM307.796 14.1668C307.175 14.1668 306.612 14.007 306.108 13.6874C305.607 13.3642 305.209 12.8901 304.915 12.2651C304.623 11.6366 304.478 10.866 304.478 9.95334C304.478 9.01584 304.629 8.23637 304.931 7.61492C305.232 6.98992 305.634 6.52295 306.134 6.214C306.639 5.9015 307.191 5.74525 307.791 5.74525C308.249 5.74525 308.631 5.82337 308.936 5.97962C309.245 6.13232 309.494 6.32408 309.682 6.55491C309.874 6.78218 310.019 7.0059 310.119 7.22607H310.188V3.12451H312.452V14.0336H310.215V12.7232H310.119C310.012 12.9505 309.861 13.176 309.666 13.3997C309.474 13.6199 309.224 13.8028 308.915 13.9484C308.61 14.094 308.237 14.1668 307.796 14.1668ZM308.515 12.361C308.881 12.361 309.19 12.2616 309.442 12.0627C309.698 11.8603 309.893 11.578 310.028 11.2158C310.167 10.8536 310.236 10.4292 310.236 9.94269C310.236 9.45619 310.168 9.0336 310.034 8.67493C309.899 8.31627 309.703 8.03928 309.448 7.84397C309.192 7.64866 308.881 7.551 308.515 7.551C308.143 7.551 307.828 7.65221 307.573 7.85462C307.317 8.05704 307.123 8.33758 306.992 8.69624C306.861 9.05491 306.795 9.47039 306.795 9.94269C306.795 10.4185 306.861 10.8394 306.992 11.2051C307.127 11.5673 307.32 11.8514 307.573 12.0574C307.828 12.2598 308.143 12.361 308.515 12.361ZM318.046 14.1934C317.205 14.1934 316.48 14.0229 315.873 13.682C315.269 13.3376 314.804 12.8511 314.477 12.2225C314.151 11.5904 313.987 10.8429 313.987 9.97998C313.987 9.13836 314.151 8.39972 314.477 7.76407C314.804 7.12842 315.264 6.63303 315.857 6.27792C316.454 5.9228 317.153 5.74525 317.956 5.74525C318.495 5.74525 318.998 5.83225 319.463 6.00626C319.932 6.17671 320.34 6.43417 320.688 6.77863C321.04 7.12309 321.313 7.55633 321.509 8.07834C321.704 8.59681 321.802 9.20405 321.802 9.90008V10.5233H314.893V9.11705H319.666C319.666 8.79035 319.595 8.50093 319.452 8.2488C319.31 7.99667 319.113 7.79958 318.861 7.65753C318.613 7.51194 318.323 7.43914 317.993 7.43914C317.648 7.43914 317.343 7.51904 317.077 7.67884C316.814 7.83509 316.608 8.04638 316.459 8.31272C316.31 8.5755 316.233 8.86847 316.23 9.19163V10.5286C316.23 10.9335 316.304 11.2832 316.454 11.578C316.606 11.8727 316.821 12.1 317.098 12.2598C317.375 12.4196 317.704 12.4995 318.084 12.4995C318.336 12.4995 318.566 12.464 318.776 12.393C318.985 12.322 319.165 12.2154 319.314 12.0734C319.463 11.9313 319.577 11.7573 319.655 11.5514L321.754 11.6898C321.647 12.1941 321.429 12.6345 321.098 13.0109C320.772 13.3837 320.349 13.6749 319.831 13.8845C319.316 14.0904 318.721 14.1934 318.046 14.1934ZM326.979 14.1934C326.152 14.1934 325.436 14.0176 324.832 13.6661C324.232 13.3109 323.769 12.8173 323.442 12.1852C323.115 11.5496 322.952 10.8127 322.952 9.97465C322.952 9.12948 323.115 8.39084 323.442 7.75874C323.769 7.12309 324.232 6.62948 324.832 6.27792C325.436 5.9228 326.152 5.74525 326.979 5.74525C327.807 5.74525 328.52 5.9228 329.12 6.27792C329.724 6.62948 330.189 7.12309 330.516 7.75874C330.843 8.39084 331.006 9.12948 331.006 9.97465C331.006 10.8127 330.843 11.5496 330.516 12.1852C330.189 12.8173 329.724 13.3109 329.12 13.6661C328.52 14.0176 327.807 14.1934 326.979 14.1934ZM326.99 12.4356C327.366 12.4356 327.68 12.3291 327.933 12.116C328.185 11.8994 328.375 11.6046 328.503 11.2318C328.634 10.8589 328.7 10.4345 328.7 9.95867C328.7 9.48282 328.634 9.05846 328.503 8.68559C328.375 8.31272 328.185 8.01797 327.933 7.80136C327.68 7.58474 327.366 7.47643 326.99 7.47643C326.61 7.47643 326.29 7.58474 326.031 7.80136C325.775 8.01797 325.582 8.31272 325.45 8.68559C325.322 9.05846 325.259 9.48282 325.259 9.95867C325.259 10.4345 325.322 10.8589 325.45 11.2318C325.582 11.6046 325.775 11.8994 326.031 12.116C326.29 12.3291 326.61 12.4356 326.99 12.4356ZM339.289 8.18488L337.212 8.31272C337.176 8.13516 337.1 7.97536 336.983 7.83332C336.865 7.68772 336.711 7.57231 336.519 7.48708C336.331 7.3983 336.106 7.35391 335.843 7.35391C335.491 7.35391 335.195 7.42849 334.953 7.57763C334.712 7.72323 334.591 7.91854 334.591 8.16357C334.591 8.35888 334.669 8.52401 334.825 8.65896C334.982 8.7939 335.25 8.90221 335.63 8.98388L337.11 9.28218C337.906 9.44553 338.499 9.70832 338.89 10.0705C339.28 10.4327 339.476 10.9086 339.476 11.4981C339.476 12.0343 339.318 12.5048 339.001 12.9097C338.689 13.3145 338.259 13.6305 337.712 13.8578C337.169 14.0815 336.542 14.1934 335.832 14.1934C334.749 14.1934 333.886 13.9679 333.243 13.5169C332.604 13.0624 332.229 12.4445 332.119 11.6632L334.351 11.546C334.419 11.8763 334.582 12.1284 334.841 12.3024C335.101 12.4729 335.433 12.5581 335.837 12.5581C336.235 12.5581 336.555 12.4818 336.796 12.3291C337.041 12.1728 337.166 11.9722 337.169 11.7271C337.166 11.5212 337.079 11.3525 336.908 11.2211C336.738 11.0862 336.475 10.9832 336.12 10.9122L334.703 10.6298C333.904 10.47 333.309 10.193 332.918 9.79887C332.531 9.40469 332.338 8.90221 332.338 8.29141C332.338 7.76584 332.48 7.31307 332.764 6.9331C333.052 6.55313 333.455 6.26016 333.973 6.0542C334.495 5.84823 335.106 5.74525 335.805 5.74525C336.839 5.74525 337.652 5.96364 338.245 6.40043C338.842 6.83722 339.19 7.43204 339.289 8.18488Z" fill="black"/>
<ellipse cx="374.421" cy="9.03361" rx="9.45119" ry="9.03361" fill="#285580"/>
<path fill-rule="evenodd" clip-rule="evenodd" d="M380.704 5.33206C380.887 5.50686 380.99 5.74391 380.99 5.99108C380.99 6.23824 380.887 6.47529 380.704 6.65009L373.395 13.6367C373.298 13.7291 373.183 13.8023 373.057 13.8523C372.931 13.9023 372.796 13.928 372.659 13.928C372.522 13.928 372.387 13.9023 372.261 13.8523C372.135 13.8023 372.02 13.7291 371.923 13.6367L368.292 10.1661C368.199 10.0801 368.124 9.97724 368.073 9.86351C368.022 9.74979 367.995 9.62748 367.994 9.50371C367.993 9.37994 368.018 9.2572 368.067 9.14264C368.116 9.02809 368.188 8.92401 368.28 8.83649C368.371 8.74897 368.48 8.67976 368.6 8.63289C368.72 8.58603 368.848 8.56244 368.978 8.56352C369.107 8.56459 369.235 8.59031 369.354 8.63916C369.473 8.68801 369.581 8.75902 369.671 8.84805L372.659 11.7041L379.325 5.33206C379.415 5.24544 379.523 5.17673 379.641 5.12985C379.759 5.08297 379.886 5.05884 380.014 5.05884C380.143 5.05884 380.269 5.08297 380.388 5.12985C380.506 5.17673 380.614 5.24544 380.704 5.33206Z" fill="white"/>
<path d="M394.7 14.0336H392.229L395.995 3.12451H398.967L402.728 14.0336H400.256L397.524 5.61741H397.438L394.7 14.0336ZM394.546 9.7456H400.384V11.546H394.546V9.7456ZM408.252 5.85178V7.55633H403.202V5.85178H408.252ZM404.358 14.0336V5.26052C404.358 4.66748 404.473 4.17564 404.704 3.78502C404.938 3.39439 405.258 3.10143 405.663 2.90611C406.068 2.7108 406.528 2.61314 407.042 2.61314C407.39 2.61314 407.708 2.63978 407.996 2.69305C408.287 2.74631 408.504 2.79425 408.646 2.83687L408.241 4.54141C408.152 4.513 408.042 4.48637 407.911 4.46151C407.783 4.43665 407.651 4.42422 407.517 4.42422C407.183 4.42422 406.95 4.50235 406.819 4.6586C406.687 4.8113 406.622 5.02614 406.622 5.30313V14.0336H404.358ZM414.038 5.85178V7.55633H408.988V5.85178H414.038ZM410.144 14.0336V5.26052C410.144 4.66748 410.259 4.17564 410.49 3.78502C410.725 3.39439 411.044 3.10143 411.449 2.90611C411.854 2.7108 412.314 2.61314 412.829 2.61314C413.177 2.61314 413.494 2.63978 413.782 2.69305C414.073 2.74631 414.29 2.79425 414.432 2.83687L414.027 4.54141C413.938 4.513 413.828 4.48637 413.697 4.46151C413.569 4.43665 413.438 4.42422 413.303 4.42422C412.969 4.42422 412.736 4.50235 412.605 4.6586C412.473 4.8113 412.408 5.02614 412.408 5.30313V14.0336H410.144ZM418.828 14.1934C418 14.1934 417.285 14.0176 416.681 13.6661C416.081 13.3109 415.618 12.8173 415.291 12.1852C414.964 11.5496 414.801 10.8127 414.801 9.97465C414.801 9.12948 414.964 8.39084 415.291 7.75874C415.618 7.12309 416.081 6.62948 416.681 6.27792C417.285 5.9228 418 5.74525 418.828 5.74525C419.655 5.74525 420.369 5.9228 420.969 6.27792C421.573 6.62948 422.038 7.12309 422.365 7.75874C422.691 8.39084 422.855 9.12948 422.855 9.97465C422.855 10.8127 422.691 11.5496 422.365 12.1852C422.038 12.8173 421.573 13.3109 420.969 13.6661C420.369 14.0176 419.655 14.1934 418.828 14.1934ZM418.838 12.4356C419.215 12.4356 419.529 12.3291 419.781 12.116C420.033 11.8994 420.223 11.6046 420.351 11.2318C420.483 10.8589 420.548 10.4345 420.548 9.95867C420.548 9.48282 420.483 9.05846 420.351 8.68559C420.223 8.31272 420.033 8.01797 419.781 7.80136C419.529 7.58474 419.215 7.47643 418.838 7.47643C418.458 7.47643 418.139 7.58474 417.88 7.80136C417.624 8.01797 417.43 8.31272 417.299 8.68559C417.171 9.05846 417.107 9.48282 417.107 9.95867C417.107 10.4345 417.171 10.8589 417.299 11.2318C417.43 11.6046 417.624 11.8994 417.88 12.116C418.139 12.3291 418.458 12.4356 418.838 12.4356ZM424.33 14.0336V5.85178H426.53V7.27934H426.615C426.765 6.77153 427.015 6.388 427.366 6.12877C427.718 5.86599 428.123 5.73459 428.581 5.73459C428.695 5.73459 428.817 5.7417 428.949 5.7559C429.08 5.77011 429.195 5.78964 429.295 5.81449V7.82799C429.188 7.79603 429.041 7.76762 428.853 7.74276C428.664 7.7179 428.492 7.70547 428.336 7.70547C428.002 7.70547 427.704 7.77827 427.441 7.92387C427.182 8.06592 426.976 8.26478 426.823 8.52046C426.674 8.77614 426.599 9.07089 426.599 9.40469V14.0336H424.33ZM433.102 14.1668C432.481 14.1668 431.918 14.007 431.413 13.6874C430.913 13.3642 430.515 12.8901 430.22 12.2651C429.929 11.6366 429.783 10.866 429.783 9.95334C429.783 9.01584 429.934 8.23637 430.236 7.61492C430.538 6.98992 430.939 6.52295 431.44 6.214C431.944 5.9015 432.497 5.74525 433.097 5.74525C433.555 5.74525 433.937 5.82337 434.242 5.97962C434.551 6.13232 434.799 6.32408 434.988 6.55491C435.179 6.78218 435.325 7.0059 435.424 7.22607H435.494V3.12451H437.758V14.0336H435.52V12.7232H435.424C435.318 12.9505 435.167 13.176 434.972 13.3997C434.78 13.6199 434.53 13.8028 434.221 13.9484C433.915 14.094 433.542 14.1668 433.102 14.1668ZM433.821 12.361C434.187 12.361 434.496 12.2616 434.748 12.0627C435.004 11.8603 435.199 11.578 435.334 11.2158C435.472 10.8536 435.542 10.4292 435.542 9.94269C435.542 9.45619 435.474 9.0336 435.339 8.67493C435.204 8.31627 435.009 8.03928 434.753 7.84397C434.498 7.64866 434.187 7.551 433.821 7.551C433.448 7.551 433.134 7.65221 432.878 7.85462C432.623 8.05704 432.429 8.33758 432.298 8.69624C432.166 9.05491 432.101 9.47039 432.101 9.94269C432.101 10.4185 432.166 10.8394 432.298 11.2051C432.433 11.5673 432.626 11.8514 432.878 12.0574C433.134 12.2598 433.448 12.361 433.821 12.361ZM441.956 14.1881C441.434 14.1881 440.969 14.0975 440.561 13.9164C440.152 13.7318 439.829 13.4601 439.591 13.1014C439.357 12.7392 439.24 12.2882 439.24 11.7484C439.24 11.2939 439.323 10.9122 439.49 10.6032C439.657 10.2943 439.884 10.0457 440.172 9.85746C440.46 9.66925 440.786 9.52721 441.152 9.43133C441.521 9.33545 441.908 9.26797 442.313 9.22891C442.789 9.1792 443.173 9.13303 443.464 9.09042C443.755 9.04425 443.966 8.97678 444.098 8.888C444.229 8.79922 444.295 8.66783 444.295 8.49383V8.46187C444.295 8.12451 444.188 7.8635 443.975 7.67884C443.766 7.49418 443.467 7.40185 443.08 7.40185C442.672 7.40185 442.347 7.49241 442.105 7.67351C441.864 7.85107 441.704 8.07479 441.626 8.34468L439.527 8.17422C439.634 7.67707 439.843 7.24738 440.156 6.88516C440.468 6.51939 440.871 6.23885 441.365 6.04354C441.862 5.84468 442.437 5.74525 443.091 5.74525C443.545 5.74525 443.98 5.79851 444.396 5.90505C444.815 6.01158 445.186 6.17671 445.509 6.40043C445.836 6.62415 446.093 6.9118 446.282 7.26336C446.47 7.61137 446.564 8.02863 446.564 8.51513V14.0336H444.412V12.899H444.348C444.217 13.1547 444.041 13.3802 443.821 13.5755C443.6 13.7673 443.336 13.9182 443.027 14.0283C442.718 14.1348 442.361 14.1881 441.956 14.1881ZM442.606 12.622C442.94 12.622 443.235 12.5563 443.49 12.4249C443.746 12.29 443.947 12.1089 444.092 11.8816C444.238 11.6543 444.311 11.3969 444.311 11.1092V10.241C444.24 10.2872 444.142 10.3298 444.018 10.3688C443.897 10.4043 443.76 10.4381 443.608 10.47C443.455 10.4984 443.302 10.5251 443.15 10.5499C442.997 10.5712 442.858 10.5908 442.734 10.6085C442.468 10.6476 442.235 10.7097 442.036 10.795C441.837 10.8802 441.683 10.9956 441.573 11.1412C441.463 11.2832 441.408 11.4608 441.408 11.6739C441.408 11.9828 441.52 12.219 441.743 12.3823C441.971 12.5421 442.258 12.622 442.606 12.622ZM448.367 14.0336V3.12451H450.636V7.22607H450.705C450.805 7.0059 450.949 6.78218 451.137 6.55491C451.329 6.32408 451.577 6.13232 451.883 5.97962C452.192 5.82337 452.575 5.74525 453.033 5.74525C453.63 5.74525 454.18 5.9015 454.684 6.214C455.189 6.52295 455.592 6.98992 455.894 7.61492C456.195 8.23637 456.346 9.01584 456.346 9.95334C456.346 10.866 456.199 11.6366 455.904 12.2651C455.613 12.8901 455.215 13.3642 454.711 13.6874C454.21 14.007 453.649 14.1668 453.028 14.1668C452.588 14.1668 452.213 14.094 451.904 13.9484C451.599 13.8028 451.348 13.6199 451.153 13.3997C450.958 13.176 450.808 12.9505 450.705 12.7232H450.604V14.0336H448.367ZM450.588 9.94269C450.588 10.4292 450.656 10.8536 450.791 11.2158C450.926 11.578 451.121 11.8603 451.377 12.0627C451.632 12.2616 451.943 12.361 452.309 12.361C452.678 12.361 452.991 12.2598 453.246 12.0574C453.502 11.8514 453.695 11.5673 453.827 11.2051C453.962 10.8394 454.029 10.4185 454.029 9.94269C454.029 9.47039 453.964 9.05491 453.832 8.69624C453.701 8.33758 453.507 8.05704 453.252 7.85462C452.996 7.65221 452.682 7.551 452.309 7.551C451.939 7.551 451.627 7.64866 451.371 7.84397C451.119 8.03928 450.926 8.31627 450.791 8.67493C450.656 9.0336 450.588 9.45619 450.588 9.94269ZM460.13 3.12451V14.0336H457.861V3.12451H460.13ZM465.676 14.1934C464.835 14.1934 464.11 14.0229 463.503 13.682C462.899 13.3376 462.434 12.8511 462.107 12.2225C461.781 11.5904 461.617 10.8429 461.617 9.97998C461.617 9.13836 461.781 8.39972 462.107 7.76407C462.434 7.12842 462.894 6.63303 463.487 6.27792C464.083 5.9228 464.783 5.74525 465.586 5.74525C466.125 5.74525 466.628 5.83225 467.093 6.00626C467.562 6.17671 467.97 6.43417 468.318 6.77863C468.67 7.12309 468.943 7.55633 469.138 8.07834C469.334 8.59681 469.431 9.20405 469.431 9.90008V10.5233H462.523V9.11705H467.295C467.295 8.79035 467.224 8.50093 467.082 8.2488C466.94 7.99667 466.743 7.79958 466.491 7.65753C466.243 7.51194 465.953 7.43914 465.623 7.43914C465.278 7.43914 464.973 7.51904 464.707 7.67884C464.444 7.83509 464.238 8.04638 464.089 8.31272C463.94 8.5755 463.863 8.86847 463.86 9.19163V10.5286C463.86 10.9335 463.934 11.2832 464.083 11.578C464.236 11.8727 464.451 12.1 464.728 12.2598C465.005 12.4196 465.333 12.4995 465.713 12.4995C465.966 12.4995 466.196 12.464 466.406 12.393C466.615 12.322 466.795 12.2154 466.944 12.0734C467.093 11.9313 467.207 11.7573 467.285 11.5514L469.384 11.6898C469.277 12.1941 469.059 12.6345 468.728 13.0109C468.402 13.3837 467.979 13.6749 467.461 13.8845C466.946 14.0904 466.351 14.1934 465.676 14.1934ZM474.384 17.1018V5.85178H476.621V7.22607H476.722C476.822 7.0059 476.966 6.78218 477.154 6.55491C477.346 6.32408 477.594 6.13232 477.9 5.97962C478.209 5.82337 478.592 5.74525 479.05 5.74525C479.647 5.74525 480.197 5.9015 480.701 6.214C481.206 6.52295 481.609 6.98992 481.911 7.61492C482.212 8.23637 482.363 9.01584 482.363 9.95334C482.363 10.866 482.216 11.6366 481.921 12.2651C481.63 12.8901 481.232 13.3642 480.728 13.6874C480.227 14.007 479.666 14.1668 479.045 14.1668C478.604 14.1668 478.23 14.094 477.921 13.9484C477.615 13.8028 477.365 13.6199 477.17 13.3997C476.975 13.176 476.825 12.9505 476.722 12.7232H476.653V17.1018H474.384ZM476.605 9.94269C476.605 10.4292 476.673 10.8536 476.808 11.2158C476.943 11.578 477.138 11.8603 477.394 12.0627C477.649 12.2616 477.96 12.361 478.326 12.361C478.695 12.361 479.008 12.2598 479.263 12.0574C479.519 11.8514 479.712 11.5673 479.844 11.2051C479.979 10.8394 480.046 10.4185 480.046 9.94269C480.046 9.47039 479.981 9.05491 479.849 8.69624C479.718 8.33758 479.524 8.05704 479.269 7.85462C479.013 7.65221 478.699 7.551 478.326 7.551C477.956 7.551 477.644 7.64866 477.388 7.84397C477.136 8.03928 476.943 8.31627 476.808 8.67493C476.673 9.0336 476.605 9.45619 476.605 9.94269ZM483.876 14.0336V5.85178H486.076V7.27934H486.161C486.31 6.77153 486.561 6.388 486.912 6.12877C487.264 5.86599 487.669 5.73459 488.127 5.73459C488.24 5.73459 488.363 5.7417 488.494 5.7559C488.626 5.77011 488.741 5.78964 488.841 5.81449V7.82799C488.734 7.79603 488.587 7.76762 488.399 7.74276C488.21 7.7179 488.038 7.70547 487.882 7.70547C487.548 7.70547 487.25 7.77827 486.987 7.92387C486.728 8.06592 486.522 8.26478 486.369 8.52046C486.22 8.77614 486.145 9.07089 486.145 9.40469V14.0336H483.876ZM490.014 14.0336V5.85178H492.283V14.0336H490.014ZM491.154 4.79709C490.816 4.79709 490.527 4.68523 490.286 4.46151C490.048 4.23424 489.929 3.96258 489.929 3.64653C489.929 3.33403 490.048 3.06591 490.286 2.84219C490.527 2.61492 490.816 2.50128 491.154 2.50128C491.491 2.50128 491.779 2.61492 492.017 2.84219C492.258 3.06591 492.379 3.33403 492.379 3.64653C492.379 3.96258 492.258 4.23424 492.017 4.46151C491.779 4.68523 491.491 4.79709 491.154 4.79709ZM497.797 14.1934C496.959 14.1934 496.239 14.0158 495.635 13.6607C495.035 13.3021 494.573 12.8049 494.25 12.1693C493.93 11.5336 493.771 10.8021 493.771 9.97465C493.771 9.13658 493.932 8.4015 494.255 7.7694C494.582 7.13374 495.045 6.63836 495.646 6.28324C496.246 5.92458 496.959 5.74525 497.787 5.74525C498.501 5.74525 499.126 5.87486 499.662 6.1341C500.198 6.39333 500.622 6.75732 500.935 7.22607C501.247 7.69482 501.42 8.24525 501.452 8.87735H499.31C499.25 8.46897 499.09 8.14049 498.831 7.89191C498.575 7.63978 498.24 7.51371 497.824 7.51371C497.473 7.51371 497.165 7.60959 496.903 7.80136C496.643 7.98957 496.441 8.26478 496.295 8.62699C496.15 8.98921 496.077 9.42778 496.077 9.94269C496.077 10.4647 496.148 10.9086 496.29 11.2744C496.436 11.6401 496.64 11.9189 496.903 12.1107C497.165 12.3024 497.473 12.3983 497.824 12.3983C498.083 12.3983 498.316 12.345 498.522 12.2385C498.731 12.132 498.904 11.9775 499.039 11.7751C499.177 11.5691 499.268 11.3223 499.31 11.0347H501.452C501.416 11.6597 501.246 12.2101 500.94 12.6859C500.638 13.1582 500.221 13.5276 499.688 13.7939C499.156 14.0602 498.525 14.1934 497.797 14.1934ZM506.633 14.1934C505.792 14.1934 505.067 14.0229 504.46 13.682C503.856 13.3376 503.391 12.8511 503.064 12.2225C502.738 11.5904 502.574 10.8429 502.574 9.97998C502.574 9.13836 502.738 8.39972 503.064 7.76407C503.391 7.12842 503.851 6.63303 504.444 6.27792C505.04 5.9228 505.74 5.74525 506.543 5.74525C507.082 5.74525 507.585 5.83225 508.05 6.00626C508.519 6.17671 508.927 6.43417 509.275 6.77863C509.627 7.12309 509.9 7.55633 510.096 8.07834C510.291 8.59681 510.388 9.20405 510.388 9.90008V10.5233H503.48V9.11705H508.252C508.252 8.79035 508.181 8.50093 508.039 8.2488C507.897 7.99667 507.7 7.79958 507.448 7.65753C507.2 7.51194 506.91 7.43914 506.58 7.43914C506.235 7.43914 505.93 7.51904 505.664 7.67884C505.401 7.83509 505.195 8.04638 505.046 8.31272C504.897 8.5755 504.82 8.86847 504.817 9.19163V10.5286C504.817 10.9335 504.891 11.2832 505.04 11.578C505.193 11.8727 505.408 12.1 505.685 12.2598C505.962 12.4196 506.29 12.4995 506.67 12.4995C506.923 12.4995 507.153 12.464 507.363 12.393C507.572 12.322 507.752 12.2154 507.901 12.0734C508.05 11.9313 508.164 11.7573 508.242 11.5514L510.341 11.6898C510.234 12.1941 510.016 12.6345 509.685 13.0109C509.359 13.3837 508.936 13.6749 508.418 13.8845C507.903 14.0904 507.308 14.1934 506.633 14.1934ZM518.677 8.18488L516.599 8.31272C516.564 8.13516 516.488 7.97536 516.37 7.83332C516.253 7.68772 516.099 7.57231 515.907 7.48708C515.719 7.3983 515.493 7.35391 515.23 7.35391C514.879 7.35391 514.582 7.42849 514.341 7.57763C514.099 7.72323 513.979 7.91854 513.979 8.16357C513.979 8.35888 514.057 8.52401 514.213 8.65896C514.369 8.7939 514.637 8.90221 515.017 8.98388L516.498 9.28218C517.294 9.44553 517.887 9.70832 518.277 10.0705C518.668 10.4327 518.863 10.9086 518.863 11.4981C518.863 12.0343 518.705 12.5048 518.389 12.9097C518.077 13.3145 517.647 13.6305 517.1 13.8578C516.557 14.0815 515.93 14.1934 515.22 14.1934C514.137 14.1934 513.274 13.9679 512.631 13.5169C511.992 13.0624 511.617 12.4445 511.507 11.6632L513.739 11.546C513.806 11.8763 513.97 12.1284 514.229 12.3024C514.488 12.4729 514.82 12.5581 515.225 12.5581C515.623 12.5581 515.942 12.4818 516.184 12.3291C516.429 12.1728 516.553 11.9722 516.557 11.7271C516.553 11.5212 516.466 11.3525 516.296 11.2211C516.125 11.0862 515.863 10.9832 515.507 10.9122L514.091 10.6298C513.292 10.47 512.697 10.193 512.306 9.79887C511.919 9.40469 511.725 8.90221 511.725 8.29141C511.725 7.76584 511.868 7.31307 512.152 6.9331C512.439 6.55313 512.842 6.26016 513.361 6.0542C513.883 5.84823 514.494 5.74525 515.193 5.74525C516.227 5.74525 517.04 5.96364 517.633 6.40043C518.229 6.83722 518.577 7.43204 518.677 8.18488Z" fill="black"/>
</svg>
