<svg width="64" height="65" viewBox="0 0 64 65" fill="none" xmlns="http://www.w3.org/2000/svg">
<path d="M54.19 54.992H44.7664V40.234C44.7664 36.7149 44.7036 32.1846 39.8652 32.1846C34.9572 32.1846 34.2062 36.0189 34.2062 39.9778V54.991H24.7826V24.6426H33.8293V28.7901H33.9559C35.8005 25.636 39.2304 23.7522 42.8817 23.8878C52.4329 23.8878 54.1939 30.1702 54.1939 38.3434L54.19 54.992ZM14.1498 20.4942C11.1296 20.4948 8.68075 18.0468 8.68021 15.0265C8.67967 12.0062 11.1276 9.55734 14.1478 9.5568C17.168 9.55626 19.6168 12.0043 19.6174 15.0246C19.6176 16.4749 19.0417 17.8661 18.0163 18.8918C16.991 19.9176 15.6002 20.494 14.1498 20.4942ZM18.8616 54.992H9.42818V24.6426H18.8616V54.992ZM58.888 0.805521H4.69287C2.1315 0.776615 0.0310146 2.82837 -0.000244141 5.38977V59.8109C0.0299456 62.3735 2.13026 64.4273 4.69287 64.4004H58.888C61.4557 64.4322 63.5642 62.3785 63.5997 59.8109V5.38585C63.5631 2.81939 61.4544 0.767746 58.888 0.801184" fill="black"/>
</svg>
