<svg width="60" height="61" viewBox="0 0 60 61" fill="none" xmlns="http://www.w3.org/2000/svg">
<circle cx="30" cy="30.5" r="30" fill="#172734"/>
<path fill-rule="evenodd" clip-rule="evenodd" d="M39.9 15.9502C41.1332 15.9502 42.316 16.4401 43.188 17.3121C44.0601 18.1842 44.55 19.3669 44.55 20.6002V39.2002C44.55 40.4334 44.0601 41.6162 43.188 42.4882C42.316 43.3603 41.1332 43.8502 39.9 43.8502H21.3C20.0667 43.8502 18.884 43.3603 18.0119 42.4882C17.1399 41.6162 16.65 40.4334 16.65 39.2002V20.6002C16.65 19.3669 17.1399 18.1842 18.0119 17.3121C18.884 16.4401 20.0667 15.9502 21.3 15.9502H39.9ZM24.4 26.8002C23.9889 26.8002 23.5947 26.9635 23.304 27.2542C23.0133 27.5449 22.85 27.9391 22.85 28.3502V36.1002C22.85 36.5113 23.0133 36.9055 23.304 37.1962C23.5947 37.4869 23.9889 37.6502 24.4 37.6502C24.8111 37.6502 25.2053 37.4869 25.496 37.1962C25.7867 36.9055 25.95 36.5113 25.95 36.1002V28.3502C25.95 27.9391 25.7867 27.5449 25.496 27.2542C25.2053 26.9635 24.8111 26.8002 24.4 26.8002ZM29.05 25.2502C28.6389 25.2502 28.2447 25.4135 27.954 25.7042C27.6633 25.9949 27.5 26.3891 27.5 26.8002V36.1002C27.5 36.5113 27.6633 36.9055 27.954 37.1962C28.2447 37.4869 28.6389 37.6502 29.05 37.6502C29.4611 37.6502 29.8553 37.4869 30.146 37.1962C30.4367 36.9055 30.6 36.5113 30.6 36.1002V30.4272C31.0727 29.894 31.871 29.2678 32.7591 28.888C33.2753 28.6679 34.0518 28.578 34.5912 28.7485C34.7702 28.7939 34.9296 28.8962 35.0454 29.0399C35.126 29.1484 35.25 29.3902 35.25 29.9002V36.1002C35.25 36.5113 35.4133 36.9055 35.704 37.1962C35.9947 37.4869 36.3889 37.6502 36.8 37.6502C37.2111 37.6502 37.6053 37.4869 37.896 37.1962C38.1867 36.9055 38.35 36.5113 38.35 36.1002V29.9002C38.35 28.8617 38.0865 27.9379 37.5378 27.197C37.0329 26.5252 36.3262 26.0325 35.5212 25.7911C34.1231 25.3525 32.5747 25.5958 31.5408 26.0391C31.2096 26.1809 30.8871 26.3424 30.5752 26.5227C30.5102 26.1656 30.3219 25.8426 30.0432 25.61C29.7645 25.3775 29.413 25.2501 29.05 25.2502ZM24.4 22.1502C23.9889 22.1502 23.5947 22.3135 23.304 22.6042C23.0133 22.8949 22.85 23.2891 22.85 23.7002C22.85 24.1113 23.0133 24.5055 23.304 24.7962C23.5947 25.0869 23.9889 25.2502 24.4 25.2502C24.8111 25.2502 25.2053 25.0869 25.496 24.7962C25.7867 24.5055 25.95 24.1113 25.95 23.7002C25.95 23.2891 25.7867 22.8949 25.496 22.6042C25.2053 22.3135 24.8111 22.1502 24.4 22.1502Z" fill="#8894A4"/>
</svg>
