<svg width="278" height="69" viewBox="0 0 278 69" fill="none" xmlns="http://www.w3.org/2000/svg">
<path fill-rule="evenodd" clip-rule="evenodd" d="M59.9599 14.5319L34.9765 2.7817C34.9765 2.7817 33.8721 2.18378 33.7867 3.36928C33.7013 4.55479 33.7867 28.0445 33.7867 28.0445L7.61369 39.4198L8.20857 40.6016V60.102C8.1232 60.3816 7.1614 61.2935 7.01896 62.0398C6.84806 62.9358 7.53044 63.6493 8.8033 63.8174C9.30657 63.8839 9.72614 63.4628 9.99292 63.225C10.2812 62.9678 10.5995 62.5003 10.5878 62.0398C10.5759 61.5758 10.0845 61.1918 9.99292 60.693C9.66968 58.9307 9.39803 41.1925 9.39803 41.1925L33.1918 51.2383L58.77 40.6016V38.8288L59.9599 38.2379V14.5319Z" fill="#285580" stroke="#285580" stroke-width="0.152183"/>
<path fill-rule="evenodd" clip-rule="evenodd" d="M14.7619 45.9014L14.4575 56.924C14.4575 56.924 31.4364 72.2278 52.6554 57.3771L52.9598 45.2966L33.6326 54.0549L14.7619 45.9014Z" fill="#285580"/>
<path fill-rule="evenodd" clip-rule="evenodd" d="M36.2197 5.82324L57.3731 15.5401V34.6695L36.0675 25.7113L36.2197 5.82324Z" fill="white"/>
<path fill-rule="evenodd" clip-rule="evenodd" d="M31.0114 31.686L14.2786 38.2619L34.1802 46.4253L49.3644 39.0063L31.0111 31.6863" fill="white"/>
<path fill-rule="evenodd" clip-rule="evenodd" d="M33.3083 32.9338L33.3683 33.0722L17.8345 39.6504L17.7746 39.5124L33.3083 32.9338Z" stroke="#285580" stroke-width="0.152183" stroke-dasharray="0.61 0.3"/>
<path fill-rule="evenodd" clip-rule="evenodd" d="M31.0239 31.8508L14.28 38.3242L34.1679 46.4292L49.3644 39.1194L31.0239 31.8508Z" stroke="#285580" stroke-width="0.255667"/>
<path d="M30.2961 32.2473L48.2409 39.7836" stroke="#285580" stroke-width="0.152183" stroke-dasharray="0.61 0.3"/>
<path fill-rule="evenodd" clip-rule="evenodd" d="M29.9618 32.6156L30.0207 32.4773L47.8136 39.8626L47.7547 40.0009L29.9618 32.6156Z" stroke="#285580" stroke-width="0.304366" stroke-dasharray="1.22 0.61"/>
<path fill-rule="evenodd" clip-rule="evenodd" d="M27.374 33.3614L27.4319 33.2224L45.9854 40.7591L45.9276 40.8979L27.374 33.3614Z" stroke="#285580" stroke-width="0.304366" stroke-dasharray="1.22 0.61"/>
<path fill-rule="evenodd" clip-rule="evenodd" d="M24.9357 34.2581L24.9966 34.1211L43.0931 41.9571L43.0322 42.0941L24.9357 34.2581Z" stroke="#285580" stroke-width="0.304366" stroke-dasharray="1.22 0.61"/>
<path fill-rule="evenodd" clip-rule="evenodd" d="M22.1941 35.4548L22.2558 35.3179L40.5042 43.3044L40.4433 43.4414L22.1941 35.4548Z" stroke="#285580" stroke-width="0.304366" stroke-dasharray="1.22 0.61"/>
<path fill-rule="evenodd" clip-rule="evenodd" d="M19.6051 36.2L19.6686 36.063L37.9165 44.3503L37.8531 44.4873L19.6051 36.2Z" stroke="#285580" stroke-width="0.304366" stroke-dasharray="1.22 0.61"/>
<path fill-rule="evenodd" clip-rule="evenodd" d="M17.4725 37.2478L17.5361 37.1108L36.0881 45.5482L36.0245 45.6851L17.4725 37.2478Z" stroke="#285580" stroke-width="0.304366" stroke-dasharray="1.22 0.61"/>
<path fill-rule="evenodd" clip-rule="evenodd" d="M33.1641 32.4949L33.2201 32.6345L16.4588 39.1861L16.4028 39.0466L33.1641 32.4949Z" stroke="#285580" stroke-width="0.304366" stroke-dasharray="1.22 0.61"/>
<path fill-rule="evenodd" clip-rule="evenodd" d="M34.3801 33.2474L34.4361 33.3871L17.6747 39.9386L17.6188 39.7991L34.3801 33.2474Z" stroke="#285580" stroke-width="0.304366" stroke-dasharray="1.22 0.61"/>
<path fill-rule="evenodd" clip-rule="evenodd" d="M36.2052 33.8513L36.2612 33.9909L19.5 40.5425L19.4439 40.4029L36.2052 33.8513Z" stroke="#285580" stroke-width="0.304366" stroke-dasharray="1.22 0.61"/>
<path fill-rule="evenodd" clip-rule="evenodd" d="M37.8784 34.6045L37.9344 34.7442L21.1729 41.2957L21.1169 41.1561L37.8784 34.6045Z" stroke="#285580" stroke-width="0.304366" stroke-dasharray="1.22 0.61"/>
<path fill-rule="evenodd" clip-rule="evenodd" d="M39.2465 35.3574L39.3025 35.4971L22.5412 42.0486L22.4852 41.9091L39.2465 35.3574Z" stroke="#285580" stroke-width="0.304366" stroke-dasharray="1.22 0.61"/>
<path fill-rule="evenodd" clip-rule="evenodd" d="M41.5282 35.9617L41.5842 36.1013L24.8227 42.6529L24.7667 42.5134L41.5282 35.9617Z" stroke="#285580" stroke-width="0.304366" stroke-dasharray="1.22 0.61"/>
<path fill-rule="evenodd" clip-rule="evenodd" d="M43.049 36.5647L43.105 36.7044L26.3438 43.2559L26.2878 43.1165L43.049 36.5647Z" stroke="#285580" stroke-width="0.304366" stroke-dasharray="1.22 0.61"/>
<path fill-rule="evenodd" clip-rule="evenodd" d="M44.5697 37.3184L44.6257 37.4579L27.8647 44.0091L27.8087 43.8695L44.5697 37.3184Z" stroke="#285580" stroke-width="0.304366" stroke-dasharray="1.22 0.61"/>
<path fill-rule="evenodd" clip-rule="evenodd" d="M45.9379 38.0703L45.994 38.2099L29.2327 44.7615L29.1767 44.6219L45.9379 38.0703Z" stroke="#285580" stroke-width="0.304366" stroke-dasharray="1.22 0.61"/>
<path fill-rule="evenodd" clip-rule="evenodd" d="M47.7774 38.4084L47.8401 38.5408L31.9402 45.88L31.8775 45.7476L47.7774 38.4084Z" stroke="#285580" stroke-width="0.304366" stroke-dasharray="1.22 0.61"/>
<path fill-rule="evenodd" clip-rule="evenodd" d="M33.461 32.7847L33.521 32.9227L17.987 39.5013L17.9272 39.3634L33.461 32.7847Z" stroke="#285580" stroke-width="0.152183" stroke-dasharray="0.61 0.3"/>
<path d="M30.4486 32.0972L48.3943 39.6328" stroke="#94A4D0" stroke-width="0.152183" stroke-dasharray="0.61 0.3"/>
<path fill-rule="evenodd" clip-rule="evenodd" d="M30.1142 32.4658L30.1732 32.3275L47.966 39.7127L47.9071 39.8511L30.1142 32.4658Z" stroke="#285580" stroke-width="0.304366" stroke-dasharray="1.22 0.61"/>
<path fill-rule="evenodd" clip-rule="evenodd" d="M27.5265 33.2126L27.5843 33.0739L46.1379 40.6104L46.0801 40.7493L27.5265 33.2126Z" stroke="#285580" stroke-width="0.304366" stroke-dasharray="1.22 0.61"/>
<path fill-rule="evenodd" clip-rule="evenodd" d="M25.0883 34.1082L25.1492 33.9713L43.2459 41.8072L43.185 41.9441L25.0883 34.1082Z" stroke="#285580" stroke-width="0.304366" stroke-dasharray="1.22 0.61"/>
<path fill-rule="evenodd" clip-rule="evenodd" d="M22.3469 35.3041L22.4085 35.1671L40.6569 43.1535L40.5961 43.2905L22.3469 35.3041Z" stroke="#285580" stroke-width="0.304366" stroke-dasharray="1.22 0.61"/>
<path fill-rule="evenodd" clip-rule="evenodd" d="M19.7572 36.0503L19.8209 35.9133L38.0688 44.2L38.0052 44.337L19.7572 36.0503Z" stroke="#285580" stroke-width="0.304366" stroke-dasharray="1.22 0.61"/>
<path fill-rule="evenodd" clip-rule="evenodd" d="M17.6248 37.0974L17.6884 36.9604L36.2406 45.3988L36.1768 45.5358L17.6248 37.0974Z" stroke="#285580" stroke-width="0.304366" stroke-dasharray="1.22 0.61"/>
<path fill-rule="evenodd" clip-rule="evenodd" d="M33.3165 32.3457L33.3725 32.4854L16.6111 39.0369L16.5552 38.8973L33.3165 32.3457Z" stroke="#285580" stroke-width="0.304366" stroke-dasharray="1.22 0.61"/>
<path fill-rule="evenodd" clip-rule="evenodd" d="M34.5328 33.0972L34.5888 33.2367L17.8274 39.7882L17.7714 39.6486L34.5328 33.0972Z" stroke="#285580" stroke-width="0.304366" stroke-dasharray="1.22 0.61"/>
<path fill-rule="evenodd" clip-rule="evenodd" d="M36.3579 33.7L36.4139 33.8397L19.6525 40.391L19.5966 40.2515L36.3579 33.7Z" stroke="#285580" stroke-width="0.304366" stroke-dasharray="1.22 0.61"/>
<path fill-rule="evenodd" clip-rule="evenodd" d="M38.0305 34.4547L38.0865 34.5941L21.3252 41.1458L21.2692 41.0061L38.0305 34.4547Z" stroke="#285580" stroke-width="0.304366" stroke-dasharray="1.22 0.61"/>
<path fill-rule="evenodd" clip-rule="evenodd" d="M39.399 35.2073L39.455 35.3469L22.6937 41.8987L22.6377 41.759L39.399 35.2073Z" stroke="#285580" stroke-width="0.304366" stroke-dasharray="1.22 0.61"/>
<path fill-rule="evenodd" clip-rule="evenodd" d="M41.6806 35.8125L41.7366 35.9521L24.9753 42.5035L24.9193 42.364L41.6806 35.8125Z" stroke="#285580" stroke-width="0.304366" stroke-dasharray="1.22 0.61"/>
<path fill-rule="evenodd" clip-rule="evenodd" d="M43.2017 36.415L43.2577 36.5546L26.4962 43.1062L26.4402 42.9665L43.2017 36.415Z" stroke="#285580" stroke-width="0.304366" stroke-dasharray="1.22 0.61"/>
<path fill-rule="evenodd" clip-rule="evenodd" d="M44.7221 37.167L44.7781 37.3067L28.017 43.8582L27.961 43.7186L44.7221 37.167Z" stroke="#285580" stroke-width="0.304366" stroke-dasharray="1.22 0.61"/>
<path fill-rule="evenodd" clip-rule="evenodd" d="M46.0904 37.9204L46.1464 38.0601L29.385 44.6116L29.3291 44.472L46.0904 37.9204Z" stroke="#285580" stroke-width="0.304366" stroke-dasharray="1.22 0.61"/>
<path fill-rule="evenodd" clip-rule="evenodd" d="M47.9302 38.2584L47.9929 38.3908L32.0928 45.7301L32.0301 45.5975L47.9302 38.2584Z" stroke="#285580" stroke-width="0.304366" stroke-dasharray="1.22 0.61"/>
<path fill-rule="evenodd" clip-rule="evenodd" d="M44.9588 17.5715C44.9613 17.4295 44.9731 17.2878 44.9941 17.1474C45.0087 17.0662 45.0375 16.9298 45.0807 16.7383C45.1204 16.5649 45.1493 16.4285 45.1673 16.3291C45.1765 16.2899 45.1752 16.2489 45.1633 16.2104C45.1241 16.1773 45.0795 16.1512 45.0315 16.1331C45.0275 16.1312 44.7688 16.0293 44.2554 15.8273C43.3 15.4525 42.647 15.1824 42.2963 15.0171C41.0613 14.4346 40.1353 13.9557 39.5182 13.5807C39.4726 13.5549 39.4452 13.5402 39.4374 13.5365C39.3712 13.5053 39.2995 13.6214 39.2224 13.885C39.1754 14.0509 39.1305 14.2177 39.0875 14.3854C39.0697 14.4369 39.0063 14.577 38.8975 14.8057C38.8341 14.9302 38.781 15.0596 38.7387 15.1927C38.7394 15.2163 38.748 15.2389 38.7632 15.257C38.7784 15.275 38.7992 15.2874 38.8223 15.2921C39.2858 15.5108 39.9138 15.7671 40.7063 16.0608C40.5578 17.0706 40.4575 17.7192 40.4056 18.0066C40.3271 18.4415 40.1898 19.0847 39.9936 19.936C39.7975 20.7873 39.6606 21.4304 39.5828 21.8653C39.5758 21.9155 39.5849 21.9665 39.6087 22.0111C39.6325 22.0557 39.6698 22.0917 39.7153 22.1139C40.0553 22.3137 40.4058 22.495 40.7654 22.657C41.1029 22.8222 41.4489 22.9695 41.8019 23.0983C41.856 23.1211 41.9125 23.1376 41.9703 23.1478C41.9936 23.1414 42.0139 23.1272 42.0278 23.1075C42.0416 23.0878 42.0482 23.0639 42.0464 23.0399C42.125 22.6052 42.2246 21.9423 42.3453 21.0513C42.4661 20.1603 42.5657 19.4975 42.6444 19.0627C42.7108 18.6942 42.84 18.0492 43.0318 17.1279C44.0464 17.6665 44.6277 17.9709 44.7758 18.041C44.8614 18.0816 44.9109 18.0649 44.9244 17.9911C44.9448 17.8521 44.9563 17.7119 44.9588 17.5715ZM46.9524 23.2065C46.7474 22.8369 46.4315 22.5411 46.0493 22.3607C45.8917 22.2735 45.7169 22.222 45.5372 22.2098C45.3575 22.1976 45.1774 22.225 45.0094 22.2901C44.8583 22.3529 44.7264 22.4545 44.6271 22.5847C44.5279 22.7149 44.4648 22.869 44.4444 23.0314C44.384 23.4196 44.465 23.8166 44.6727 24.1502C44.8754 24.5207 45.1904 24.8173 45.5724 24.9976C45.7305 25.0847 45.9057 25.1363 46.0858 25.1488C46.2659 25.1612 46.4465 25.1342 46.6151 25.0696C46.7675 25.0068 46.9005 24.9047 47.0005 24.7737C47.1005 24.6427 47.1639 24.4874 47.1841 24.3239C47.2444 23.9357 47.1623 23.5389 46.953 23.2065H46.9524ZM54.635 22.1364C54.6375 21.9943 54.6494 21.8526 54.6705 21.7121C54.6851 21.6309 54.7139 21.4946 54.7571 21.303C54.7966 21.1298 54.8254 20.9935 54.8435 20.894C54.8528 20.8547 54.8514 20.8137 54.8397 20.7751C54.8004 20.7421 54.7558 20.7161 54.7078 20.6979C54.7038 20.6961 54.4451 20.5942 53.9316 20.3921C52.9762 20.0174 52.3232 19.7474 51.9726 19.582C50.7376 18.9994 49.8115 18.5206 49.1945 18.1455C49.1488 18.1198 49.1214 18.1051 49.1137 18.1014C49.0474 18.0701 48.9757 18.1862 48.8986 18.4497C48.8518 18.6157 48.8068 18.7825 48.7638 18.9501C48.7459 19.0017 48.6826 19.1418 48.5737 19.3705C48.5104 19.4949 48.4573 19.6243 48.4151 19.7575C48.4158 19.781 48.4244 19.8037 48.4395 19.8217C48.4546 19.8397 48.4755 19.8521 48.4985 19.8568C48.9621 20.0756 49.5901 20.3318 50.3827 20.6257C50.2349 21.6354 50.1351 22.2838 50.0834 22.5709C50.0048 23.0058 49.8676 23.6489 49.6716 24.5002C49.4756 25.3516 49.3382 25.9947 49.2596 26.4296C49.2527 26.4797 49.2618 26.5308 49.2857 26.5754C49.3095 26.62 49.3468 26.656 49.3923 26.6781C49.7323 26.878 50.0828 27.0593 50.4424 27.2213C50.7799 27.3865 51.1259 27.5338 51.4789 27.6626C51.5331 27.6853 51.5897 27.7019 51.6475 27.7122C51.6707 27.7059 51.691 27.6916 51.7049 27.6719C51.7188 27.6522 51.7254 27.6283 51.7236 27.6043C51.8021 27.1696 51.9018 26.5067 52.0225 25.6157C52.1432 24.7248 52.2429 24.0619 52.3215 23.627C52.3881 23.2586 52.5172 22.6137 52.709 21.6922C53.7235 22.2307 54.3049 22.5351 54.453 22.6053C54.5387 22.6458 54.5882 22.6292 54.6015 22.5553C54.6218 22.4166 54.6332 22.2766 54.6356 22.1364H54.635Z" fill="#285580"/>
<path d="M95.3415 29.9959C95.3415 30.1678 95.247 30.2538 95.0579 30.2538C94.7313 30.2538 93.438 30.1893 91.1778 30.0604C91.1263 32.2346 91.1005 33.7514 91.1005 34.6108C91.1005 35.6249 91.1392 37.1502 91.2165 39.187C91.3024 41.2237 91.3454 42.7491 91.3454 43.7631C91.3454 43.9264 91.3067 44.0295 91.2294 44.0725C91.2036 44.0897 91.0833 44.1112 90.8685 44.137C90.3528 44.2057 89.5966 44.2401 88.5997 44.2401C87.4911 44.2401 86.7134 44.2057 86.2665 44.137C86.0259 44.094 85.9056 43.9608 85.9056 43.7374C85.9056 42.7233 85.9485 41.2022 86.0345 39.1741C86.1204 37.1459 86.1634 35.6249 86.1634 34.6108C86.1634 33.9405 86.129 32.4452 86.0603 30.1249C84.3415 30.2967 82.9708 30.3827 81.9481 30.3827C81.8106 30.3827 81.7419 30.3397 81.7419 30.2538C81.7419 30.142 81.8021 29.8112 81.9224 29.2612C82.0599 28.6596 82.1372 28.2944 82.1544 28.1655C82.1802 27.7616 82.2103 27.3577 82.2446 26.9538C82.3048 26.3092 82.4079 25.987 82.554 25.987C82.5712 25.987 82.6313 25.9913 82.7345 25.9999C84.1267 26.1803 86.1849 26.2706 88.9091 26.2706C89.6825 26.2706 91.1091 26.1889 93.1888 26.0256C94.306 25.9397 94.8688 25.8967 94.8774 25.8967C95.0493 25.8967 95.1481 25.9096 95.1739 25.9354C95.1997 25.9526 95.2169 26.0342 95.2255 26.1803C95.2255 26.4124 95.2169 26.7346 95.1997 27.1471C95.1825 27.6026 95.1739 27.9249 95.1739 28.1139C95.1739 28.3288 95.1997 28.6467 95.2513 29.0678C95.3114 29.4803 95.3415 29.7897 95.3415 29.9959ZM108.451 37.1374C108.451 38.0053 108.172 38.4995 107.613 38.6198C107.519 38.637 106.629 38.7315 104.945 38.9034C103.931 39.0151 102.418 39.1483 100.408 39.303C100.528 39.8616 100.893 40.287 101.503 40.5792C102.002 40.8198 102.569 40.9401 103.205 40.9401C103.97 40.9401 104.739 40.7338 105.512 40.3213C105.839 40.1151 106.165 39.9088 106.492 39.7026C106.672 39.7885 106.973 40.2268 107.394 41.0174C107.824 41.8081 108.039 42.3108 108.039 42.5256C108.039 42.5858 107.974 42.6846 107.845 42.8221C106.797 43.9479 105.168 44.5108 102.96 44.5108C100.915 44.5108 99.2645 43.9135 98.0099 42.719C96.7208 41.5073 96.0763 39.8874 96.0763 37.8592C96.0763 35.8827 96.652 34.2627 97.8036 32.9995C98.9895 31.6932 100.562 31.0401 102.522 31.0401C104.172 31.0401 105.572 31.6417 106.724 32.8448C107.875 34.0479 108.451 35.4788 108.451 37.1374ZM103.94 36.351C103.94 35.8182 103.75 35.3499 103.372 34.9459C102.994 34.542 102.543 34.3401 102.019 34.3401C101.477 34.3401 101.031 34.5678 100.678 35.0233C100.352 35.4444 100.188 35.9385 100.188 36.5057C100.188 36.7377 100.309 36.8538 100.549 36.8538C101.185 36.8538 102.174 36.7549 103.514 36.5573C103.798 36.5143 103.94 36.4456 103.94 36.351ZM118.403 35.6549C118.394 35.6549 118.132 35.5862 117.616 35.4487C117.109 35.3112 116.697 35.2424 116.379 35.2424C115.614 35.2424 115.004 35.4745 114.549 35.9385C114.093 36.394 113.865 37.0042 113.865 37.769C113.865 38.5596 114.115 39.1827 114.613 39.6381C115.111 40.085 115.76 40.3084 116.559 40.3084C116.938 40.3084 117.363 40.2139 117.836 40.0249C118.308 39.8272 118.532 39.7284 118.506 39.7284C118.652 39.7284 118.841 40.2741 119.073 41.3655C119.271 42.3624 119.37 43.0241 119.37 43.3506C119.37 43.6772 118.837 43.9565 117.771 44.1885C116.946 44.369 116.28 44.4592 115.773 44.4592C113.883 44.4592 112.323 43.8233 111.094 42.5514C109.865 41.2795 109.25 39.694 109.25 37.7948C109.25 35.9127 109.865 34.3315 111.094 33.051C112.331 31.762 113.891 31.1174 115.773 31.1174C117.054 31.1174 118.179 31.3924 119.15 31.9424C119.374 32.0627 119.486 32.1788 119.486 32.2905C119.486 32.4022 119.357 32.9092 119.099 33.8116C118.858 34.6795 118.699 35.2038 118.622 35.3842C118.553 35.5647 118.48 35.6549 118.403 35.6549ZM133.717 34.7913L133.691 43.6858C133.691 43.9866 133.571 44.1542 133.33 44.1885C133.055 44.2229 132.428 44.2401 131.448 44.2401C130.503 44.2401 129.845 44.2057 129.476 44.137C129.192 44.0854 129.05 43.9006 129.05 43.5827C129.05 42.8436 129.063 41.7307 129.089 40.244C129.115 38.7573 129.128 37.6444 129.128 36.9053C129.128 35.8999 128.616 35.3971 127.594 35.3971C127.25 35.3971 126.846 35.5346 126.382 35.8096C125.875 36.1104 125.622 36.4241 125.622 36.7506V39.9346C125.622 40.3471 125.63 40.9702 125.647 41.8038C125.665 42.6288 125.673 43.2475 125.673 43.66C125.673 43.978 125.54 44.1542 125.274 44.1885C125.007 44.2229 124.259 44.2401 123.031 44.2401C122.326 44.2401 121.819 44.2057 121.509 44.137C121.2 44.0682 121.045 43.9178 121.045 43.6858C121.045 43.0069 121.05 41.9885 121.058 40.6307C121.067 39.2643 121.071 38.2417 121.071 37.5627C121.071 34.7526 121.041 32.428 120.981 30.5889C120.955 29.9444 120.934 29.2999 120.916 28.6553C120.874 27.9077 120.796 27.2674 120.684 26.7346C120.659 26.6229 120.646 26.5413 120.646 26.4897C120.646 26.3608 120.71 26.2749 120.839 26.2319C121.106 26.1545 121.497 26.1073 122.012 26.0901C122.7 26.0643 123.099 26.0428 123.211 26.0256C124.766 25.8452 125.544 25.7549 125.544 25.7549C125.682 25.7549 125.75 25.8452 125.75 26.0256C125.75 26.3006 125.733 26.6745 125.699 27.1471C125.665 27.6971 125.647 28.0709 125.647 28.2686C125.596 30.2108 125.57 31.7448 125.57 32.8706C125.57 33.0424 125.613 33.1284 125.699 33.1284C125.716 33.1284 125.935 32.978 126.356 32.6772C126.855 32.3249 127.332 32.0456 127.787 31.8393C128.466 31.5385 129.124 31.3881 129.759 31.3881C130.859 31.3881 131.779 31.676 132.518 32.2518C133.317 32.8706 133.717 33.717 133.717 34.7913ZM155.077 29.9959C155.077 30.1678 154.982 30.2538 154.793 30.2538C154.466 30.2538 153.173 30.1893 150.913 30.0604C150.861 32.2346 150.836 33.7514 150.836 34.6108C150.836 35.6249 150.874 37.1502 150.952 39.187C151.038 41.2237 151.081 42.7491 151.081 43.7631C151.081 43.9264 151.042 44.0295 150.965 44.0725C150.939 44.0897 150.818 44.1112 150.604 44.137C150.088 44.2057 149.332 44.2401 148.335 44.2401C147.226 44.2401 146.449 44.2057 146.002 44.137C145.761 44.094 145.641 43.9608 145.641 43.7374C145.641 42.7233 145.684 41.2022 145.77 39.1741C145.856 37.1459 145.899 35.6249 145.899 34.6108C145.899 33.9405 145.864 32.4452 145.795 30.1249C144.077 30.2967 142.706 30.3827 141.683 30.3827C141.546 30.3827 141.477 30.3397 141.477 30.2538C141.477 30.142 141.537 29.8112 141.658 29.2612C141.795 28.6596 141.872 28.2944 141.89 28.1655C141.915 27.7616 141.945 27.3577 141.98 26.9538C142.04 26.3092 142.143 25.987 142.289 25.987C142.306 25.987 142.366 25.9913 142.47 25.9999C143.862 26.1803 145.92 26.2706 148.644 26.2706C149.418 26.2706 150.844 26.1889 152.924 26.0256C154.041 25.9397 154.604 25.8967 154.613 25.8967C154.784 25.8967 154.883 25.9096 154.909 25.9354C154.935 25.9526 154.952 26.0342 154.961 26.1803C154.961 26.4124 154.952 26.7346 154.935 27.1471C154.918 27.6026 154.909 27.9249 154.909 28.1139C154.909 28.3288 154.935 28.6467 154.986 29.0678C155.047 29.4803 155.077 29.7897 155.077 29.9959ZM164.925 36.1061C164.925 36.4413 164.74 36.6088 164.371 36.6088C164.208 36.6088 163.967 36.6002 163.649 36.5831C163.34 36.5573 163.108 36.5444 162.953 36.5444C162.24 36.5444 161.754 36.6561 161.496 36.8795C161.238 37.103 161.109 37.5542 161.109 38.2331C161.109 38.6026 161.114 39.1655 161.122 39.9217C161.14 40.6694 161.148 41.228 161.148 41.5975C161.148 41.8467 161.165 42.2206 161.2 42.719C161.234 43.2088 161.251 43.5741 161.251 43.8147C161.251 44.0209 161.109 44.137 160.826 44.1627C160.413 44.1971 159.782 44.2143 158.931 44.2143C158.115 44.2143 157.461 44.1885 156.972 44.137C156.688 44.1026 156.546 43.9608 156.546 43.7116C156.546 43.0241 156.55 41.9971 156.559 40.6307C156.568 39.2557 156.572 38.2245 156.572 37.537C156.572 35.5174 156.387 33.8545 156.018 32.5483C156 32.4709 155.992 32.4065 155.992 32.3549C155.992 32.226 156.056 32.1401 156.185 32.0971C156.658 32.0456 157.35 31.951 158.261 31.8135C159.618 31.5471 160.319 31.4139 160.362 31.4139C160.516 31.4139 160.615 31.6846 160.658 32.226C160.701 32.7674 160.779 33.0381 160.89 33.0381C160.77 33.0381 161.122 32.8147 161.947 32.3678C162.772 31.9124 163.567 31.6846 164.332 31.6846C164.813 31.6846 165.054 31.7877 165.054 31.994C165.054 32.2432 165.028 32.5956 164.977 33.051C164.925 33.5409 164.895 33.8932 164.886 34.1081C164.886 34.3573 164.891 34.6881 164.899 35.1006C164.916 35.6077 164.925 35.9428 164.925 36.1061ZM179.388 37.6917C179.388 38.3534 179.427 39.3374 179.504 40.6436C179.582 41.9499 179.62 42.9295 179.62 43.5827C179.62 43.9264 179.47 44.1112 179.169 44.137C178.104 44.2143 176.883 44.253 175.508 44.253C175.345 44.253 175.233 44.0081 175.173 43.5182C175.122 43.0198 175.057 42.7663 174.98 42.7577C174.911 42.792 174.821 42.8651 174.709 42.9768C173.747 43.9479 172.715 44.4334 171.615 44.4334C169.94 44.4334 168.552 43.7717 167.452 42.4483C166.412 41.2108 165.892 39.7327 165.892 38.0139C165.892 36.0288 166.429 34.4303 167.503 33.2186C168.62 31.9639 170.15 31.3366 172.092 31.3366C173.441 31.3366 174.507 31.8092 175.289 32.7545C175.324 32.7975 175.354 32.819 175.379 32.819C175.457 32.819 175.543 32.6127 175.637 32.2002C175.74 31.7792 175.861 31.5686 175.998 31.5686C176.316 31.5686 176.922 31.6588 177.816 31.8393C178.666 32.0112 179.277 32.1573 179.646 32.2776C179.775 32.3292 179.84 32.3979 179.84 32.4838C179.84 32.5182 179.827 32.6084 179.801 32.7545C179.526 34.31 179.388 35.9557 179.388 37.6917ZM175.238 37.769C175.238 37.0385 175.006 36.437 174.541 35.9643C174.086 35.4831 173.489 35.2424 172.75 35.2424C172.011 35.2424 171.413 35.4788 170.958 35.9514C170.502 36.4241 170.275 37.0299 170.275 37.769C170.275 38.4651 170.515 39.0624 170.997 39.5608C171.478 40.0592 172.062 40.3084 172.75 40.3084C173.48 40.3084 174.077 40.0721 174.541 39.5995C175.006 39.1182 175.238 38.5081 175.238 37.769ZM190.487 35.6549C190.479 35.6549 190.216 35.5862 189.701 35.4487C189.194 35.3112 188.781 35.2424 188.463 35.2424C187.699 35.2424 187.088 35.4745 186.633 35.9385C186.177 36.394 185.95 37.0042 185.95 37.769C185.95 38.5596 186.199 39.1827 186.697 39.6381C187.196 40.085 187.845 40.3084 188.644 40.3084C189.022 40.3084 189.447 40.2139 189.92 40.0249C190.393 39.8272 190.616 39.7284 190.59 39.7284C190.736 39.7284 190.925 40.2741 191.158 41.3655C191.355 42.3624 191.454 43.0241 191.454 43.3506C191.454 43.6772 190.921 43.9565 189.856 44.1885C189.031 44.369 188.365 44.4592 187.858 44.4592C185.967 44.4592 184.407 43.8233 183.178 42.5514C181.949 41.2795 181.335 39.694 181.335 37.7948C181.335 35.9127 181.949 34.3315 183.178 33.051C184.416 31.762 185.975 31.1174 187.858 31.1174C189.138 31.1174 190.264 31.3924 191.235 31.9424C191.458 32.0627 191.57 32.1788 191.57 32.2905C191.57 32.4022 191.441 32.9092 191.183 33.8116C190.943 34.6795 190.784 35.2038 190.706 35.3842C190.638 35.5647 190.565 35.6549 190.487 35.6549ZM207.258 35.7194C207.258 37.6186 206.325 39.0624 204.461 40.0506C204.289 40.1366 204.203 40.2268 204.203 40.3213C204.203 40.4674 204.602 41.0776 205.402 42.1518C206.201 43.2174 206.6 43.776 206.6 43.8276C206.6 44.0596 205.462 44.1756 203.184 44.1756C202.308 44.1756 201.801 44.0639 201.663 43.8405C201.32 43.2647 200.783 42.4397 200.052 41.3655C200.009 41.3139 199.236 41.2538 197.732 41.185C197.732 41.4514 197.736 41.8768 197.745 42.4612C197.753 43.0456 197.758 43.4795 197.758 43.7631C197.758 44.0209 197.633 44.1627 197.384 44.1885C197.229 44.2057 196.55 44.2143 195.347 44.2143C194.307 44.2143 193.701 44.1971 193.529 44.1627C193.297 44.1198 193.181 43.9436 193.181 43.6342V35.7452C193.181 34.6881 193.143 33.1069 193.065 31.0014C192.988 28.8959 192.949 27.319 192.949 26.2706C192.949 26.0643 193.065 25.9569 193.297 25.9483C193.753 25.9483 194.436 25.9397 195.347 25.9225C195.588 25.9053 196.004 25.8538 196.597 25.7678C197.122 25.6905 197.534 25.6518 197.835 25.6518C197.972 25.6518 198.041 25.7764 198.041 26.0256C198.041 26.3522 198.015 26.7948 197.964 27.3534C197.904 28.0065 197.869 28.4534 197.861 28.694C197.783 30.5417 197.745 31.9725 197.745 32.9866C197.745 33.2272 197.775 33.3518 197.835 33.3604C197.912 33.3088 198.015 33.2143 198.144 33.0768C199.261 31.9167 200.619 31.3366 202.218 31.3366C203.722 31.3366 204.916 31.6803 205.801 32.3678C206.772 33.1327 207.258 34.2499 207.258 35.7194ZM202.14 36.5573C202.14 35.5174 201.552 34.9975 200.374 34.9975C199.85 34.9975 199.291 35.1952 198.699 35.5905C198.063 36.0116 197.745 36.4713 197.745 36.9698C197.745 37.6831 197.843 38.1127 198.041 38.2588C198.196 38.362 198.69 38.4135 199.524 38.4135C201.268 38.4135 202.14 37.7948 202.14 36.5573Z" fill="#285580"/>
</svg>
