<svg width="354" height="102" viewBox="0 0 354 102" fill="none" xmlns="http://www.w3.org/2000/svg">
<rect width="353.381" height="100.8" transform="translate(0.400085 0.796875)" fill="#0B1218"/>
<path fill-rule="evenodd" clip-rule="evenodd" d="M89.4474 22.0806L52.3442 4.63018C52.3442 4.63018 50.7041 3.74219 50.5773 5.5028C50.4505 7.26341 50.5773 42.1483 50.5773 42.1483L11.7074 59.0418L12.5908 60.797V89.7574C12.464 90.1725 11.0357 91.5268 10.8241 92.6351C10.5703 93.9659 11.5837 95.0254 13.4741 95.2752C14.2215 95.3739 14.8446 94.7486 15.2408 94.3953C15.6688 94.0134 16.1416 93.319 16.1242 92.6351C16.1066 91.946 15.3768 91.3758 15.2408 90.635C14.7607 88.0178 14.3573 61.6746 14.3573 61.6746L49.6938 76.5937L87.6803 60.797V58.1642L89.4474 57.2867V22.0806Z" fill="#285580" stroke="#285580" stroke-width="0.152183"/>
<path fill-rule="evenodd" clip-rule="evenodd" d="M22.3228 68.6677L21.8708 85.0375C21.8708 85.0375 47.0864 107.765 78.599 85.7104L79.0511 67.7695L50.3479 80.7766L22.3228 68.6677Z" fill="#285580"/>
<path fill-rule="evenodd" clip-rule="evenodd" d="M54.1899 9.14648L85.6052 23.5772V51.9865L53.9639 38.6825L54.1899 9.14648Z" fill="white"/>
<path fill-rule="evenodd" clip-rule="evenodd" d="M46.4556 47.5527L21.6055 57.3186L51.1616 69.4422L73.7118 58.4242L46.4552 47.5532" fill="white"/>
<path fill-rule="evenodd" clip-rule="evenodd" d="M49.8667 49.4092L49.9558 49.6146L26.8864 59.3841L26.7973 59.1791L49.8667 49.4092Z" stroke="#285580" stroke-width="0.152183" stroke-dasharray="0.61 0.3"/>
<path fill-rule="evenodd" clip-rule="evenodd" d="M46.4741 47.8008L21.6074 57.4145L51.1432 69.4513L73.7118 58.5954L46.4741 47.8008Z" stroke="#285580" stroke-width="0.255667"/>
<path d="M45.3932 48.3906L72.0433 59.5828" stroke="#285580" stroke-width="0.152183" stroke-dasharray="0.61 0.3"/>
<path fill-rule="evenodd" clip-rule="evenodd" d="M44.8966 48.9359L44.9841 48.7305L71.4086 59.6985L71.3211 59.9039L44.8966 48.9359Z" stroke="#285580" stroke-width="0.304366" stroke-dasharray="1.22 0.61"/>
<path fill-rule="evenodd" clip-rule="evenodd" d="M41.0533 50.0452L41.1392 49.8389L68.6933 61.0317L68.6075 61.2379L41.0533 50.0452Z" stroke="#285580" stroke-width="0.304366" stroke-dasharray="1.22 0.61"/>
<path fill-rule="evenodd" clip-rule="evenodd" d="M37.4324 51.3763L37.5228 51.1729L64.3982 62.8103L64.3078 63.0137L37.4324 51.3763Z" stroke="#285580" stroke-width="0.304366" stroke-dasharray="1.22 0.61"/>
<path fill-rule="evenodd" clip-rule="evenodd" d="M33.3609 53.1526L33.4524 52.9492L60.5534 64.8102L60.463 65.0136L33.3609 53.1526Z" stroke="#285580" stroke-width="0.304366" stroke-dasharray="1.22 0.61"/>
<path fill-rule="evenodd" clip-rule="evenodd" d="M29.5154 54.2591L29.6097 54.0557L56.71 66.3632L56.6157 66.5666L29.5154 54.2591Z" stroke="#285580" stroke-width="0.304366" stroke-dasharray="1.22 0.61"/>
<path fill-rule="evenodd" clip-rule="evenodd" d="M26.3487 55.8147L26.4432 55.6113L53.995 68.1417L53.9005 68.3451L26.3487 55.8147Z" stroke="#285580" stroke-width="0.304366" stroke-dasharray="1.22 0.61"/>
<path fill-rule="evenodd" clip-rule="evenodd" d="M49.6524 48.7559L49.7355 48.9631L24.8431 58.693L24.7599 58.4858L49.6524 48.7559Z" stroke="#285580" stroke-width="0.304366" stroke-dasharray="1.22 0.61"/>
<path fill-rule="evenodd" clip-rule="evenodd" d="M51.4585 49.876L51.5417 50.0835L26.649 59.8131L26.5661 59.6059L51.4585 49.876Z" stroke="#285580" stroke-width="0.304366" stroke-dasharray="1.22 0.61"/>
<path fill-rule="evenodd" clip-rule="evenodd" d="M54.169 50.7705L54.2521 50.9778L29.3597 60.7077L29.2766 60.5004L54.169 50.7705Z" stroke="#285580" stroke-width="0.304366" stroke-dasharray="1.22 0.61"/>
<path fill-rule="evenodd" clip-rule="evenodd" d="M56.6536 51.8896L56.7367 52.0971L31.8441 61.8268L31.7609 61.6196L56.6536 51.8896Z" stroke="#285580" stroke-width="0.304366" stroke-dasharray="1.22 0.61"/>
<path fill-rule="evenodd" clip-rule="evenodd" d="M58.6853 53.0088L58.7685 53.2163L33.8761 62.946L33.7929 62.7387L58.6853 53.0088Z" stroke="#285580" stroke-width="0.304366" stroke-dasharray="1.22 0.61"/>
<path fill-rule="evenodd" clip-rule="evenodd" d="M62.0742 53.9053L62.1574 54.1125L37.2648 63.8424L37.1816 63.6352L62.0742 53.9053Z" stroke="#285580" stroke-width="0.304366" stroke-dasharray="1.22 0.61"/>
<path fill-rule="evenodd" clip-rule="evenodd" d="M64.3324 54.8018L64.4156 55.0092L39.5232 64.7389L39.44 64.5319L64.3324 54.8018Z" stroke="#285580" stroke-width="0.304366" stroke-dasharray="1.22 0.61"/>
<path fill-rule="evenodd" clip-rule="evenodd" d="M66.5908 55.9199L66.674 56.1272L41.782 65.8564L41.6989 65.6492L66.5908 55.9199Z" stroke="#285580" stroke-width="0.304366" stroke-dasharray="1.22 0.61"/>
<path fill-rule="evenodd" clip-rule="evenodd" d="M68.6229 57.0371L68.7061 57.2444L43.8137 66.9743L43.7305 66.767L68.6229 57.0371Z" stroke="#285580" stroke-width="0.304366" stroke-dasharray="1.22 0.61"/>
<path fill-rule="evenodd" clip-rule="evenodd" d="M71.355 57.54L71.4481 57.7367L47.8349 68.6362L47.7418 68.4395L71.355 57.54Z" stroke="#285580" stroke-width="0.304366" stroke-dasharray="1.22 0.61"/>
<path fill-rule="evenodd" clip-rule="evenodd" d="M50.0931 49.1875L50.1821 49.3925L27.1125 59.1624L27.0237 58.9576L50.0931 49.1875Z" stroke="#285580" stroke-width="0.152183" stroke-dasharray="0.61 0.3"/>
<path d="M45.6194 48.165L72.2708 59.3563" stroke="#94A4D0" stroke-width="0.152183" stroke-dasharray="0.61 0.3"/>
<path fill-rule="evenodd" clip-rule="evenodd" d="M45.1227 48.7133L45.2104 48.5078L71.6347 59.4758L71.5472 59.6812L45.1227 48.7133Z" stroke="#285580" stroke-width="0.304366" stroke-dasharray="1.22 0.61"/>
<path fill-rule="evenodd" clip-rule="evenodd" d="M41.2797 49.8233L41.3656 49.6172L68.9197 60.8098L68.8338 61.0162L41.2797 49.8233Z" stroke="#285580" stroke-width="0.304366" stroke-dasharray="1.22 0.61"/>
<path fill-rule="evenodd" clip-rule="evenodd" d="M37.6588 51.1556L37.7492 50.9521L64.6248 62.5893L64.5344 62.7928L37.6588 51.1556Z" stroke="#285580" stroke-width="0.304366" stroke-dasharray="1.22 0.61"/>
<path fill-rule="evenodd" clip-rule="evenodd" d="M33.5875 52.93L33.679 52.7266L60.78 64.5873L60.6896 64.7907L33.5875 52.93Z" stroke="#285580" stroke-width="0.304366" stroke-dasharray="1.22 0.61"/>
<path fill-rule="evenodd" clip-rule="evenodd" d="M29.7417 54.0364L29.8362 53.833L56.9365 66.1396L56.842 66.3431L29.7417 54.0364Z" stroke="#285580" stroke-width="0.304366" stroke-dasharray="1.22 0.61"/>
<path fill-rule="evenodd" clip-rule="evenodd" d="M26.5748 55.594L26.6692 55.3906L54.2213 67.9226L54.1266 68.126L26.5748 55.594Z" stroke="#285580" stroke-width="0.304366" stroke-dasharray="1.22 0.61"/>
<path fill-rule="evenodd" clip-rule="evenodd" d="M49.8787 48.5352L49.9618 48.7426L25.0692 58.4723L24.9863 58.2651L49.8787 48.5352Z" stroke="#285580" stroke-width="0.304366" stroke-dasharray="1.22 0.61"/>
<path fill-rule="evenodd" clip-rule="evenodd" d="M51.6849 49.6514L51.7681 49.8586L26.8755 59.5883L26.7923 59.3811L51.6849 49.6514Z" stroke="#285580" stroke-width="0.304366" stroke-dasharray="1.22 0.61"/>
<path fill-rule="evenodd" clip-rule="evenodd" d="M54.3956 50.5488L54.4788 50.7563L29.5862 60.4858L29.5032 60.2785L54.3956 50.5488Z" stroke="#285580" stroke-width="0.304366" stroke-dasharray="1.22 0.61"/>
<path fill-rule="evenodd" clip-rule="evenodd" d="M56.8796 51.668L56.9628 51.875L32.0704 61.6051L31.9872 61.3977L56.8796 51.668Z" stroke="#285580" stroke-width="0.304366" stroke-dasharray="1.22 0.61"/>
<path fill-rule="evenodd" clip-rule="evenodd" d="M58.9117 52.7852L58.9949 52.9924L34.1025 62.7225L34.0193 62.5151L58.9117 52.7852Z" stroke="#285580" stroke-width="0.304366" stroke-dasharray="1.22 0.61"/>
<path fill-rule="evenodd" clip-rule="evenodd" d="M62.3004 53.6816L62.3836 53.8889L37.4912 63.6186L37.408 63.4113L62.3004 53.6816Z" stroke="#285580" stroke-width="0.304366" stroke-dasharray="1.22 0.61"/>
<path fill-rule="evenodd" clip-rule="evenodd" d="M64.5591 54.5762L64.6422 54.7834L39.7496 64.5133L39.6664 64.3059L64.5591 54.5762Z" stroke="#285580" stroke-width="0.304366" stroke-dasharray="1.22 0.61"/>
<path fill-rule="evenodd" clip-rule="evenodd" d="M66.8171 55.6963L66.9003 55.9038L42.0081 65.6335L41.9249 65.4262L66.8171 55.6963Z" stroke="#285580" stroke-width="0.304366" stroke-dasharray="1.22 0.61"/>
<path fill-rule="evenodd" clip-rule="evenodd" d="M68.8494 56.8145L68.9325 57.0219L44.0399 66.7516L43.957 66.5444L68.8494 56.8145Z" stroke="#285580" stroke-width="0.304366" stroke-dasharray="1.22 0.61"/>
<path fill-rule="evenodd" clip-rule="evenodd" d="M71.5814 57.3164L71.6745 57.513L48.0611 68.4128L47.968 68.2159L71.5814 57.3164Z" stroke="#285580" stroke-width="0.304366" stroke-dasharray="1.22 0.61"/>
<path fill-rule="evenodd" clip-rule="evenodd" d="M67.1687 26.5945C67.1725 26.3836 67.19 26.1732 67.2211 25.9646C67.2428 25.8441 67.2856 25.6416 67.3497 25.3571C67.4087 25.0996 67.4516 24.897 67.4783 24.7494C67.492 24.6911 67.49 24.6303 67.4724 24.5731C67.4141 24.524 67.348 24.4852 67.2767 24.4583C67.2708 24.4556 66.8866 24.3042 66.124 24.0042C64.7052 23.4475 63.7353 23.0464 63.2146 22.8009C61.3805 21.9358 60.0052 21.2247 59.0888 20.6676C59.021 20.6295 58.9803 20.6075 58.9688 20.6021C58.8704 20.5557 58.764 20.7282 58.6495 21.1197C58.5797 21.366 58.513 21.6137 58.4492 21.8628C58.4227 21.9393 58.3286 22.1474 58.1669 22.487C58.0728 22.6718 57.994 22.8641 57.9312 23.0618C57.9322 23.0968 57.945 23.1304 57.9675 23.1572C57.99 23.184 58.021 23.2024 58.0553 23.2093C58.7437 23.5342 59.6764 23.9147 60.8533 24.3509C60.6327 25.8506 60.4838 26.8138 60.4067 27.2407C60.2901 27.8866 60.0861 28.8417 59.7949 30.106C59.5036 31.3703 59.3002 32.3254 59.1847 32.9713C59.1744 33.0458 59.1878 33.1215 59.2232 33.1878C59.2586 33.2541 59.314 33.3075 59.3815 33.3404C59.8864 33.6372 60.407 33.9065 60.941 34.147C61.4422 34.3924 61.956 34.6112 62.4803 34.8025C62.5607 34.8362 62.6446 34.8609 62.7305 34.8759C62.765 34.8665 62.7952 34.8453 62.8158 34.8161C62.8364 34.7869 62.8462 34.7514 62.8435 34.7157C62.9601 34.0701 63.1081 33.0856 63.2874 31.7624C63.4667 30.4392 63.6147 29.4548 63.7315 28.8092C63.8302 28.2618 64.022 27.3039 64.3069 25.9357C65.8137 26.7356 66.677 27.1876 66.897 27.2917C67.024 27.352 67.0975 27.3273 67.1176 27.2176C67.1479 27.0112 67.1649 26.8031 67.1687 26.5945ZM70.1294 34.9632C69.825 34.4143 69.3558 33.9749 68.7882 33.707C68.5542 33.5775 68.2946 33.501 68.0277 33.4829C67.7609 33.4648 67.4933 33.5055 67.2439 33.6021C67.0194 33.6954 66.8235 33.8463 66.6761 34.0396C66.5288 34.233 66.4351 34.4618 66.4047 34.703C66.3151 35.2796 66.4354 35.8693 66.7438 36.3646C67.0449 36.9148 67.5127 37.3554 68.0799 37.6231C68.3147 37.7525 68.5749 37.8291 68.8424 37.8476C69.1099 37.8661 69.3782 37.8259 69.6285 37.73C69.8549 37.6368 70.0524 37.4852 70.2009 37.2906C70.3494 37.096 70.4435 36.8654 70.4736 36.6225C70.563 36.0461 70.4411 35.4568 70.1303 34.9632H70.1294ZM81.539 33.3739C81.5427 33.1629 81.5603 32.9524 81.5916 32.7438C81.6133 32.6232 81.6562 32.4207 81.7202 32.1362C81.779 31.879 81.8218 31.6765 81.8486 31.5287C81.8624 31.4704 81.8604 31.4095 81.843 31.3522C81.7846 31.3033 81.7183 31.2645 81.647 31.2376C81.6411 31.2349 81.2569 31.0835 80.4944 30.7834C79.0755 30.2269 78.1057 29.8259 77.585 29.5803C75.7508 28.7151 74.3756 28.004 73.4592 27.447C73.3914 27.4088 73.3507 27.3869 73.3391 27.3815C73.2408 27.3349 73.1343 27.5074 73.0198 27.8988C72.9502 28.1453 72.8834 28.393 72.8196 28.6419C72.793 28.7185 72.6989 28.9265 72.5373 29.2662C72.4432 29.451 72.3644 29.6432 72.3018 29.8409C72.3027 29.8759 72.3154 29.9095 72.3379 29.9363C72.3604 29.9631 72.3913 29.9815 72.4256 29.9885C73.114 30.3133 74.0468 30.6939 75.2238 31.1303C75.0043 32.6299 74.8561 33.5929 74.7793 34.0191C74.6627 34.6651 74.4588 35.6202 74.1677 36.8845C73.8766 38.1488 73.6727 39.1039 73.5559 39.7498C73.5456 39.8242 73.5592 39.9 73.5946 39.9663C73.63 40.0326 73.6854 40.086 73.753 40.1189C74.2579 40.4156 74.7785 40.6849 75.3124 40.9255C75.8137 41.1709 76.3275 41.3897 76.8518 41.5809C76.9323 41.6146 77.0163 41.6393 77.1022 41.6546C77.1367 41.6452 77.1669 41.624 77.1875 41.5948C77.2081 41.5655 77.2179 41.53 77.2152 41.4944C77.3318 40.8487 77.4798 39.8643 77.6591 38.5411C77.8384 37.2179 77.9864 36.2334 78.1032 35.5876C78.202 35.0405 78.3938 34.0827 78.6786 32.7141C80.1853 33.5139 81.0487 33.9659 81.2687 34.0702C81.396 34.1305 81.4695 34.1058 81.4893 33.9961C81.5194 33.79 81.5363 33.5821 81.5399 33.3739H81.539Z" fill="#285580"/>
<path d="M154.141 42.6291C154.141 42.9338 153.974 43.0861 153.638 43.0861C153.06 43.0861 150.767 42.9719 146.76 42.7434C146.669 46.5977 146.623 49.2865 146.623 50.81C146.623 52.6076 146.692 55.3117 146.829 58.9223C146.981 62.5328 147.057 65.2369 147.057 67.0346C147.057 67.324 146.989 67.5068 146.852 67.583C146.806 67.6135 146.593 67.6516 146.212 67.6973C145.298 67.8191 143.957 67.8801 142.19 67.8801C140.225 67.8801 138.846 67.8191 138.054 67.6973C137.627 67.6211 137.414 67.385 137.414 66.9889C137.414 65.1912 137.49 62.4947 137.642 58.8994C137.795 55.3041 137.871 52.6076 137.871 50.81C137.871 49.6217 137.81 46.9709 137.688 42.8576C134.641 43.1623 132.211 43.3147 130.398 43.3147C130.155 43.3147 130.033 43.2385 130.033 43.0861C130.033 42.8881 130.139 42.3016 130.353 41.3266C130.597 40.2602 130.734 39.6127 130.764 39.3842C130.81 38.6682 130.863 37.9522 130.924 37.2361C131.031 36.0936 131.213 35.5223 131.472 35.5223C131.503 35.5223 131.61 35.5299 131.792 35.5451C134.26 35.865 137.909 36.025 142.738 36.025C144.109 36.025 146.638 35.8803 150.325 35.5908C152.305 35.4385 153.303 35.3623 153.319 35.3623C153.623 35.3623 153.798 35.3852 153.844 35.4309C153.89 35.4613 153.92 35.6061 153.936 35.865C153.936 36.2764 153.92 36.8477 153.89 37.5789C153.859 38.3863 153.844 38.9576 153.844 39.2928C153.844 39.6736 153.89 40.2373 153.981 40.9838C154.088 41.715 154.141 42.2635 154.141 42.6291ZM177.381 55.2889C177.381 56.8275 176.886 57.7035 175.896 57.9168C175.728 57.9473 174.152 58.1148 171.166 58.4195C169.368 58.6176 166.687 58.8537 163.122 59.1279C163.335 60.1182 163.983 60.8723 165.064 61.3902C165.948 61.8168 166.953 62.0301 168.081 62.0301C169.437 62.0301 170.8 61.6645 172.171 60.9332C172.75 60.5676 173.329 60.202 173.908 59.8363C174.228 59.9887 174.761 60.7656 175.507 62.1672C176.269 63.5688 176.65 64.46 176.65 64.8408C176.65 64.9475 176.536 65.1227 176.307 65.3664C174.449 67.3621 171.562 68.36 167.646 68.36C164.021 68.36 161.096 67.3012 158.871 65.1836C156.586 63.0355 155.444 60.1639 155.444 56.5686C155.444 53.0646 156.464 50.193 158.506 47.9535C160.608 45.6379 163.396 44.4801 166.87 44.4801C169.795 44.4801 172.278 45.5465 174.319 47.6793C176.361 49.8121 177.381 52.3486 177.381 55.2889ZM169.383 53.8949C169.383 52.9504 169.048 52.1201 168.378 51.4041C167.707 50.6881 166.908 50.3301 165.978 50.3301C165.019 50.3301 164.226 50.7338 163.602 51.5412C163.023 52.2877 162.733 53.1637 162.733 54.1691C162.733 54.5805 162.947 54.7861 163.373 54.7861C164.501 54.7861 166.253 54.6109 168.629 54.2605C169.132 54.1844 169.383 54.0625 169.383 53.8949ZM195.023 52.6609C195.007 52.6609 194.543 52.5391 193.629 52.2953C192.73 52.0516 191.999 51.9297 191.435 51.9297C190.079 51.9297 188.997 52.341 188.19 53.1637C187.383 53.9711 186.979 55.0527 186.979 56.4086C186.979 57.8102 187.421 58.9146 188.304 59.7221C189.188 60.5143 190.338 60.9104 191.755 60.9104C192.425 60.9104 193.179 60.7428 194.017 60.4076C194.855 60.0572 195.251 59.882 195.205 59.882C195.464 59.882 195.8 60.8494 196.211 62.7842C196.561 64.5514 196.737 65.7244 196.737 66.3033C196.737 66.8822 195.792 67.3773 193.903 67.7887C192.44 68.1086 191.26 68.2686 190.361 68.2686C187.009 68.2686 184.244 67.1412 182.066 64.8865C179.887 62.6318 178.798 59.8211 178.798 56.4543C178.798 53.118 179.887 50.3148 182.066 48.0449C184.26 45.7598 187.025 44.6172 190.361 44.6172C192.631 44.6172 194.627 45.1047 196.348 46.0797C196.744 46.293 196.942 46.4986 196.942 46.6967C196.942 46.8947 196.714 47.7936 196.257 49.3932C195.83 50.9318 195.548 51.8611 195.411 52.1811C195.289 52.501 195.16 52.6609 195.023 52.6609ZM222.17 51.1299L222.125 66.8975C222.125 67.4307 221.911 67.7277 221.485 67.7887C220.997 67.8496 219.885 67.8801 218.148 67.8801C216.473 67.8801 215.307 67.8191 214.652 67.6973C214.149 67.6059 213.898 67.2783 213.898 66.7146C213.898 65.4045 213.921 63.4316 213.967 60.7961C214.012 58.1605 214.035 56.1877 214.035 54.8775C214.035 53.0951 213.129 52.2039 211.316 52.2039C210.706 52.2039 209.99 52.4477 209.168 52.9352C208.269 53.4684 207.82 54.0244 207.82 54.6033V60.2477C207.82 60.9789 207.835 62.0834 207.865 63.5611C207.896 65.0236 207.911 66.1205 207.911 66.8518C207.911 67.4154 207.675 67.7277 207.203 67.7887C206.73 67.8496 205.405 67.8801 203.226 67.8801C201.977 67.8801 201.078 67.8191 200.53 67.6973C199.981 67.5754 199.707 67.3088 199.707 66.8975C199.707 65.6939 199.715 63.8887 199.73 61.4816C199.745 59.0594 199.753 57.2465 199.753 56.043C199.753 51.0613 199.7 46.9404 199.593 43.6803C199.547 42.5377 199.509 41.3951 199.479 40.2525C199.403 38.9272 199.265 37.7922 199.067 36.8477C199.022 36.6496 198.999 36.5049 198.999 36.4135C198.999 36.185 199.113 36.0326 199.342 35.9564C199.814 35.8193 200.507 35.7356 201.421 35.7051C202.64 35.6594 203.348 35.6213 203.546 35.5908C206.304 35.2709 207.682 35.1109 207.682 35.1109C207.926 35.1109 208.048 35.2709 208.048 35.5908C208.048 36.0783 208.018 36.741 207.957 37.5789C207.896 38.5539 207.865 39.2166 207.865 39.567C207.774 43.01 207.728 45.7293 207.728 47.725C207.728 48.0297 207.804 48.182 207.957 48.182C207.987 48.182 208.376 47.9154 209.122 47.3822C210.006 46.7576 210.851 46.2625 211.659 45.8969C212.862 45.3637 214.028 45.0971 215.155 45.0971C217.105 45.0971 218.735 45.6074 220.045 46.6281C221.462 47.725 222.17 49.2256 222.17 51.1299ZM260.035 42.6291C260.035 42.9338 259.868 43.0861 259.533 43.0861C258.954 43.0861 256.661 42.9719 252.654 42.7434C252.563 46.5977 252.517 49.2865 252.517 50.81C252.517 52.6076 252.586 55.3117 252.723 58.9223C252.875 62.5328 252.951 65.2369 252.951 67.0346C252.951 67.324 252.883 67.5068 252.746 67.583C252.7 67.6135 252.487 67.6516 252.106 67.6973C251.192 67.8191 249.851 67.8801 248.084 67.8801C246.119 67.8801 244.74 67.8191 243.948 67.6973C243.521 67.6211 243.308 67.385 243.308 66.9889C243.308 65.1912 243.384 62.4947 243.537 58.8994C243.689 55.3041 243.765 52.6076 243.765 50.81C243.765 49.6217 243.704 46.9709 243.582 42.8576C240.535 43.1623 238.105 43.3147 236.293 43.3147C236.049 43.3147 235.927 43.2385 235.927 43.0861C235.927 42.8881 236.034 42.3016 236.247 41.3266C236.491 40.2602 236.628 39.6127 236.658 39.3842C236.704 38.6682 236.757 37.9522 236.818 37.2361C236.925 36.0936 237.108 35.5223 237.367 35.5223C237.397 35.5223 237.504 35.5299 237.687 35.5451C240.155 35.865 243.803 36.025 248.632 36.025C250.004 36.025 252.532 35.8803 256.219 35.5908C258.2 35.4385 259.197 35.3623 259.213 35.3623C259.517 35.3623 259.693 35.3852 259.738 35.4309C259.784 35.4613 259.814 35.6061 259.83 35.865C259.83 36.2764 259.814 36.8477 259.784 37.5789C259.754 38.3863 259.738 38.9576 259.738 39.2928C259.738 39.6736 259.784 40.2373 259.875 40.9838C259.982 41.715 260.035 42.2635 260.035 42.6291ZM277.494 53.4607C277.494 54.0549 277.166 54.352 276.511 54.352C276.222 54.352 275.795 54.3367 275.232 54.3063C274.683 54.2605 274.272 54.2377 273.998 54.2377C272.733 54.2377 271.872 54.4357 271.415 54.8318C270.958 55.2279 270.73 56.0277 270.73 57.2313C270.73 57.8863 270.738 58.8842 270.753 60.2248C270.783 61.5502 270.798 62.5404 270.798 63.1955C270.798 63.6373 270.829 64.3 270.89 65.1836C270.951 66.052 270.981 66.6994 270.981 67.126C270.981 67.4916 270.73 67.6973 270.227 67.743C269.496 67.8039 268.376 67.8344 266.868 67.8344C265.421 67.8344 264.263 67.7887 263.395 67.6973C262.892 67.6363 262.64 67.385 262.64 66.9432C262.64 65.7244 262.648 63.9039 262.663 61.4816C262.679 59.0441 262.686 57.216 262.686 55.9973C262.686 52.4172 262.359 49.4693 261.704 47.1537C261.673 47.0166 261.658 46.9023 261.658 46.8109C261.658 46.5824 261.772 46.4301 262.001 46.3539C262.838 46.2625 264.065 46.0949 265.68 45.8512C268.087 45.3789 269.328 45.1428 269.405 45.1428C269.679 45.1428 269.854 45.6227 269.93 46.5824C270.006 47.5422 270.143 48.0221 270.341 48.0221C270.128 48.0221 270.753 47.626 272.215 46.8338C273.678 46.0264 275.087 45.6227 276.443 45.6227C277.296 45.6227 277.722 45.8055 277.722 46.1711C277.722 46.6129 277.677 47.2375 277.585 48.0449C277.494 48.9133 277.441 49.5379 277.425 49.9188C277.425 50.3605 277.433 50.9471 277.448 51.6783C277.479 52.5771 277.494 53.1713 277.494 53.4607ZM303.133 56.2715C303.133 57.4445 303.202 59.1889 303.339 61.5045C303.476 63.8201 303.545 65.5568 303.545 66.7146C303.545 67.324 303.278 67.6516 302.745 67.6973C300.856 67.8344 298.693 67.9029 296.255 67.9029C295.966 67.9029 295.768 67.4688 295.661 66.6004C295.57 65.7168 295.455 65.2674 295.318 65.2521C295.196 65.3131 295.036 65.4426 294.838 65.6406C293.132 67.3621 291.304 68.2229 289.354 68.2229C286.383 68.2229 283.923 67.0498 281.973 64.7037C280.13 62.51 279.208 59.8896 279.208 56.8428C279.208 53.3236 280.16 50.49 282.064 48.342C284.045 46.1178 286.756 45.0057 290.199 45.0057C292.591 45.0057 294.48 45.8436 295.867 47.5193C295.928 47.5955 295.981 47.6336 296.027 47.6336C296.164 47.6336 296.316 47.268 296.484 46.5367C296.666 45.7902 296.88 45.417 297.123 45.417C297.687 45.417 298.761 45.577 300.346 45.8969C301.854 46.2016 302.935 46.4605 303.59 46.6738C303.819 46.7652 303.933 46.8871 303.933 47.0395C303.933 47.1004 303.91 47.2604 303.865 47.5193C303.377 50.2768 303.133 53.1941 303.133 56.2715ZM295.775 56.4086C295.775 55.1137 295.364 54.0473 294.541 53.2094C293.734 52.3563 292.675 51.9297 291.365 51.9297C290.055 51.9297 288.996 52.3486 288.188 53.1865C287.381 54.0244 286.977 55.0984 286.977 56.4086C286.977 57.6426 287.404 58.7014 288.257 59.585C289.11 60.4686 290.146 60.9104 291.365 60.9104C292.66 60.9104 293.719 60.4914 294.541 59.6535C295.364 58.8004 295.775 57.7188 295.775 56.4086ZM322.809 52.6609C322.793 52.6609 322.329 52.5391 321.415 52.2953C320.516 52.0516 319.785 51.9297 319.221 51.9297C317.865 51.9297 316.783 52.341 315.976 53.1637C315.169 53.9711 314.765 55.0527 314.765 56.4086C314.765 57.8102 315.207 58.9146 316.09 59.7221C316.974 60.5143 318.124 60.9104 319.541 60.9104C320.211 60.9104 320.965 60.7428 321.803 60.4076C322.641 60.0572 323.037 59.882 322.991 59.882C323.25 59.882 323.586 60.8494 323.997 62.7842C324.347 64.5514 324.522 65.7244 324.522 66.3033C324.522 66.8822 323.578 67.3773 321.689 67.7887C320.226 68.1086 319.046 68.2686 318.147 68.2686C314.795 68.2686 312.03 67.1412 309.852 64.8865C307.673 62.6318 306.584 59.8211 306.584 56.4543C306.584 53.118 307.673 50.3148 309.852 48.0449C312.046 45.7598 314.811 44.6172 318.147 44.6172C320.417 44.6172 322.413 45.1047 324.134 46.0797C324.53 46.293 324.728 46.4986 324.728 46.6967C324.728 46.8947 324.5 47.7936 324.043 49.3932C323.616 50.9318 323.334 51.8611 323.197 52.1811C323.075 52.501 322.946 52.6609 322.809 52.6609ZM352.538 52.7752C352.538 56.142 350.886 58.7014 347.58 60.4533C347.275 60.6057 347.123 60.7656 347.123 60.9332C347.123 61.1922 347.831 62.2738 349.248 64.1781C350.665 66.0672 351.373 67.0574 351.373 67.1488C351.373 67.5602 349.354 67.7658 345.317 67.7658C343.763 67.7658 342.865 67.5678 342.621 67.1717C342.012 66.151 341.059 64.6885 339.764 62.7842C339.688 62.6928 338.317 62.5861 335.651 62.4643C335.651 62.9365 335.659 63.6906 335.674 64.7266C335.689 65.7625 335.697 66.5318 335.697 67.0346C335.697 67.4916 335.476 67.743 335.034 67.7887C334.76 67.8191 333.556 67.8344 331.424 67.8344C329.58 67.8344 328.506 67.8039 328.202 67.743C327.79 67.6668 327.585 67.3545 327.585 66.8061V52.8209C327.585 50.9471 327.516 48.1439 327.379 44.4115C327.242 40.6791 327.173 37.8836 327.173 36.025C327.173 35.6594 327.379 35.4689 327.79 35.4537C328.598 35.4537 329.809 35.4385 331.424 35.408C331.85 35.3775 332.589 35.2861 333.64 35.1338C334.57 34.9967 335.301 34.9281 335.834 34.9281C336.078 34.9281 336.2 35.149 336.2 35.5908C336.2 36.1697 336.154 36.9543 336.062 37.9445C335.956 39.1023 335.895 39.8945 335.88 40.3211C335.743 43.5965 335.674 46.133 335.674 47.9307C335.674 48.3572 335.727 48.5781 335.834 48.5934C335.971 48.502 336.154 48.3344 336.382 48.0906C338.363 46.034 340.77 45.0057 343.604 45.0057C346.27 45.0057 348.387 45.615 349.956 46.8338C351.678 48.1897 352.538 50.1701 352.538 52.7752ZM343.466 54.2605C343.466 52.4172 342.423 51.4955 340.336 51.4955C339.406 51.4955 338.416 51.8459 337.365 52.5467C336.238 53.2932 335.674 54.1082 335.674 54.9918C335.674 56.2563 335.849 57.018 336.2 57.277C336.474 57.4598 337.35 57.5512 338.828 57.5512C341.92 57.5512 343.466 56.4543 343.466 54.2605Z" fill="white"/>
</svg>
