<svg width="57" height="57" viewBox="0 0 57 57" fill="none" xmlns="http://www.w3.org/2000/svg">
<circle cx="28.4153" cy="29.4153" r="21.8151" fill="#E1F0FF"/>
<path d="M24.5065 19.7036C24.0179 19.4141 23.3999 19.7662 23.3999 20.3342V37.3066C23.3999 37.8745 24.0179 38.2267 24.5065 37.9372L38.8271 29.451C39.306 29.1671 39.306 28.4737 38.8271 28.1898L24.5065 19.7036Z" fill="black"/>
<path d="M28.8001 1.81064C28.8001 1.03191 28.1684 0.396954 27.3906 0.435845C20.4247 0.784173 13.815 3.70486 8.85969 8.66022C3.57116 13.9487 0.600098 21.1215 0.600098 28.6006C0.600097 36.0797 3.57116 43.2525 8.85968 48.541C13.815 53.4964 20.4247 56.4171 27.3906 56.7654C28.1684 56.8043 28.8001 56.1694 28.8001 55.3906C28.8001 54.6119 28.1682 53.9847 27.3907 53.9415C21.1732 53.5959 15.2801 50.9734 10.8537 46.547C6.09405 41.7873 3.4201 35.3318 3.4201 28.6006C3.4201 21.8694 6.09406 15.4139 10.8537 10.6543C15.2801 6.22787 21.1732 3.60533 27.3907 3.25977C28.1682 3.21655 28.8001 2.58936 28.8001 1.81064Z" fill="#285580"/>
</svg>
