<svg width="16" height="14" viewBox="0 0 16 14" fill="none" xmlns="http://www.w3.org/2000/svg">
<path d="M7.43264 0.649155C7.61833 0.10941 8.38167 0.109408 8.56736 0.649153L9.88136 4.46855C9.96469 4.71075 10.1926 4.87336 10.4487 4.87336L14.6246 4.87336C15.2141 4.87336 15.4502 5.63455 14.9641 5.96809L11.6458 8.24502C11.4234 8.39763 11.3302 8.67988 11.4179 8.93494L12.6991 12.659C12.8873 13.2058 12.2691 13.6761 11.7923 13.3489L8.33947 10.9797C8.13492 10.8393 7.86508 10.8393 7.66053 10.9797L4.2077 13.3489C3.73089 13.6761 3.11274 13.2058 3.30086 12.659L4.58206 8.93494C4.6698 8.67988 4.57657 8.39763 4.35417 8.24502L1.03589 5.96809C0.549817 5.63455 0.785861 4.87336 1.37536 4.87336L5.55128 4.87336C5.80742 4.87336 6.03531 4.71075 6.11864 4.46855L7.43264 0.649155Z" fill="#FFC63F"/>
</svg>
