<svg width="61" height="61" viewBox="0 0 61 61" fill="none" xmlns="http://www.w3.org/2000/svg">
<circle cx="30.5999" cy="30.5" r="30" fill="#172734"/>
<path d="M40.6788 20.9565C40.7912 20.828 40.8772 20.6785 40.9319 20.5167C40.9866 20.3549 41.0088 20.184 40.9974 20.0136C40.986 19.8432 40.9412 19.6767 40.8654 19.5237C40.7897 19.3706 40.6845 19.234 40.556 19.1216C40.4274 19.0091 40.278 18.9231 40.1162 18.8685C39.9544 18.8138 39.7834 18.7915 39.6131 18.8029C39.4427 18.8144 39.2762 18.8592 39.1231 18.935C38.9701 19.0107 38.8334 19.1159 38.721 19.2444L32.078 26.8364L26.4399 19.3198C26.3188 19.1583 26.1618 19.0273 25.9813 18.937C25.8008 18.8468 25.6018 18.7998 25.3999 18.7998H20.1999C19.9585 18.7998 19.7219 18.867 19.5165 18.994C19.3111 19.1209 19.1451 19.3025 19.0372 19.5184C18.9292 19.7344 18.8835 19.9761 18.9052 20.2166C18.9269 20.457 19.0151 20.6867 19.1599 20.8798L27.528 32.0364L20.521 40.0444C20.4086 40.1729 20.3226 40.3224 20.268 40.4842C20.2133 40.646 20.191 40.8169 20.2024 40.9873C20.2138 41.1577 20.2587 41.3242 20.3344 41.4772C20.4102 41.6303 20.5153 41.7669 20.6439 41.8793C20.7724 41.9918 20.9219 42.0778 21.0837 42.1324C21.2454 42.1871 21.4164 42.2094 21.5868 42.198C21.7572 42.1865 21.9237 42.1417 22.0767 42.0659C22.2298 41.9902 22.3664 41.8851 22.4788 41.7565L29.1218 34.1632L34.7599 41.6798C34.881 41.8413 35.038 41.9723 35.2186 42.0626C35.3991 42.1528 35.5981 42.1998 35.7999 42.1998H40.9999C41.2414 42.1998 41.478 42.1326 41.6834 42.0056C41.8887 41.8787 42.0547 41.6971 42.1627 41.4812C42.2706 41.2652 42.3164 41.0235 42.2947 40.7831C42.273 40.5426 42.1848 40.3129 42.0399 40.1198L33.6718 28.9632L40.6788 20.9565Z" fill="#8894A4"/>
</svg>
