<svg width="236" height="47" viewBox="0 0 236 47" fill="none" xmlns="http://www.w3.org/2000/svg">
<path d="M23.0412 47H30.0302L27.9955 44.9653C27.4559 44.4258 26.724 44.1226 25.961 44.1226H23.0412C11.9173 44.1226 2.89954 35.1049 2.89954 23.9809C2.89954 12.857 11.9173 3.83925 23.0412 3.83924H46.0603C57.1842 3.83924 66.202 12.857 66.202 23.9809C66.202 35.1049 57.1842 44.1226 46.0603 44.1226H37.4493C36.3046 44.1226 35.2068 43.6679 34.3973 42.8585L32.0137 40.4748C30.6647 39.1257 28.8349 38.3678 26.9271 38.3678H23.0412C15.0955 38.3678 8.6543 31.9266 8.6543 23.9809C8.6543 16.0352 15.0955 9.594 23.0412 9.594H46.0603C54.006 9.594 60.4472 16.0352 60.4472 23.9809C60.4472 31.9266 54.006 38.3678 46.0603 38.3678H40.5312C39.3865 38.3678 38.2887 37.9131 37.4792 37.1037L35.0955 34.72C33.7465 33.371 31.9168 32.6131 30.009 32.6131H23.0412C18.2739 32.6131 14.4091 28.7483 14.4091 23.9809C14.4091 19.2136 18.2739 15.3488 23.0412 15.3488H46.0603C50.8276 15.3488 54.6924 19.2136 54.6924 23.9809C54.6924 28.6902 50.9213 32.5187 46.2343 32.6113L46.2334 32.6131H44.1279C42.9832 32.6131 41.8854 32.1583 41.076 31.349L38.6922 28.9652C37.5854 27.8582 36.1548 27.1494 34.623 26.9306L34.5508 26.8583H23.0412C21.4521 26.8583 20.1638 25.57 20.1638 23.9809C20.1638 22.3918 21.4521 21.1035 23.0412 21.1035H46.0603C47.6494 21.1035 48.9377 22.3918 48.9377 23.9809C48.9377 25.57 47.6494 26.8583 46.0603 26.8583H40.3055L42.3402 28.893C42.8797 29.4325 43.6116 29.7357 44.3747 29.7357H46.0603C49.2385 29.7357 51.815 27.1592 51.815 23.9809C51.815 20.8027 49.2385 18.2261 46.0603 18.2261H23.0412C19.863 18.2261 17.2865 20.8027 17.2865 23.9809C17.2865 27.1592 19.863 29.7357 23.0412 29.7357H33.6057C34.7504 29.7357 35.8482 30.1904 36.6577 30.9998L39.0414 33.3835C40.3905 34.7325 42.2201 35.4904 44.1279 35.4904H46.7796V35.4683C52.8011 35.097 57.5698 30.0958 57.5698 23.9809C57.5698 17.6244 52.4168 12.4714 46.0603 12.4714H23.0412C16.6847 12.4714 11.5317 17.6244 11.5317 23.9809C11.5317 30.3375 16.6847 35.4904 23.0412 35.4904H30.009C31.1537 35.4904 32.2515 35.9452 33.061 36.7545L35.4447 39.1383C36.7937 40.4873 38.6234 41.2452 40.5312 41.2452H46.0603C55.5951 41.2452 63.3246 33.5158 63.3246 23.9809C63.3246 14.4461 55.5951 6.71662 46.0603 6.71662H23.0412C13.5064 6.71662 5.77692 14.4461 5.77692 23.9809C5.77692 33.5158 13.5064 41.2452 23.0412 41.2452H26.9271C28.0718 41.2452 29.1696 41.7 29.9791 42.5093L32.3628 44.893C33.7118 46.2421 35.5415 47 37.4493 47H46.0603C58.7734 47 69.0793 36.694 69.0793 23.9809C69.0793 11.2678 58.7734 0.961852 46.0603 0.961853L23.0412 0.961858C10.3281 0.961859 0.0221547 11.2678 0.0221558 23.9809C0.0221569 36.694 10.3281 47 23.0412 47Z" fill="#212326"/>
<path d="M82.3349 34.4809V14.3915H90.2608C91.7845 14.3915 93.0826 14.6825 94.1551 15.2646C95.2276 15.84 96.045 16.6411 96.6074 17.6678C97.1763 18.688 97.4608 19.8651 97.4608 21.1992C97.4608 22.5332 97.1731 23.7103 96.5976 24.7305C96.0221 25.7507 95.1883 26.5452 94.0962 27.1141C93.0107 27.6831 91.6962 27.9675 90.1529 27.9675H85.1011V24.5637H89.4662C90.2837 24.5637 90.9573 24.4231 91.487 24.1419C92.0232 23.8542 92.4221 23.4586 92.6837 22.955C92.9518 22.4449 93.0859 21.8596 93.0859 21.1992C93.0859 20.5321 92.9518 19.9501 92.6837 19.4531C92.4221 18.9496 92.0232 18.5605 91.487 18.2858C90.9507 18.0046 90.2706 17.864 89.4466 17.864H86.5823V34.4809H82.3349ZM109.803 28.0656V19.4139H113.982V34.4809H109.97V31.7441H109.813C109.473 32.6269 108.907 33.3365 108.116 33.8727C107.331 34.409 106.373 34.6771 105.242 34.6771C104.235 34.6771 103.349 34.4482 102.584 33.9904C101.819 33.5327 101.22 32.882 100.789 32.0384C100.364 31.1948 100.148 30.1844 100.141 29.0073V19.4139H104.32V28.2618C104.326 29.1512 104.565 29.8542 105.036 30.3708C105.507 30.8874 106.138 31.1457 106.929 31.1457C107.433 31.1457 107.904 31.0313 108.342 30.8024C108.78 30.567 109.133 30.2204 109.401 29.7626C109.676 29.3049 109.81 28.7392 109.803 28.0656ZM121.503 14.3915V34.4809H117.325V14.3915H121.503ZM138.898 19.4139L133.63 34.4809H128.922L123.654 19.4139H128.068L131.197 30.1942H131.354L134.474 19.4139H138.898ZM141.036 34.4809V19.4139H145.215V34.4809H141.036ZM143.135 17.4716C142.514 17.4716 141.981 17.2656 141.536 16.8537C141.098 16.4351 140.879 15.9349 140.879 15.3528C140.879 14.7774 141.098 14.2836 141.536 13.8716C141.981 13.4531 142.514 13.2438 143.135 13.2438C143.756 13.2438 144.286 13.4531 144.724 13.8716C145.169 14.2836 145.391 14.7774 145.391 15.3528C145.391 15.9349 145.169 16.4351 144.724 16.8537C144.286 17.2656 143.756 17.4716 143.135 17.4716ZM152.741 25.7703V34.4809H148.562V19.4139H152.545V22.0722H152.721C153.055 21.1959 153.614 20.5027 154.399 19.9926C155.183 19.476 156.135 19.2177 157.253 19.2177C158.299 19.2177 159.212 19.4466 159.99 19.9043C160.768 20.3621 161.373 21.0161 161.805 21.8662C162.236 22.7098 162.452 23.7169 162.452 24.8874V34.4809H158.273V25.6329C158.28 24.7109 158.044 23.9915 157.567 23.4749C157.09 22.9517 156.432 22.6902 155.595 22.6902C155.033 22.6902 154.536 22.8111 154.104 23.0531C153.679 23.2951 153.346 23.6482 153.104 24.1125C152.868 24.5703 152.747 25.1229 152.741 25.7703ZM170.042 34.7654C169.081 34.7654 168.224 34.5986 167.472 34.2651C166.72 33.925 166.125 33.4248 165.687 32.7643C165.255 32.0972 165.039 31.2667 165.039 30.2727C165.039 29.4357 165.193 28.7327 165.5 28.1637C165.808 27.5948 166.226 27.137 166.756 26.7904C167.286 26.4438 167.887 26.1823 168.561 26.0057C169.241 25.8291 169.954 25.7049 170.699 25.6329C171.575 25.5414 172.282 25.4564 172.818 25.3779C173.354 25.2929 173.743 25.1686 173.985 25.0052C174.227 24.8417 174.348 24.5997 174.348 24.2793V24.2204C174.348 23.5992 174.152 23.1185 173.76 22.7784C173.374 22.4384 172.825 22.2684 172.112 22.2684C171.36 22.2684 170.761 22.4351 170.317 22.7686C169.872 23.0956 169.578 23.5076 169.434 24.0046L165.569 23.6907C165.765 22.7752 166.151 21.9839 166.726 21.3169C167.302 20.6433 168.044 20.1267 168.953 19.767C169.869 19.4008 170.928 19.2177 172.131 19.2177C172.968 19.2177 173.769 19.3158 174.535 19.512C175.306 19.7081 175.99 20.0122 176.585 20.4242C177.186 20.8362 177.66 21.3659 178.007 22.0133C178.354 22.6542 178.527 23.4226 178.527 24.3185V34.4809H174.564V32.3915H174.446C174.204 32.8624 173.881 33.2776 173.475 33.6373C173.07 33.9904 172.583 34.2684 172.014 34.4711C171.445 34.6673 170.787 34.7654 170.042 34.7654ZM171.239 31.8814C171.853 31.8814 172.396 31.7605 172.867 31.5185C173.338 31.27 173.707 30.9365 173.975 30.518C174.244 30.0994 174.378 29.6253 174.378 29.0956V27.4967C174.247 27.5817 174.067 27.6602 173.838 27.7321C173.616 27.7975 173.364 27.8596 173.083 27.9185C172.802 27.9708 172.52 28.0199 172.239 28.0656C171.958 28.1049 171.703 28.1408 171.474 28.1735C170.984 28.2455 170.555 28.3599 170.189 28.5169C169.823 28.6738 169.538 28.8863 169.336 29.1545C169.133 29.416 169.032 29.743 169.032 30.1354C169.032 30.7043 169.238 31.1392 169.65 31.44C170.068 31.7343 170.598 31.8814 171.239 31.8814ZM181.769 34.4809V19.4139H185.82V22.0428H185.977C186.252 21.1076 186.713 20.4013 187.36 19.924C188.008 19.44 188.753 19.1981 189.597 19.1981C189.806 19.1981 190.032 19.2111 190.274 19.2373C190.516 19.2635 190.728 19.2994 190.911 19.3452V23.0531C190.715 22.9943 190.444 22.9419 190.097 22.8962C189.75 22.8504 189.433 22.8275 189.146 22.8275C188.531 22.8275 187.981 22.9616 187.498 23.2297C187.02 23.4913 186.641 23.8575 186.36 24.3283C186.085 24.7992 185.948 25.3419 185.948 25.9566V34.4809H181.769ZM202.734 28.0656V19.4139H206.913V34.4809H202.901V31.7441H202.744C202.404 32.6269 201.838 33.3365 201.047 33.8727C200.262 34.409 199.304 34.6771 198.172 34.6771C197.165 34.6771 196.279 34.4482 195.514 33.9904C194.749 33.5327 194.151 32.882 193.719 32.0384C193.294 31.1948 193.078 30.1844 193.072 29.0073V19.4139H197.25V28.2618C197.257 29.1512 197.496 29.8542 197.966 30.3708C198.437 30.8874 199.068 31.1457 199.86 31.1457C200.363 31.1457 200.834 31.0313 201.272 30.8024C201.71 30.567 202.063 30.2204 202.332 29.7626C202.606 29.3049 202.74 28.7392 202.734 28.0656ZM218.269 19.4139V22.5528H209.196V19.4139H218.269ZM211.256 15.8041H215.434V29.8509C215.434 30.2368 215.493 30.5376 215.611 30.7534C215.729 30.9626 215.892 31.1098 216.101 31.1948C216.317 31.2798 216.566 31.3223 216.847 31.3223C217.043 31.3223 217.239 31.306 217.435 31.2733C217.632 31.234 217.782 31.2046 217.887 31.185L218.544 34.2945C218.335 34.3599 218.04 34.4351 217.661 34.5201C217.282 34.6117 216.821 34.6673 216.278 34.6869C215.271 34.7261 214.388 34.5921 213.629 34.2847C212.877 33.9774 212.292 33.5 211.874 32.8526C211.455 32.2051 211.249 31.3877 211.256 30.4002V15.8041ZM223.571 40.131C223.041 40.131 222.544 40.0885 222.08 40.0035C221.622 39.925 221.243 39.8237 220.942 39.6994L221.884 36.5801C222.374 36.7305 222.816 36.8122 223.208 36.8253C223.607 36.8384 223.95 36.7468 224.238 36.5506C224.532 36.3545 224.771 36.0209 224.954 35.5501L225.199 34.9125L219.795 19.4139H224.189L227.308 30.4787H227.465L230.614 19.4139H235.038L229.182 36.1092C228.901 36.9201 228.518 37.6264 228.034 38.228C227.557 38.8362 226.952 39.3038 226.22 39.6308C225.487 39.9643 224.604 40.131 223.571 40.131Z" fill="black"/>
</svg>
