<svg width="212" height="47" viewBox="0 0 212 47" fill="none" xmlns="http://www.w3.org/2000/svg">
<path fill-rule="evenodd" clip-rule="evenodd" d="M29.4134 14.4111C27.5207 13.1464 25.2954 12.4714 23.0191 12.4714V0.961853C27.5718 0.961853 32.0223 2.3119 35.8078 4.84127C39.5933 7.37063 42.5436 10.9657 44.2859 15.1719C46.0281 19.378 46.484 24.0065 45.5958 28.4717C44.7076 32.9369 42.5153 37.0386 39.296 40.2578C36.0767 43.4771 31.9751 45.6695 27.5099 46.5577C23.0446 47.4459 18.4162 46.99 14.21 45.2478C10.0039 43.5055 6.40877 40.5551 3.87941 36.7696C1.35005 32.9841 0 28.5336 0 23.9809H11.5095C11.5095 26.2573 12.1846 28.4825 13.4492 30.3753C14.7139 32.268 16.5115 33.7432 18.6146 34.6143C20.7176 35.4855 23.0318 35.7134 25.2645 35.2692C27.4971 34.8252 29.5478 33.729 31.1576 32.1194C32.7672 30.5097 33.8633 28.4589 34.3074 26.2263C34.7515 23.9937 34.5236 21.6795 33.6525 19.5765C32.7813 17.4733 31.3062 15.6758 29.4134 14.4111Z" fill="#007DFC"/>
<path fill-rule="evenodd" clip-rule="evenodd" d="M11.5095 0.961858C11.5095 2.47331 11.2118 3.96997 10.6334 5.36636C10.055 6.76276 9.20723 8.03156 8.13847 9.10033C7.06971 10.1691 5.80091 11.0169 4.40451 11.5953C3.0081 12.1737 1.51145 12.4714 5.03093e-07 12.4714L0 23.9809C3.0229 23.9809 6.01621 23.3855 8.80902 22.2287C11.6018 21.0719 14.1395 19.3763 16.2769 17.2388C18.4144 15.1013 20.11 12.5637 21.2668 9.77087C22.4237 6.97806 23.0191 3.98476 23.0191 0.961853L11.5095 0.961858Z" fill="#007DFC"/>
<path d="M77.019 21.4248H72.7226C72.6441 20.8689 72.4839 20.3752 72.2419 19.9436C72 19.5054 71.6893 19.1327 71.31 18.8253C70.9307 18.518 70.4926 18.2825 69.9956 18.119C69.5051 17.9556 68.9722 17.8738 68.3967 17.8738C67.3569 17.8738 66.4512 18.1321 65.6795 18.6487C64.9079 19.1588 64.3095 19.9043 63.8844 20.8853C63.4594 21.8596 63.2468 23.0433 63.2468 24.4362C63.2468 25.8684 63.4594 27.0716 63.8844 28.046C64.316 29.0204 64.9177 29.7561 65.6893 30.2531C66.461 30.7501 67.3536 30.9986 68.3673 30.9986C68.9362 30.9986 69.4626 30.9234 69.9466 30.773C70.437 30.6226 70.8719 30.4035 71.2512 30.1158C71.6305 29.8215 71.9444 29.4651 72.1929 29.0466C72.4479 28.628 72.6245 28.1507 72.7226 27.6144L77.019 27.634C76.9079 28.5561 76.6299 29.4455 76.1852 30.3022C75.7471 31.1523 75.1553 31.9141 74.4098 32.5877C73.6708 33.2547 72.788 33.7844 71.7613 34.1768C70.7411 34.5626 69.5869 34.7556 68.2986 34.7556C66.5068 34.7556 64.9046 34.3501 63.4921 33.5392C62.0861 32.7283 60.9743 31.5545 60.1569 30.0177C59.346 28.4809 58.9406 26.6204 58.9406 24.4362C58.9406 22.2455 59.3525 20.3817 60.1765 18.8449C61.0005 17.3082 62.1188 16.1376 63.5313 15.3332C64.9438 14.5223 66.5329 14.1169 68.2986 14.1169C69.4626 14.1169 70.5416 14.2804 71.5357 14.6073C72.5362 14.9343 73.4223 15.4117 74.194 16.0395C74.9656 16.6607 75.5934 17.4226 76.0773 18.325C76.5678 19.2275 76.8817 20.2607 77.019 21.4248ZM86.794 34.7752C85.2703 34.7752 83.9525 34.4515 82.8408 33.8041C81.7356 33.1501 80.8822 32.2411 80.2806 31.0771C79.679 29.9065 79.3782 28.5496 79.3782 27.0062C79.3782 25.4498 79.679 24.0896 80.2806 22.9256C80.8822 21.755 81.7356 20.846 82.8408 20.1986C83.9525 19.5447 85.2703 19.2177 86.794 19.2177C88.3177 19.2177 89.6321 19.5447 90.7373 20.1986C91.849 20.846 92.7057 21.755 93.3073 22.9256C93.9089 24.0896 94.2098 25.4498 94.2098 27.0062C94.2098 28.5496 93.9089 29.9065 93.3073 31.0771C92.7057 32.2411 91.849 33.1501 90.7373 33.8041C89.6321 34.4515 88.3177 34.7752 86.794 34.7752ZM86.8136 31.5381C87.5068 31.5381 88.0855 31.3419 88.5498 30.9496C89.0141 30.5507 89.364 30.0079 89.5994 29.3212C89.8414 28.6346 89.9623 27.8531 89.9623 26.9768C89.9623 26.1005 89.8414 25.319 89.5994 24.6324C89.364 23.9458 89.0141 23.403 88.5498 23.0041C88.0855 22.6052 87.5068 22.4057 86.8136 22.4057C86.1138 22.4057 85.5253 22.6052 85.0479 23.0041C84.5771 23.403 84.2207 23.9458 83.9787 24.6324C83.7433 25.319 83.6256 26.1005 83.6256 26.9768C83.6256 27.8531 83.7433 28.6346 83.9787 29.3212C84.2207 30.0079 84.5771 30.5507 85.0479 30.9496C85.5253 31.3419 86.1138 31.5381 86.8136 31.5381ZM101.106 25.7703V34.4809H96.9269V19.4139H100.909V22.0722H101.086C101.42 21.1959 101.979 20.5027 102.763 19.9926C103.548 19.476 104.5 19.2177 105.618 19.2177C106.664 19.2177 107.577 19.4466 108.355 19.9043C109.133 20.3621 109.738 21.0161 110.169 21.8662C110.601 22.7098 110.817 23.7169 110.817 24.8874V34.4809H106.638V25.6329C106.645 24.7109 106.409 23.9915 105.932 23.4749C105.454 22.9517 104.797 22.6902 103.96 22.6902C103.398 22.6902 102.901 22.8111 102.469 23.0531C102.044 23.2951 101.711 23.6482 101.469 24.1125C101.233 24.5703 101.112 25.1229 101.106 25.7703ZM126.647 23.7103L122.821 23.9457C122.756 23.6188 122.615 23.3245 122.399 23.0629C122.183 22.7948 121.899 22.5823 121.546 22.4253C121.199 22.2618 120.784 22.1801 120.3 22.1801C119.653 22.1801 119.106 22.3174 118.662 22.5921C118.217 22.8602 117.995 23.2199 117.995 23.6711C117.995 24.0308 118.139 24.3349 118.426 24.5834C118.714 24.8319 119.208 25.0313 119.908 25.1817L122.635 25.731C124.099 26.0319 125.191 26.5158 125.911 27.1828C126.63 27.8498 126.99 28.7261 126.99 29.8117C126.99 30.7992 126.699 31.6656 126.117 32.4111C125.541 33.1566 124.75 33.7387 123.743 34.1572C122.742 34.5692 121.588 34.7752 120.28 34.7752C118.286 34.7752 116.697 34.3599 115.513 33.5294C114.336 32.6923 113.646 31.5545 113.443 30.1158L117.553 29.9C117.678 30.5081 117.978 30.9725 118.456 31.2929C118.933 31.6068 119.545 31.7637 120.29 31.7637C121.023 31.7637 121.611 31.6231 122.056 31.3419C122.507 31.0542 122.736 30.6847 122.742 30.2335C122.736 29.8542 122.576 29.5436 122.262 29.3016C121.948 29.0531 121.464 28.8635 120.81 28.7327L118.201 28.2128C116.729 27.9185 115.634 27.4084 114.915 26.6825C114.202 25.9566 113.845 25.0313 113.845 23.9065C113.845 22.9387 114.107 22.1049 114.63 21.4052C115.16 20.7054 115.902 20.1659 116.857 19.7866C117.818 19.4073 118.943 19.2177 120.231 19.2177C122.134 19.2177 123.632 19.6199 124.724 20.4242C125.823 21.2286 126.463 22.324 126.647 23.7103ZM136.488 34.7752C134.938 34.7752 133.604 34.4613 132.485 33.8335C131.374 33.1992 130.517 32.3032 129.915 31.1457C129.314 29.9817 129.013 28.6051 129.013 27.016C129.013 25.4662 129.314 24.106 129.915 22.9354C130.517 21.7648 131.364 20.8526 132.456 20.1986C133.555 19.5447 134.843 19.2177 136.321 19.2177C137.315 19.2177 138.24 19.3779 139.097 19.6983C139.96 20.0122 140.712 20.4864 141.353 21.1207C142 21.755 142.504 22.5528 142.864 23.5141C143.223 24.4689 143.403 25.5872 143.403 26.8689V28.0166H130.681V25.4269H139.47C139.47 24.8253 139.339 24.2923 139.077 23.828C138.816 23.3637 138.453 23.0008 137.988 22.7392C137.531 22.4711 136.998 22.337 136.39 22.337C135.755 22.337 135.193 22.4842 134.702 22.7784C134.218 23.0662 133.839 23.4553 133.565 23.9457C133.29 24.4297 133.149 24.9692 133.143 25.5643V28.0264C133.143 28.7719 133.28 29.416 133.555 29.9588C133.836 30.5016 134.232 30.9201 134.742 31.2144C135.252 31.5087 135.857 31.6558 136.556 31.6558C137.021 31.6558 137.446 31.5904 137.832 31.4596C138.217 31.3289 138.548 31.1327 138.822 30.8711C139.097 30.6095 139.306 30.2891 139.45 29.9098L143.315 30.1648C143.119 31.0934 142.717 31.9043 142.108 32.5975C141.507 33.2842 140.729 33.8204 139.774 34.2062C138.826 34.5855 137.73 34.7752 136.488 34.7752ZM154.144 19.4139V22.5528H145.071V19.4139H154.144ZM147.131 15.8041H151.309V29.8509C151.309 30.2368 151.368 30.5376 151.486 30.7534C151.604 30.9626 151.767 31.1098 151.976 31.1948C152.192 31.2798 152.441 31.3223 152.722 31.3223C152.918 31.3223 153.114 31.306 153.311 31.2733C153.507 31.234 153.657 31.2046 153.762 31.185L154.419 34.2945C154.21 34.3599 153.915 34.4351 153.536 34.5201C153.157 34.6117 152.696 34.6673 152.153 34.6869C151.146 34.7261 150.263 34.5921 149.505 34.2847C148.753 33.9774 148.167 33.5 147.749 32.8526C147.33 32.2051 147.124 31.3877 147.131 30.4002V15.8041ZM163.571 34.7752C162.021 34.7752 160.687 34.4613 159.569 33.8335C158.457 33.1992 157.6 32.3032 156.999 31.1457C156.397 29.9817 156.096 28.6051 156.096 27.016C156.096 25.4662 156.397 24.106 156.999 22.9354C157.6 21.7648 158.447 20.8526 159.539 20.1986C160.638 19.5447 161.926 19.2177 163.404 19.2177C164.398 19.2177 165.324 19.3779 166.18 19.6983C167.044 20.0122 167.796 20.4864 168.436 21.1207C169.084 21.755 169.587 22.5528 169.947 23.5141C170.307 24.4689 170.487 25.5872 170.487 26.8689V28.0166H157.764V25.4269H166.553C166.553 24.8253 166.422 24.2923 166.161 23.828C165.899 23.3637 165.536 23.0008 165.072 22.7392C164.614 22.4711 164.081 22.337 163.473 22.337C162.839 22.337 162.276 22.4842 161.786 22.7784C161.302 23.0662 160.923 23.4553 160.648 23.9457C160.373 24.4297 160.233 24.9692 160.226 25.5643V28.0264C160.226 28.7719 160.363 29.416 160.638 29.9588C160.919 30.5016 161.315 30.9201 161.825 31.2144C162.335 31.5087 162.94 31.6558 163.64 31.6558C164.104 31.6558 164.529 31.5904 164.915 31.4596C165.301 31.3289 165.631 31.1327 165.906 30.8711C166.18 30.6095 166.39 30.2891 166.533 29.9098L170.398 30.1648C170.202 31.0934 169.8 31.9043 169.192 32.5975C168.59 33.2842 167.812 33.8204 166.857 34.2062C165.909 34.5855 164.814 34.7752 163.571 34.7752ZM181.228 19.4139V22.5528H172.154V19.4139H181.228ZM174.214 15.8041H178.393V29.8509C178.393 30.2368 178.452 30.5376 178.569 30.7534C178.687 30.9626 178.851 31.1098 179.06 31.1948C179.276 31.2798 179.524 31.3223 179.805 31.3223C180.002 31.3223 180.198 31.306 180.394 31.2733C180.59 31.234 180.741 31.2046 180.845 31.185L181.502 34.2945C181.293 34.3599 180.999 34.4351 180.62 34.5201C180.24 34.6117 179.779 34.6673 179.236 34.6869C178.229 34.7261 177.347 34.5921 176.588 34.2847C175.836 33.9774 175.251 33.5 174.832 32.8526C174.414 32.2051 174.208 31.3877 174.214 30.4002V15.8041ZM193.612 28.0656V19.4139H197.791V34.4809H193.779V31.7441H193.622C193.282 32.6269 192.716 33.3365 191.925 33.8727C191.14 34.409 190.182 34.6771 189.051 34.6771C188.044 34.6771 187.157 34.4482 186.392 33.9904C185.627 33.5327 185.029 32.882 184.597 32.0384C184.172 31.1948 183.956 30.1844 183.95 29.0073V19.4139H188.129V28.2618C188.135 29.1512 188.374 29.8542 188.845 30.3708C189.315 30.8874 189.947 31.1457 190.738 31.1457C191.241 31.1457 191.712 31.0313 192.15 30.8024C192.588 30.567 192.942 30.2204 193.21 29.7626C193.484 29.3049 193.618 28.7392 193.612 28.0656ZM201.133 34.4809V19.4139H205.184V22.0428H205.341C205.616 21.1076 206.077 20.4013 206.724 19.924C207.372 19.44 208.117 19.1981 208.961 19.1981C209.17 19.1981 209.396 19.2111 209.638 19.2373C209.88 19.2635 210.092 19.2994 210.275 19.3452V23.0531C210.079 22.9943 209.808 22.9419 209.461 22.8962C209.115 22.8504 208.797 22.8275 208.51 22.8275C207.895 22.8275 207.346 22.9616 206.862 23.2297C206.384 23.4913 206.005 23.8575 205.724 24.3283C205.449 24.7992 205.312 25.3419 205.312 25.9566V34.4809H201.133Z" fill="black"/>
</svg>
