<svg width="215" height="40" viewBox="0 0 215 40" fill="none" xmlns="http://www.w3.org/2000/svg">
<path d="M18.0486 0.414734H42.3125L24.4737 26.8555H0.209717L18.0486 0.414734Z" fill="#007AFF"/>
<path d="M19.1111 29.3059L12.2017 39.5471H37.6165L55.4554 13.1064H36.6976L25.7682 29.3059H19.1111Z" fill="#312ECB"/>
<path d="M79.6091 16.1692C79.5306 15.378 79.1938 14.7633 78.5987 14.3251C78.0037 13.887 77.196 13.6679 76.1759 13.6679C75.4827 13.6679 74.8974 13.766 74.42 13.9622C73.9426 14.1518 73.5764 14.4167 73.3214 14.7567C73.0729 15.0968 72.9486 15.4826 72.9486 15.9142C72.9355 16.2739 73.0107 16.5878 73.1742 16.8559C73.3443 17.124 73.5764 17.3562 73.8707 17.5524C74.165 17.742 74.505 17.9088 74.8908 18.0526C75.2767 18.19 75.6887 18.3077 76.1268 18.4058L77.9317 18.8374C78.808 19.0335 79.6124 19.2951 80.3448 19.6221C81.0772 19.9491 81.7116 20.3513 82.2478 20.8286C82.784 21.306 83.1993 21.8684 83.4936 22.5158C83.7944 23.1632 83.9481 23.9055 83.9546 24.7425C83.9481 25.972 83.6342 27.0379 83.0129 27.9404C82.3982 28.8363 81.5088 29.5327 80.3448 30.0297C79.1873 30.5202 77.7911 30.7654 76.1562 30.7654C74.5344 30.7654 73.1219 30.5169 71.9186 30.0199C70.7219 29.5229 69.7868 28.7872 69.1132 27.8128C68.4462 26.8319 68.0963 25.6188 68.0636 24.1736H72.1737C72.2195 24.8472 72.4124 25.4096 72.7524 25.8608C73.099 26.3055 73.5601 26.6423 74.1355 26.8711C74.7176 27.0935 75.3748 27.2047 76.1072 27.2047C76.8265 27.2047 77.4511 27.1 77.9808 26.8908C78.517 26.6815 78.9323 26.3905 79.2265 26.0177C79.5208 25.645 79.668 25.2167 79.668 24.7327C79.668 24.2815 79.5339 23.9022 79.2658 23.5949C79.0042 23.2875 78.6184 23.0259 78.1083 22.8101C77.6047 22.5943 76.9868 22.3981 76.2543 22.2216L74.0669 21.6722C72.3731 21.2603 71.0358 20.6161 70.0549 19.7398C69.074 18.8635 68.5868 17.6831 68.5933 16.1987C68.5868 14.9823 68.9105 13.9197 69.5644 13.0107C70.2249 12.1017 71.1306 11.3921 72.2816 10.8821C73.4325 10.372 74.7404 10.1169 76.2053 10.1169C77.6963 10.1169 78.9977 10.372 80.1094 10.8821C81.2276 11.3921 82.0974 12.1017 82.7186 13.0107C83.3399 13.9197 83.6603 14.9725 83.6799 16.1692H79.6091ZM105.273 20.4363C105.273 22.627 104.857 24.4908 104.027 26.0276C103.203 27.5643 102.078 28.7382 100.652 29.5491C99.2333 30.3534 97.6377 30.7556 95.8655 30.7556C94.0802 30.7556 92.478 30.3502 91.059 29.5393C89.6399 28.7284 88.5184 27.5545 87.6944 26.0177C86.8704 24.481 86.4584 22.6205 86.4584 20.4363C86.4584 18.2455 86.8704 16.3818 87.6944 14.845C88.5184 13.3082 89.6399 12.1376 91.059 11.3333C92.478 10.5224 94.0802 10.1169 95.8655 10.1169C97.6377 10.1169 99.2333 10.5224 100.652 11.3333C102.078 12.1376 103.203 13.3082 104.027 14.845C104.857 16.3818 105.273 18.2455 105.273 20.4363ZM100.966 20.4363C100.966 19.0172 100.754 17.8205 100.329 16.8461C99.9102 15.8717 99.3184 15.1327 98.5532 14.6292C97.7881 14.1257 96.8922 13.8739 95.8655 13.8739C94.8388 13.8739 93.9429 14.1257 93.1778 14.6292C92.4126 15.1327 91.8175 15.8717 91.3925 16.8461C90.9739 17.8205 90.7647 19.0172 90.7647 20.4363C90.7647 21.8553 90.9739 23.0521 91.3925 24.0265C91.8175 25.0009 92.4126 25.7398 93.1778 26.2434C93.9429 26.7469 94.8388 26.9987 95.8655 26.9987C96.8922 26.9987 97.7881 26.7469 98.5532 26.2434C99.3184 25.7398 99.9102 25.0009 100.329 24.0265C100.754 23.0521 100.966 21.8553 100.966 20.4363ZM108.419 30.481V10.3916H112.666V26.9791H121.279V30.481H108.419ZM128.339 10.3916V30.481H124.092V10.3916H128.339ZM131.068 13.8935V10.3916H147.568V13.8935H141.417V30.481H137.219V13.8935H131.068ZM162.694 10.3916H166.941V23.4379C166.941 24.9028 166.591 26.1845 165.891 27.2831C165.198 28.3818 164.227 29.2385 162.978 29.8532C161.729 30.4613 160.274 30.7654 158.613 30.7654C156.945 30.7654 155.487 30.4613 154.238 29.8532C152.989 29.2385 152.018 28.3818 151.325 27.2831C150.631 26.1845 150.285 24.9028 150.285 23.4379V10.3916H154.532V23.075C154.532 23.8401 154.699 24.5202 155.033 25.1153C155.373 25.7104 155.85 26.178 156.465 26.518C157.079 26.8581 157.795 27.0281 158.613 27.0281C159.437 27.0281 160.153 26.8581 160.761 26.518C161.376 26.178 161.85 25.7104 162.183 25.1153C162.524 24.5202 162.694 23.8401 162.694 23.075V10.3916ZM177.557 30.481H170.435V10.3916H177.616C179.637 10.3916 181.376 10.7938 182.834 11.5981C184.293 12.3959 185.414 13.5436 186.199 15.0412C186.99 16.5387 187.386 18.3306 187.386 20.4167C187.386 22.5093 186.99 24.3077 186.199 25.8117C185.414 27.3158 184.286 28.4701 182.815 29.2744C181.35 30.0788 179.597 30.481 177.557 30.481ZM174.683 26.8417H177.38C178.636 26.8417 179.692 26.6194 180.549 26.1747C181.412 25.7235 182.059 25.027 182.491 24.0853C182.929 23.1371 183.148 21.9142 183.148 20.4167C183.148 18.9322 182.929 17.7191 182.491 16.7774C182.059 15.8357 181.415 15.1425 180.559 14.6979C179.702 14.2532 178.646 14.0308 177.39 14.0308H174.683V26.8417ZM194.78 10.3916V30.481H190.532V10.3916H194.78ZM198.274 30.481V10.3916H206.2C207.717 10.3916 209.012 10.663 210.085 11.2058C211.164 11.742 211.984 12.5039 212.547 13.4913C213.116 14.4722 213.4 15.6265 213.4 16.954C213.4 18.288 213.112 19.4357 212.537 20.397C211.961 21.3518 211.128 22.0842 210.035 22.5943C208.95 23.1044 207.635 23.3594 206.092 23.3594H200.785V19.9458H205.406C206.216 19.9458 206.89 19.8346 207.426 19.6123C207.962 19.39 208.361 19.0564 208.623 18.6118C208.891 18.1671 209.025 17.6145 209.025 16.954C209.025 16.287 208.891 15.7246 208.623 15.2668C208.361 14.809 207.959 14.4624 207.416 14.227C206.88 13.9851 206.203 13.8641 205.386 13.8641H202.522V30.481H198.274ZM209.123 21.3387L214.116 30.481H209.427L204.542 21.3387H209.123Z" fill="black"/>
</svg>
