<svg width="1036" height="328" viewBox="0 0 1036 328" fill="none" xmlns="http://www.w3.org/2000/svg">
<path fill-rule="evenodd" clip-rule="evenodd" d="M12.8097 0C5.73511 0 0 5.73512 0 12.8097V238.451C0 245.526 5.73509 251.261 12.8097 251.261H193.208L244.514 324.229C247.915 329.066 255.085 329.066 258.486 324.229L309.792 251.261H490.19C497.265 251.261 503 245.526 503 238.451V12.8097C503 5.73511 497.265 0 490.19 0H12.8097Z" fill="white"/>
<path fill-rule="evenodd" clip-rule="evenodd" d="M545.81 0C538.735 0 533 5.73512 533 12.8097V238.451C533 245.526 538.735 251.261 545.81 251.261H726.208L777.514 324.229C780.915 329.066 788.085 329.066 791.486 324.229L842.792 251.261H1023.19C1030.26 251.261 1036 245.526 1036 238.451V12.8097C1036 5.73511 1030.26 0 1023.19 0H545.81Z" fill="white"/>
</svg>
