<svg width="932" height="1230" viewBox="0 0 932 1230" fill="none" xmlns="http://www.w3.org/2000/svg">
<rect y="0.599976" width="931.2" height="1228.8" fill="url(#paint0_linear_186_979)"/>
<path d="M863.755 845.471H40.8V845.882H863.755V845.471Z" fill="#EBEBEB"/>
<path d="M781.294 871.953H726.782V872.365H781.294V871.953Z" fill="#EBEBEB"/>
<path d="M585.958 876.43H571.655V876.841H585.958V876.43Z" fill="#EBEBEB"/>
<path d="M725.136 856.679H693.551V857.091H725.136V856.679Z" fill="#EBEBEB"/>
<path d="M198.231 859.444H127.145V859.856H198.231V859.444Z" fill="#EBEBEB"/>
<path d="M223.315 859.444H212.896V859.856H223.315V859.444Z" fill="#EBEBEB"/>
<path d="M411.376 866.39H257.188V866.801H411.376V866.39Z" fill="#EBEBEB"/>
<path d="M430.88 772.063H113.072C110.582 772.059 108.196 771.067 106.437 769.305C104.678 767.543 103.69 765.155 103.69 762.665V315.916C103.712 313.441 104.709 311.074 106.466 309.329C108.223 307.585 110.596 306.604 113.072 306.6H430.88C433.373 306.6 435.763 307.59 437.526 309.353C439.288 311.115 440.279 313.506 440.279 315.998V762.665C440.279 765.158 439.288 767.548 437.526 769.31C435.763 771.073 433.373 772.063 430.88 772.063ZM113.072 306.929C110.691 306.934 108.41 307.882 106.728 309.567C105.046 311.252 104.102 313.535 104.102 315.916V762.665C104.102 765.046 105.046 767.329 106.728 769.014C108.41 770.699 110.691 771.647 113.072 771.652H430.88C433.262 771.647 435.546 770.699 437.23 769.015C438.915 767.33 439.863 765.047 439.867 762.665V315.916C439.863 313.534 438.915 311.251 437.23 309.566C435.546 307.882 433.262 306.934 430.88 306.929H113.072Z" fill="#EBEBEB"/>
<path d="M786.907 772.063H469.082C466.591 772.059 464.203 771.067 462.442 769.306C460.68 767.544 459.688 765.156 459.684 762.665V315.916C459.71 313.439 460.711 311.072 462.47 309.328C464.23 307.585 466.605 306.604 469.082 306.6H786.907C789.38 306.609 791.749 307.591 793.503 309.335C795.256 311.079 796.251 313.443 796.272 315.916V762.665C796.272 765.152 795.287 767.537 793.531 769.299C791.776 771.06 789.394 772.054 786.907 772.063ZM469.082 306.929C466.7 306.934 464.417 307.882 462.732 309.566C461.048 311.251 460.1 313.534 460.096 315.916V762.665C460.1 765.047 461.048 767.33 462.732 769.015C464.417 770.699 466.7 771.647 469.082 771.652H786.907C789.289 771.647 791.572 770.699 793.257 769.015C794.941 767.33 795.889 765.047 795.894 762.665V315.916C795.889 313.534 794.941 311.251 793.257 309.566C791.572 307.882 789.289 306.934 786.907 306.929H469.082Z" fill="#EBEBEB"/>
<path d="M632.208 529.209C679.858 529.209 718.486 490.581 718.486 442.931C718.486 395.28 679.858 356.652 632.208 356.652C584.557 356.652 545.929 395.28 545.929 442.931C545.929 490.581 584.557 529.209 632.208 529.209Z" fill="#E0E0E0"/>
<path d="M625.657 529.209C673.308 529.209 711.936 490.581 711.936 442.931C711.936 395.28 673.308 356.652 625.657 356.652C578.007 356.652 539.379 395.28 539.379 442.931C539.379 490.581 578.007 529.209 625.657 529.209Z" fill="#F5F5F5"/>
<path d="M682.051 499.33C713.193 468.188 713.193 417.697 682.051 386.555C650.909 355.413 600.418 355.413 569.276 386.555C538.134 417.697 538.134 468.188 569.276 499.33C600.418 530.472 650.909 530.472 682.051 499.33Z" fill="white"/>
<path d="M639.253 500.966C638.819 500.966 638.398 500.82 638.057 500.551C637.717 500.282 637.477 499.906 637.377 499.484L623.781 443.392C623.685 442.901 623.782 442.393 624.051 441.972C624.32 441.551 624.741 441.25 625.226 441.131C625.711 441.013 626.224 441.086 626.656 441.335C627.089 441.584 627.41 441.991 627.551 442.47L641.129 498.579C641.248 499.079 641.164 499.605 640.896 500.043C640.628 500.481 640.197 500.795 639.697 500.916C639.551 500.949 639.402 500.965 639.253 500.966Z" fill="#F5F5F5"/>
<path d="M625.657 446.799C625.15 446.799 624.647 446.699 624.178 446.504C623.709 446.309 623.283 446.023 622.925 445.663L576.264 399.001C575.905 398.642 575.62 398.215 575.427 397.745C575.233 397.275 575.134 396.772 575.134 396.263C575.136 395.237 575.545 394.253 576.272 393.529C576.999 392.804 577.984 392.398 579.01 392.4C580.036 392.401 581.02 392.81 581.744 393.537L625.657 437.466L651.284 411.84C652.011 411.115 652.996 410.709 654.022 410.71C655.049 410.712 656.032 411.121 656.757 411.848C657.481 412.575 657.888 413.56 657.886 414.586C657.885 415.612 657.475 416.596 656.749 417.32L628.39 445.663C627.665 446.389 626.683 446.797 625.657 446.799Z" fill="#EBEBEB"/>
<path d="M405.369 833.455H418.372V744.411H405.369V833.455Z" fill="#F0F0F0"/>
<path d="M142.369 845.471H409.796V833.455H142.369V845.471Z" fill="#F0F0F0"/>
<path d="M405.369 744.412H133.777V833.456H405.369V744.412Z" fill="#F5F5F5"/>
<path d="M387.791 759.916H151.339V810.775H387.791V759.916Z" fill="#F0F0F0"/>
<path d="M212.057 766.714H327.106C329.26 766.714 331.007 764.967 331.007 762.813V762.089C331.007 759.935 329.26 758.188 327.106 758.188H212.057C209.903 758.188 208.156 759.935 208.156 762.089V762.813C208.156 764.967 209.903 766.714 212.057 766.714Z" fill="#F5F5F5"/>
<path d="M127.819 744.412H405.369V736.462H127.819V744.412Z" fill="#F0F0F0"/>
<path d="M424.609 736.462H405.369V744.412H424.609V736.462Z" fill="#D7D7D7"/>
<path d="M748.031 650.397H722.684V845.47H748.031V650.397Z" fill="#F0F0F0"/>
<path d="M500.832 845.471H722.684V650.397H500.832V845.471Z" fill="#F5F5F5"/>
<path d="M498.808 828.337H693.584V724.002H498.808V828.337Z" fill="#FAFAFA"/>
<path d="M498.808 712.943H693.584V678.592H498.808V712.943Z" fill="#FAFAFA"/>
<g style="mix-blend-mode:multiply" opacity="0.7">
<path d="M695.329 724.003H693.584V828.337H695.329V724.003Z" fill="#D7D7D7"/>
</g>
<g style="mix-blend-mode:multiply" opacity="0.7">
<path d="M695.329 678.592H693.584V712.942H695.329V678.592Z" fill="#D7D7D7"/>
</g>
<g style="mix-blend-mode:multiply" opacity="0.7">
<path d="M748.031 658.627H500.272V663.038H748.031V658.627Z" fill="#D7D7D7"/>
</g>
<path d="M750.994 647.731H722.684V660.487H750.994V647.731Z" fill="#F0F0F0"/>
<path d="M497.869 660.487H722.684V647.731H497.869V660.487Z" fill="#F5F5F5"/>
<path d="M582.205 610.171C580.676 607.762 579.667 605.06 579.242 602.238C578.796 599.42 578.653 596.561 578.814 593.712C579.167 588.043 580.377 582.461 582.403 577.154C583.367 574.521 584.466 571.939 585.694 569.419C587.011 566.95 588.328 564.481 589.809 562.127C591.29 559.774 592.92 557.502 594.599 555.297C596.278 553.091 598.17 551.034 600.129 549.042C599.174 551.692 598.039 554.194 596.837 556.696C595.636 559.198 594.697 561.716 593.545 564.152L590.352 571.558L588.887 575.295L588.13 577.154L587.472 579.031C585.592 583.976 584.1 589.061 583.011 594.239C582.446 596.826 582.061 599.449 581.859 602.09C581.614 604.787 581.73 607.505 582.205 610.171Z" fill="#D7D7D7"/>
<path d="M550.258 614.533C550.47 610.559 550.121 606.576 549.222 602.699C548.38 599.165 546.729 595.875 544.399 593.087C541.915 590.324 538.976 588.009 535.709 586.24C532.335 584.281 528.615 582.751 524.78 580.94C529.041 580.486 533.351 580.946 537.42 582.29C539.523 582.978 541.534 583.918 543.411 585.088C545.331 586.324 547.065 587.826 548.563 589.548C551.552 593.074 553.289 597.49 553.501 602.107C553.728 606.484 552.595 610.825 550.258 614.533Z" fill="#D7D7D7"/>
<path d="M551.691 613.957C551.551 609.326 551.117 604.708 550.391 600.132C549.711 595.77 548.501 591.509 546.786 587.442C545.071 583.443 542.713 579.751 539.807 576.513C536.671 573.164 533.183 570.162 529.405 567.559C534.273 568.314 538.864 570.309 542.737 573.353C546.707 576.506 549.825 580.603 551.806 585.269C553.76 589.861 554.73 594.812 554.654 599.802C554.682 604.678 553.672 609.503 551.691 613.957Z" fill="#D7D7D7"/>
<path d="M580.016 605.547C576.441 600.907 573.404 595.877 570.964 590.552C568.483 585.242 566.441 579.737 564.857 574.093C563.255 568.435 562.192 562.637 561.681 556.778C561.142 550.921 561.413 545.016 562.487 539.233C563.689 545.01 564.611 550.59 565.927 556.136C567.244 561.683 568.561 567.148 570.124 572.595C571.688 578.043 573.268 583.491 574.963 588.939C576.659 594.387 578.387 599.918 580.016 605.547Z" fill="#D7D7D7"/>
<path d="M578.534 605.135C574.46 601.15 570.829 596.735 567.704 591.968C564.576 587.214 561.824 582.223 559.475 577.039C557.093 571.844 555.197 566.439 553.813 560.893C552.412 555.338 551.775 549.618 551.92 543.891C553.994 549.257 555.788 554.458 557.911 559.576C560.034 564.695 562.141 569.765 564.495 574.785C566.849 579.805 569.12 584.808 571.523 589.845C573.926 594.881 576.247 599.901 578.534 605.135Z" fill="#D7D7D7"/>
<path d="M584.658 610.402C580.043 607.958 575.757 604.939 571.902 601.415C568.02 597.916 564.477 594.058 561.319 589.894C558.097 585.752 555.337 581.271 553.089 576.529C550.84 571.792 549.341 566.733 548.646 561.535C551.476 565.963 553.978 570.291 556.875 574.423C559.772 578.554 562.57 582.652 565.648 586.586C568.726 590.519 571.803 594.47 574.997 598.387C578.19 602.304 581.432 606.287 584.658 610.402Z" fill="#D7D7D7"/>
<path d="M575.72 605.168C571.236 603.322 567.079 600.765 563.409 597.597C559.706 594.482 556.391 590.934 553.533 587.03C552.082 585.082 550.741 583.055 549.517 580.956C548.326 578.828 547.265 576.63 546.341 574.373C544.447 569.902 543.286 565.156 542.901 560.317C545.485 564.448 547.608 568.546 550.176 572.398C551.328 574.389 552.711 576.233 553.912 578.175C555.114 580.117 556.513 581.927 557.928 583.738C560.649 587.403 563.502 590.996 566.487 594.519C569.384 598.09 572.428 601.563 575.72 605.168Z" fill="#D7D7D7"/>
<path d="M582.732 607.982C580.603 606.48 578.901 604.449 577.794 602.09C576.651 599.735 575.847 597.231 575.408 594.65C574.585 589.534 574.73 584.308 575.836 579.245C576.368 576.76 577.027 574.305 577.811 571.887C578.749 569.534 579.588 567.147 580.707 564.892C581.827 562.637 583.012 560.432 584.345 558.309C585.716 556.205 587.194 554.172 588.772 552.219C588.246 554.704 587.505 557.058 586.797 559.412C586.09 561.765 585.497 564.135 584.723 566.423C583.95 568.711 583.489 571.081 582.781 573.369L581.975 576.842C581.695 577.994 581.366 579.146 581.201 580.315C580.208 584.884 579.701 589.546 579.687 594.222C579.666 596.558 579.876 598.89 580.312 601.185C580.724 603.572 581.542 605.872 582.732 607.982Z" fill="#D7D7D7"/>
<path d="M579.67 602.732C576.062 598.875 573.447 594.198 572.05 589.104C570.53 583.961 570.044 578.569 570.618 573.237C570.7 571.904 571.029 570.604 571.243 569.287L571.622 567.312L572.198 565.403C572.626 564.135 572.988 562.868 573.465 561.634C573.943 560.399 574.568 559.214 575.111 558.029L576 556.268L577.07 554.622L579.243 551.33C580.867 549.304 582.621 547.386 584.493 545.586C583.637 548.071 582.501 550.326 581.58 552.663L580.279 556.169L579.621 557.815L579.094 559.593C578.749 560.761 578.387 561.93 578.008 563.082L577.202 566.621L576.774 568.382L576.527 570.159C576.379 571.345 576.082 572.53 576.017 573.715C575.515 578.506 575.581 583.34 576.214 588.116C576.824 593.101 577.983 598.002 579.67 602.732Z" fill="#D7D7D7"/>
<path d="M572.725 600.724L549.139 579.738L552.628 608.229L572.725 600.724Z" fill="#D7D7D7"/>
<path d="M527.265 596.889H595.702L586.732 647.731H536.235L527.265 596.889Z" fill="#F5F5F5"/>
<path d="M570.026 596.889H595.702L586.732 647.731H573.252L570.026 596.889Z" fill="#EBEBEB"/>
<path d="M656.139 610.27C656.461 608.023 656.366 605.735 655.859 603.522C655.424 601.404 654.744 599.344 653.835 597.383C651.99 593.447 649.651 589.764 646.872 586.421C646.247 585.516 645.441 584.775 644.733 583.903C644.025 583.031 643.301 582.257 642.544 581.385C640.898 579.739 639.482 578.093 637.853 576.447C636.223 574.801 634.66 573.155 633.014 571.509C631.368 569.863 629.722 568.218 628.076 566.423C630.298 567.263 632.405 568.3 634.545 569.353C636.621 570.495 638.637 571.742 640.585 573.089C641.567 573.762 642.512 574.487 643.416 575.262C644.338 576.019 645.243 576.809 646.148 577.583C647.903 579.239 649.552 581.003 651.086 582.866C654.247 586.672 656.553 591.111 657.851 595.885C658.475 598.301 658.692 600.804 658.493 603.292C658.381 605.793 657.565 608.212 656.139 610.27Z" fill="#D7D7D7"/>
<path d="M694.621 603.374C692.886 601.879 691.604 599.929 690.918 597.745C690.537 596.62 690.289 595.454 690.177 594.272C690.144 593.669 690.144 593.065 690.177 592.462C690.158 591.859 690.213 591.256 690.342 590.667C691.308 585.986 693.755 581.739 697.32 578.554C698.143 577.747 699.081 577.105 699.954 576.381C700.822 575.66 701.746 575.011 702.719 574.439C703.673 573.879 704.628 573.303 705.616 572.793C706.093 572.53 706.57 572.233 707.081 572.003L708.595 571.361C709.615 570.933 710.636 570.538 711.656 570.143C712.671 569.732 713.717 569.402 714.783 569.155C716.904 568.603 719.052 568.164 721.219 567.839C719.517 569.187 717.742 570.439 715.903 571.591C714.997 572.135 714.141 572.744 713.286 573.369C712.43 573.994 711.64 574.554 710.685 575.13C708.891 576.2 707.393 577.566 705.747 578.718C704.925 579.294 704.145 579.927 703.41 580.611C702.653 581.269 701.764 581.862 701.139 582.553C698.288 585.073 696.038 588.2 694.555 591.704C694.241 592.586 693.988 593.488 693.798 594.404C693.646 595.356 693.569 596.319 693.568 597.284C693.567 599.359 693.923 601.419 694.621 603.374Z" fill="#D7D7D7"/>
<path d="M692.86 603.374C689.887 599.501 688.268 594.76 688.251 589.877C688.183 584.877 689.456 579.949 691.938 575.607L693.913 572.48C694.67 571.509 695.477 570.587 696.283 569.666L697.518 568.3L698.867 567.115L701.632 564.794C703.587 563.438 705.614 562.191 707.706 561.058C709.853 560.084 712.05 559.227 714.289 558.49C712.644 560.235 710.998 561.782 709.236 563.263C707.475 564.744 706.043 566.44 704.496 568.003C703.772 568.859 703.064 569.649 702.324 570.489L701.221 571.69L700.283 573.007C699.657 573.879 698.966 574.653 698.357 575.575L696.711 578.29C694.624 581.953 693.214 585.962 692.547 590.124C691.865 594.525 691.971 599.011 692.86 603.374Z" fill="#D7D7D7"/>
<path d="M658.247 605.81C659.613 600.724 661.094 595.819 662.526 590.997C663.958 586.174 665.357 581.253 666.641 576.381C667.924 571.509 668.994 566.604 669.932 561.568C670.871 556.531 671.381 551.692 671.825 546.36C673.555 551.386 674.369 556.682 674.228 561.996C674.03 567.286 673.263 572.539 671.941 577.665C670.598 582.76 668.785 587.719 666.526 592.478C664.317 597.241 661.537 601.718 658.247 605.81Z" fill="#D7D7D7"/>
<path d="M659.958 604.987C662.098 600.049 664.402 595.111 666.673 590.388C668.945 585.664 671.232 580.858 673.422 576.085C675.611 571.312 677.717 566.522 679.676 561.667C681.635 556.811 683.313 551.791 684.959 546.623C685.468 552.087 685.074 557.598 683.791 562.934C682.493 568.24 680.69 573.409 678.409 578.372C676.117 583.296 673.436 588.029 670.393 592.527C667.379 597.048 663.88 601.226 659.958 604.987Z" fill="#D7D7D7"/>
<path d="M653.259 611.258C656.469 606.847 659.843 602.682 663.135 598.518C666.427 594.354 669.718 590.289 672.911 586.092C676.104 581.895 679.232 577.73 682.227 573.418C685.223 569.106 687.955 564.662 690.737 559.955C690.008 565.394 688.39 570.676 685.947 575.591C683.5 580.472 680.589 585.107 677.257 589.433C673.921 593.717 670.25 597.729 666.278 601.432C662.31 605.172 657.944 608.467 653.259 611.258Z" fill="#D7D7D7"/>
<path d="M663.333 604.082C666.476 600.148 669.62 596.428 672.714 592.659C675.808 588.89 678.804 585.154 681.734 581.352C684.663 577.55 687.379 573.632 689.963 569.633C692.547 565.633 694.901 561.403 697.436 557.025C697.066 562.085 695.818 567.042 693.749 571.674C691.688 576.299 689.086 580.664 685.997 584.677C682.935 588.669 679.484 592.347 675.693 595.655C671.963 598.997 667.807 601.831 663.333 604.082Z" fill="#D7D7D7"/>
<path d="M655.284 608.674C657.07 605.104 657.93 601.142 657.785 597.152C657.568 593.345 656.594 589.618 654.921 586.191L654.362 584.857L653.654 583.574L652.272 580.973C651.169 579.327 650.181 577.566 648.98 575.871C647.778 574.176 646.692 572.48 645.474 570.785C644.195 569.08 643.003 567.311 641.902 565.485C643.795 566.526 645.63 567.669 647.4 568.909C649.126 570.223 650.774 571.635 652.337 573.139C653.118 573.903 653.849 574.717 654.526 575.575C655.229 576.419 655.92 577.275 656.6 578.142L658.361 580.99L659.201 582.438L659.892 583.985C661.9 588.157 662.644 592.826 662.032 597.416C661.739 599.655 660.989 601.81 659.828 603.747C658.668 605.683 657.121 607.361 655.284 608.674Z" fill="#D7D7D7"/>
<path d="M658.345 603.423C659.699 599.344 660.626 595.136 661.11 590.865C661.555 586.884 661.259 582.855 660.238 578.982C659.725 577.072 659.007 575.224 658.098 573.468C657.193 571.657 656.124 569.933 654.905 568.316C652.285 564.892 649.413 561.668 646.313 558.671C650.724 559.977 654.766 562.3 658.115 565.452C659.861 567.059 661.378 568.897 662.624 570.917C663.909 572.957 664.885 575.175 665.521 577.5C666.761 582.153 666.687 587.058 665.307 591.672C664.06 596.133 661.659 600.187 658.345 603.423Z" fill="#D7D7D7"/>
<path d="M666.394 599.523L692.136 574.801L691.099 599.046L666.394 599.523Z" fill="#D7D7D7"/>
<path d="M638.232 596.889H706.669L697.699 647.731H647.203L638.232 596.889Z" fill="#F5F5F5"/>
<path d="M680.976 596.889H706.669L697.698 647.731H684.219L680.976 596.889Z" fill="#EBEBEB"/>
<path d="M211.761 365.392V632.029C211.761 643.117 207.356 653.751 199.516 661.591C191.676 669.431 181.042 673.835 169.955 673.835H364.172C375.261 673.835 385.896 669.431 393.739 661.592C401.582 653.752 405.99 643.119 405.994 632.029V365.392H211.761Z" fill="#F5F5F5"/>
<path d="M375.512 432.891H250.012V558.391H375.512V432.891Z" fill="#F0F0F0"/>
<path d="M371.66 429.023H246.16V554.523H371.66V429.023Z" fill="white"/>
<path d="M276.971 573.106H245.057V605.02H276.971V573.106Z" fill="white"/>
<path d="M371.644 573.106H339.73V605.02H371.644V573.106Z" fill="white"/>
<path d="M324.308 573.106H292.394V605.02H324.308V573.106Z" fill="white"/>
<path d="M406.027 365.392H211.76V397.125H406.027V365.392Z" fill="#F0F0F0"/>
<path d="M223.496 355.204V375.58C223.494 376.327 223.639 377.066 223.924 377.756C224.208 378.446 224.626 379.073 225.154 379.6C225.682 380.128 226.309 380.546 226.999 380.831C227.689 381.115 228.428 381.261 229.174 381.259C229.92 381.259 230.658 381.112 231.347 380.826C232.036 380.541 232.662 380.123 233.189 379.595C233.717 379.068 234.135 378.442 234.42 377.753C234.706 377.064 234.853 376.326 234.853 375.58V355.204C234.848 353.699 234.249 352.257 233.185 351.193C232.121 350.13 230.679 349.53 229.174 349.526C227.668 349.526 226.224 350.124 225.159 351.189C224.094 352.254 223.496 353.698 223.496 355.204Z" fill="#D7D7D7"/>
<path d="M383.018 355.204V375.58C383.018 377.086 383.616 378.531 384.681 379.595C385.746 380.66 387.19 381.259 388.696 381.259C389.442 381.261 390.182 381.115 390.872 380.831C391.561 380.546 392.188 380.128 392.716 379.6C393.244 379.073 393.662 378.446 393.947 377.756C394.231 377.066 394.377 376.327 394.374 375.58V355.204C394.374 353.698 393.776 352.254 392.711 351.189C391.646 350.124 390.202 349.526 388.696 349.526C387.191 349.53 385.75 350.13 384.686 351.193C383.622 352.257 383.022 353.699 383.018 355.204Z" fill="#D7D7D7"/>
<path d="M351.103 355.204V375.58C351.103 376.326 351.25 377.064 351.535 377.753C351.821 378.442 352.239 379.068 352.766 379.595C353.293 380.123 353.919 380.541 354.608 380.826C355.297 381.112 356.036 381.259 356.781 381.259C357.527 381.259 358.266 381.112 358.954 380.826C359.643 380.541 360.269 380.123 360.797 379.595C361.324 379.068 361.742 378.442 362.028 377.753C362.313 377.064 362.46 376.326 362.46 375.58V355.204C362.456 353.705 361.86 352.268 360.804 351.205C359.747 350.142 358.313 349.539 356.814 349.526C356.066 349.523 355.326 349.669 354.634 349.953C353.942 350.237 353.313 350.655 352.783 351.182C352.252 351.709 351.831 352.336 351.543 353.026C351.255 353.716 351.105 354.456 351.103 355.204Z" fill="#D7D7D7"/>
<path d="M319.189 355.204V375.58C319.187 376.327 319.332 377.066 319.617 377.756C319.902 378.446 320.32 379.073 320.848 379.6C321.375 380.128 322.002 380.546 322.692 380.831C323.382 381.115 324.121 381.261 324.868 381.259C326.364 381.246 327.794 380.641 328.845 379.577C329.897 378.513 330.485 377.076 330.48 375.58V355.204C330.48 353.701 329.884 352.259 328.823 351.194C327.761 350.13 326.321 349.53 324.818 349.526C323.321 349.539 321.889 350.143 320.835 351.206C319.781 352.27 319.189 353.706 319.189 355.204Z" fill="#D7D7D7"/>
<path d="M287.275 355.204V375.58C287.273 376.325 287.418 377.063 287.701 377.752C287.985 378.441 288.401 379.067 288.927 379.594C289.453 380.122 290.078 380.541 290.766 380.826C291.454 381.112 292.192 381.259 292.937 381.259C293.683 381.261 294.423 381.115 295.112 380.831C295.802 380.546 296.429 380.128 296.957 379.6C297.485 379.073 297.903 378.446 298.187 377.756C298.472 377.066 298.617 376.327 298.615 375.58V355.204C298.615 353.698 298.017 352.254 296.952 351.189C295.887 350.124 294.443 349.526 292.937 349.526C291.434 349.53 289.994 350.13 288.932 351.194C287.871 352.259 287.275 353.701 287.275 355.204Z" fill="#D7D7D7"/>
<path d="M255.344 355.204V375.58C255.344 376.326 255.491 377.064 255.777 377.753C256.062 378.442 256.48 379.068 257.008 379.595C257.535 380.123 258.161 380.541 258.85 380.826C259.539 381.112 260.277 381.259 261.023 381.259C261.769 381.259 262.507 381.112 263.196 380.826C263.885 380.541 264.511 380.123 265.038 379.595C265.565 379.068 265.984 378.442 266.269 377.753C266.554 377.064 266.701 376.326 266.701 375.58V355.204C266.697 353.699 266.097 352.257 265.033 351.193C263.969 350.13 262.528 349.53 261.023 349.526C259.518 349.53 258.076 350.13 257.012 351.193C255.948 352.257 255.349 353.699 255.344 355.204Z" fill="#D7D7D7"/>
<path d="M346.725 656.257C346.725 660.897 348.569 665.347 351.85 668.629C355.131 671.91 359.581 673.753 364.221 673.753H145.628C140.988 673.753 136.538 671.91 133.257 668.629C129.975 665.347 128.132 660.897 128.132 656.257H346.725Z" fill="#D7D7D7"/>
<path d="M452.277 919.8C628.525 919.8 771.403 911.458 771.403 901.168C771.403 890.878 628.525 882.536 452.277 882.536C276.029 882.536 133.152 890.878 133.152 901.168C133.152 911.458 276.029 919.8 452.277 919.8Z" fill="#F5F5F5"/>
<path opacity="0.2" d="M484.52 743.968C484.52 743.968 363.562 815.384 363.562 883.047H605.511C605.495 815.384 484.52 743.968 484.52 743.968Z" fill="#285580"/>
<path opacity="0.2" d="M484.521 829.176C484.521 829.176 372.83 856.844 372.83 883.047H596.212C596.212 856.844 484.521 829.176 484.521 829.176Z" fill="#285580"/>
<path opacity="0.3" d="M499.203 763.685C521.916 786.02 566.059 835.513 566.059 883.046H535.791C535.791 835.513 511.629 786.02 499.203 763.685Z" fill="white"/>
<path opacity="0.2" d="M484.52 743.967C484.52 743.967 363.562 672.551 363.562 604.888H605.511C605.495 672.551 484.52 743.967 484.52 743.967Z" fill="#285580"/>
<path opacity="0.2" d="M484.521 737.449C484.521 737.449 422.767 707.823 422.767 679.678H546.292C546.292 707.774 484.521 737.449 484.521 737.449Z" fill="#285580"/>
<path opacity="0.3" d="M471.337 724.249C448.64 701.914 404.546 652.422 404.546 604.888H434.814C434.748 652.422 458.861 701.914 471.337 724.249Z" fill="white"/>
<path opacity="0.3" d="M499.203 724.249C521.916 701.914 564.957 646.694 566.059 604.888H557.995C554.209 655.862 517.176 702.638 499.203 724.249Z" fill="white"/>
<path d="M589.069 581.006H575.359V582.652H589.069V581.006Z" fill="#285580"/>
<path d="M635.615 603.621H633.969C633.965 598.064 631.757 592.735 627.829 588.804C623.901 584.873 618.574 582.661 613.017 582.652H598.549V581.006H613.017C619.009 581.019 624.752 583.407 628.988 587.645C633.223 591.884 635.607 597.629 635.615 603.621Z" fill="#285580"/>
<path d="M613 586.767H356.041C346.733 586.767 339.187 594.313 339.187 603.621V606.156C339.187 615.464 346.733 623.01 356.041 623.01H613C622.309 623.01 629.855 615.464 629.855 606.156V603.621C629.855 594.313 622.309 586.767 613 586.767Z" fill="#285580"/>
<path d="M613 864.925H356.041C346.733 864.925 339.187 872.471 339.187 881.779V884.314C339.187 893.622 346.733 901.168 356.041 901.168H613C622.309 901.168 629.855 893.622 629.855 884.314V881.779C629.855 872.471 622.309 864.925 613 864.925Z" fill="#285580"/>
<path d="M272.412 717.287L261.253 707.379L280.28 678.164L291.439 688.056L272.412 717.287Z" fill="#FF8B7B"/>
<path d="M263.557 701.091L277.745 710.967C277.866 711.042 277.971 711.141 278.054 711.257C278.137 711.373 278.196 711.505 278.228 711.644C278.26 711.783 278.265 711.927 278.241 712.068C278.217 712.209 278.166 712.343 278.091 712.464L270.98 724.183C270.571 724.773 269.946 725.177 269.241 725.31C268.535 725.442 267.806 725.292 267.211 724.891C262.273 721.385 260.446 719.674 254.538 714.9C248.697 710.31 243.094 705.427 237.749 700.268C233.371 695.726 237.996 691.331 240.317 692.895C245.798 696.614 255.328 700.713 260.841 700.383C261.801 700.307 262.757 700.557 263.557 701.091Z" fill="#263238"/>
<path opacity="0.2" d="M291.423 688.072L280.264 678.164L271.112 692.236L282.551 701.733L291.423 688.072Z" fill="black"/>
<path d="M404.958 542.13C404.958 542.13 330.069 537.011 320.786 562.391C299.669 620.096 272.199 681.308 272.199 681.308L294.271 697.289C294.271 697.289 340.932 625.939 355.169 580.134C383.973 587.129 436.049 593.103 452.821 573.846C467.14 557.387 456.426 542.13 456.426 542.13H404.958Z" fill="#263238"/>
<path opacity="0.3" d="M340.816 586.98C339.072 594.025 336.422 614.204 334.776 627.585C338.413 620.54 341.87 613.397 344.981 606.419L340.816 586.98Z" fill="black"/>
<path d="M292.855 704.515L267.82 684.896L272.939 673.901L300.92 695.281L292.855 704.515Z" fill="#285580"/>
<path d="M257.55 700.186C258.711 700.942 259.946 701.577 261.237 702.079C261.301 702.101 261.37 702.105 261.437 702.09C261.503 702.075 261.564 702.041 261.612 701.993C261.66 701.945 261.693 701.884 261.709 701.818C261.724 701.752 261.72 701.683 261.698 701.618C261.484 701.059 259.607 696.137 257.649 695.66C257.424 695.609 257.19 695.615 256.969 695.678C256.747 695.741 256.545 695.86 256.381 696.022C256.106 696.24 255.893 696.527 255.763 696.853C255.633 697.18 255.591 697.534 255.641 697.882C255.974 698.858 256.653 699.678 257.55 700.186ZM260.727 701.092C258.143 699.972 256.53 698.738 256.349 697.8C256.32 697.571 256.354 697.338 256.447 697.127C256.54 696.915 256.688 696.733 256.875 696.598C256.951 696.516 257.048 696.456 257.155 696.425C257.262 696.393 257.376 696.39 257.484 696.417C258.538 696.681 259.904 699.133 260.727 701.092Z" fill="#285580"/>
<path d="M261.154 702.029C261.208 702.045 261.265 702.045 261.319 702.029C261.38 702.036 261.443 702.027 261.5 702.005C261.557 701.982 261.608 701.945 261.648 701.898C261.763 701.766 264.561 698.326 264.15 696.203C264.096 695.931 263.98 695.676 263.812 695.456C263.643 695.237 263.427 695.059 263.179 694.936C262.926 694.777 262.628 694.706 262.331 694.733C262.034 694.759 261.753 694.883 261.533 695.084C260.282 696.252 260.331 700.202 261.072 701.832C261.083 701.903 261.111 701.971 261.154 702.029ZM262.981 695.726C263.1 695.804 263.202 695.906 263.282 696.025C263.361 696.143 263.415 696.277 263.442 696.417C263.689 697.668 262.356 699.824 261.484 701.009C261.023 699.363 261.171 696.433 261.977 695.676C262.142 695.528 262.372 695.38 262.85 695.676L262.981 695.726Z" fill="#285580"/>
<path d="M370.805 734.553L356.403 737.433L353.737 698.87L368.369 699.33L370.805 734.553Z" fill="#FF8B7B"/>
<path d="M354.444 732.166L370.903 725.237C371.038 725.17 371.185 725.132 371.334 725.123C371.484 725.115 371.634 725.137 371.776 725.187C371.917 725.238 372.047 725.317 372.157 725.418C372.267 725.52 372.356 725.643 372.418 725.78L378.705 738.42C378.993 739.104 379 739.874 378.726 740.563C378.452 741.253 377.919 741.807 377.24 742.107C371.479 744.428 368.616 745.234 361.39 748.296C356.946 750.172 344.931 755.604 338.512 757.2C332.093 758.797 330.644 752.361 333.245 751.11C339.401 748.148 349.605 739.112 352.354 734.125C352.822 733.264 353.555 732.577 354.444 732.166Z" fill="#263238"/>
<path d="M350.346 736.906C351.643 736.314 352.873 735.585 354.016 734.734C354.073 734.69 354.117 734.632 354.143 734.565C354.169 734.498 354.176 734.426 354.164 734.355C354.145 734.286 354.107 734.223 354.055 734.174C354.003 734.125 353.938 734.091 353.868 734.075C353.276 733.944 347.943 732.874 346.445 734.322C346.274 734.487 346.15 734.694 346.083 734.922C346.017 735.15 346.011 735.392 346.066 735.622C346.103 735.979 346.234 736.318 346.445 736.608C346.656 736.897 346.94 737.125 347.268 737.268C348.303 737.533 349.4 737.404 350.346 736.906ZM352.864 734.635C350.477 736.281 348.519 736.989 347.548 736.61C347.331 736.511 347.146 736.354 347.012 736.156C346.879 735.959 346.802 735.729 346.791 735.491C346.759 735.379 346.757 735.26 346.786 735.148C346.815 735.035 346.873 734.932 346.955 734.849C347.762 734.075 350.724 734.273 352.864 734.635Z" fill="#285580"/>
<path d="M353.934 734.783C353.99 734.754 354.041 734.715 354.082 734.668C354.11 734.614 354.124 734.555 354.124 734.495C354.124 734.435 354.11 734.376 354.082 734.322C354.082 734.141 352.568 729.796 350.494 728.989C350.228 728.883 349.94 728.841 349.654 728.867C349.368 728.892 349.092 728.985 348.848 729.138C348.56 729.266 348.324 729.49 348.18 729.772C348.036 730.053 347.993 730.375 348.058 730.685C348.388 732.331 351.86 734.553 353.687 734.799C353.769 734.826 353.857 734.82 353.934 734.783ZM349.441 729.697C349.576 729.64 349.722 729.611 349.869 729.611C350.016 729.611 350.161 729.64 350.297 729.697C351.531 730.174 352.667 732.528 353.227 733.944C351.581 733.4 349.062 731.705 348.848 730.553C348.848 730.339 348.848 730.059 349.293 729.796L349.441 729.697Z" fill="#285580"/>
<path opacity="0.2" d="M368.385 699.347L353.737 698.87L355.136 719.015L369.719 718.752L368.385 699.347Z" fill="black"/>
<path d="M441.332 542.129C441.332 542.129 334.348 552.251 338.2 584.462C343.829 630.926 347.943 712.283 347.943 712.283L375.216 713.353C375.216 713.353 385.454 641.822 379.463 594.238C407.163 594.238 467.338 595.703 477.921 581.384C490.479 564.398 484.669 542.129 484.669 542.129H441.332Z" fill="#263238"/>
<path d="M378.228 715.032L345.491 713.403L344.323 699.166L380.22 701.635L378.228 715.032Z" fill="#285580"/>
<path d="M417.582 447.803C417.351 450.749 417.088 453.366 416.726 456.114C416.364 458.863 416.018 461.546 415.59 464.262C414.8 469.677 413.714 475.059 412.496 480.474C411.278 485.889 409.78 491.287 407.904 496.735C405.999 502.467 403.5 507.983 400.448 513.195C398.625 516.261 396.412 519.077 393.864 521.572C393.189 522.203 392.48 522.796 391.741 523.35C391.066 523.909 390.391 524.387 389.7 524.864C388.384 525.792 387.015 526.644 385.602 527.415C380.382 530.255 374.861 532.502 369.142 534.114C366.427 534.953 363.695 535.628 360.913 536.237C358.131 536.846 355.481 537.373 352.683 537.801C347.237 538.692 341.74 539.242 336.224 539.447C334.865 539.504 333.53 539.067 332.468 538.217C331.405 537.366 330.687 536.159 330.446 534.82C330.205 533.48 330.458 532.099 331.157 530.931C331.856 529.763 332.955 528.889 334.249 528.469L334.463 528.386C344.115 525.333 353.584 521.728 362.822 517.589C367.07 515.667 371.136 513.364 374.969 510.709C375.841 510.084 376.615 509.442 377.405 508.8C377.767 508.487 378.146 508.175 378.458 507.845C378.75 507.583 379.025 507.303 379.281 507.006C380.374 505.685 381.313 504.244 382.079 502.71C384.076 498.654 385.68 494.415 386.869 490.053C388.202 485.428 389.354 480.606 390.309 475.701C391.264 470.796 392.119 465.825 392.926 460.789C393.732 455.752 394.341 450.617 394.901 445.844V445.564C395.313 442.678 396.824 440.062 399.119 438.264C401.413 436.465 404.314 435.622 407.215 435.911C410.116 436.2 412.794 437.598 414.689 439.814C416.583 442.03 417.549 444.892 417.384 447.803H417.582Z" fill="#285580"/>
<path d="M336.767 525.505L328.538 526.016L335.121 541.158C335.121 541.158 349.359 540.845 349.062 533.834L346.495 530.542C345.32 529.064 343.846 527.852 342.169 526.984C340.493 526.116 338.652 525.612 336.767 525.505Z" fill="#FF8B7B"/>
<path d="M319.519 527.267L326.629 541.191H335.106L328.522 526.049L319.519 527.267Z" fill="#FF8B7B"/>
<path d="M416.397 424.463L432.312 421.172L444.986 419.345C446.797 419.049 448.636 418.966 450.467 419.098C455.33 419.539 459.944 421.453 463.691 424.586C467.437 427.718 470.139 431.918 471.436 436.627C474.612 448.148 477.476 462.286 479.665 474.812C482.727 492.209 484.307 518.346 484.603 542.113H409.204C407.558 499.073 398.407 471.339 395.296 454.139C394.359 448.947 395.155 443.59 397.561 438.894C399.967 434.198 403.85 430.423 408.611 428.15L416.397 424.463Z" fill="#285580"/>
<path d="M409.204 433.927C409.385 441.005 410.85 466.236 418.438 480.572C419.771 467.142 435.72 426.257 435.72 426.257L409.204 433.927Z" fill="#F5F5F5"/>
<path opacity="0.3" d="M481.394 486.629C481.394 486.366 481.394 486.119 481.295 485.839L481.147 484.654C481.065 484.012 480.982 483.37 480.9 482.761L480.653 481L480.406 479.354C480.406 478.894 480.258 478.416 480.192 477.972C480.028 476.918 479.863 475.898 479.682 474.894C479.139 471.816 478.563 468.623 477.937 465.414V465.15C477.312 461.858 476.67 458.682 475.979 455.472V455.258C475.699 453.876 475.403 452.526 475.09 451.16L474.744 449.646L474.152 447.029L473.658 444.988L473.559 444.56C472.901 441.861 472.226 439.211 471.535 436.709L460.096 430.685C461.412 435.738 462.663 441.301 463.848 446.996C462.479 447.712 461.216 448.615 460.096 449.679C457.363 452.115 457.462 457.299 460.194 463.438C467.758 480.993 471.945 499.816 472.539 518.922C472.884 526.674 473.098 534.525 473.197 542.146H484.718C484.389 523.267 483.336 502.924 481.394 486.629Z" fill="black"/>
<path d="M426.387 392.747L419.919 402.622L411.129 416.036C412.261 417.189 413.18 418.531 413.845 420.003C415.491 423.295 416.775 425.665 409.977 430.29C408.529 431.277 408.48 432.841 408.809 434.569C409.204 436.676 410.455 438.881 417.762 437.581C424.825 436.223 431.271 432.648 436.164 427.377C438.6 424.924 438.04 423.097 435.686 420.562C429.037 413.403 427.045 401.964 426.387 392.747Z" fill="#FF8B7B"/>
<path d="M410.85 437.828L415.508 440.758L423.079 437.548C421.294 435.747 418.994 434.545 416.496 434.108C414.319 434.83 412.372 436.113 410.85 437.828Z" fill="#263238"/>
<path d="M416.414 434.108C419.886 435.54 421.631 438.766 423.211 442.486C423.211 442.486 439.851 429.878 440.197 421.567C439.308 418.736 435.144 419.229 435.144 419.229C435.144 419.229 430.075 428.018 416.414 434.108Z" fill="white"/>
<path d="M416.413 434.109C414.791 434.765 413.412 435.91 412.469 437.384C411.525 438.858 411.063 440.59 411.146 442.338C411.146 442.338 403.74 433.648 409.764 427.08C411.398 426.223 413.135 425.576 414.932 425.155C414.932 425.155 413.122 428.776 416.413 434.109Z" fill="white"/>
<path d="M416.973 439.392H414.85C414.158 440.577 413.204 456.015 412.825 464.229C413.842 469.023 415.337 473.705 417.286 478.202C417.279 478.257 417.279 478.312 417.286 478.367C417.401 478.63 417.516 478.877 417.648 479.124C417.878 479.618 418.109 480.112 418.372 480.572C419.132 475.474 420.316 470.447 421.911 465.545C419.738 456.032 416.973 439.392 416.973 439.392Z" fill="#263238"/>
<path opacity="0.2" d="M413.302 412.728L418.701 403.165C418.799 403.396 418.931 403.676 419.063 403.939C419.536 405.133 419.921 406.359 420.215 407.609C421.203 411.872 417.911 417.929 414.273 420.777C414.125 420.513 413.993 420.233 413.845 419.954C413.198 418.572 412.361 417.287 411.36 416.135L411.146 415.971L413.302 412.728Z" fill="black"/>
<path d="M387.001 392.187C385.7 386.344 395 378.263 395 378.263L383.989 374.428C379.018 377.999 382.244 388.188 387.001 392.187Z" fill="#263238"/>
<path d="M424.1 375.3C426.7 389.916 429.038 398.343 423.54 407.675C421.818 410.739 419.29 413.274 416.23 415.005C413.17 416.736 409.696 417.597 406.182 417.496C402.668 417.394 399.249 416.333 396.294 414.428C393.34 412.523 390.963 409.846 389.42 406.687C383.248 394.639 380.039 372.782 392.597 363.186C395.258 361.04 398.437 359.632 401.814 359.102C405.191 358.572 408.648 358.938 411.839 360.165C415.03 361.392 417.842 363.436 419.994 366.093C422.146 368.749 423.562 371.924 424.1 375.3Z" fill="#FF8B7B"/>
<path d="M424.297 390.08L417.384 388.188V379.3C417.384 379.3 408.645 374.362 409.994 368.19C410.664 364.72 411.605 361.308 412.809 357.985C412.809 357.985 426.667 357.096 430.914 358.874C429.814 360.066 428.619 361.166 427.342 362.166C430.665 364.465 433.515 367.382 435.736 370.757C434.001 371.144 432.378 371.927 430.996 373.045C430.996 373.045 432.806 385.241 424.297 390.08Z" fill="#263238"/>
<path d="M408.398 348.505C413.484 351.698 410.538 357.557 410.538 357.557L424.149 357.837C423.425 353.541 411.624 348.291 408.398 348.505Z" fill="#263238"/>
<path d="M413.714 371.185C412.743 373.918 401.715 377.275 391.659 377.604C386.646 377.496 381.686 376.561 376.977 374.839C378.397 373.381 380.07 372.193 381.915 371.333C375.841 369.836 368.155 364.503 366.032 360.158C370.466 358.573 375.256 358.265 379.857 359.269C378.352 357.998 377.115 356.439 376.219 354.684C375.323 352.929 374.786 351.013 374.64 349.048C374.64 349.048 400.382 359.252 410.29 355.022C421.054 350.414 429.235 359.055 422.157 365.639C415.08 372.222 413.714 371.185 413.714 371.185Z" fill="#263238"/>
<path d="M431.968 385.883C432.108 389.107 431.059 392.27 429.021 394.771C426.355 397.948 422.207 395.413 421.253 391.479C420.397 387.908 421.516 382.394 425.022 380.682C428.528 378.97 431.786 381.884 431.968 385.883Z" fill="#FF8B7B"/>
<path d="M401.846 388.895C402.209 390.047 401.847 391.183 401.188 391.463C400.53 391.743 399.542 391.018 399.164 389.817C398.785 388.615 399.164 387.529 399.822 387.249C400.48 386.97 401.468 387.677 401.846 388.895Z" fill="#263238"/>
<path d="M389.092 393.504C389.454 394.64 389.092 395.792 388.433 396.055C387.775 396.318 386.787 395.627 386.409 394.409C386.03 393.191 386.409 392.121 387.067 391.858C387.726 391.595 388.713 392.352 389.092 393.504Z" fill="#263238"/>
<path d="M393.452 392.895C393.506 396.301 393.107 399.699 392.267 403.001C393.102 403.178 393.967 403.169 394.798 402.972C395.629 402.776 396.406 402.398 397.073 401.865L393.452 392.895Z" fill="#A02724"/>
<path d="M401.254 406.26C402.575 405.817 403.795 405.114 404.841 404.192C405.887 403.271 406.738 402.149 407.344 400.894C407.377 400.807 407.374 400.71 407.338 400.624C407.301 400.538 407.232 400.47 407.146 400.433C407.104 400.414 407.059 400.404 407.013 400.403C406.966 400.402 406.921 400.41 406.878 400.427C406.835 400.443 406.796 400.469 406.763 400.501C406.73 400.533 406.703 400.572 406.685 400.614C406.017 401.975 405.045 403.165 403.843 404.089C402.641 405.014 401.243 405.65 399.756 405.947C399.71 405.957 399.666 405.975 399.628 406.003C399.589 406.03 399.557 406.064 399.532 406.104C399.508 406.144 399.491 406.189 399.485 406.236C399.478 406.282 399.481 406.33 399.493 406.375C399.512 406.464 399.567 406.542 399.644 406.592C399.721 406.641 399.815 406.658 399.904 406.638C400.362 406.542 400.813 406.415 401.254 406.26Z" fill="#263238"/>
<path d="M404.678 382.147C404.779 382.087 404.864 382.002 404.924 381.9C404.977 381.824 405.013 381.738 405.031 381.648C405.049 381.557 405.049 381.464 405.031 381.373C405.012 381.283 404.976 381.197 404.924 381.12C404.872 381.044 404.805 380.979 404.727 380.929C403.802 380.31 402.739 379.927 401.632 379.812C400.525 379.697 399.406 379.855 398.374 380.271C398.289 380.311 398.214 380.367 398.151 380.436C398.089 380.506 398.04 380.586 398.009 380.674C397.978 380.762 397.964 380.855 397.969 380.949C397.973 381.042 397.996 381.133 398.036 381.217C398.076 381.302 398.133 381.377 398.202 381.44C398.271 381.502 398.352 381.551 398.44 381.582C398.528 381.613 398.621 381.627 398.714 381.622C398.807 381.618 398.898 381.595 398.983 381.555C399.79 381.242 400.66 381.129 401.521 381.226C402.381 381.324 403.204 381.629 403.92 382.114C404.031 382.191 404.16 382.235 404.294 382.241C404.428 382.247 404.561 382.214 404.678 382.147Z" fill="#263238"/>
<path d="M386.556 386.575C386.588 386.461 386.588 386.342 386.556 386.229C386.483 386.057 386.346 385.921 386.173 385.85C386 385.779 385.807 385.779 385.634 385.85C384.598 386.253 383.677 386.905 382.953 387.749C382.23 388.594 381.726 389.603 381.487 390.689C381.482 390.86 381.54 391.026 381.648 391.158C381.757 391.289 381.909 391.377 382.078 391.405C382.246 391.433 382.419 391.4 382.564 391.31C382.71 391.221 382.818 391.082 382.869 390.92C383.074 390.073 383.48 389.288 384.054 388.632C384.627 387.976 385.35 387.468 386.161 387.151C386.271 387.097 386.365 387.016 386.434 386.915C386.504 386.814 386.546 386.697 386.556 386.575Z" fill="#263238"/>
<path d="M467.93 429.549C469.74 431.788 471.32 433.812 472.867 435.968C474.415 438.124 476.028 440.264 477.542 442.453C480.62 446.815 483.484 451.341 486.282 455.95C489.08 460.558 491.68 465.364 494.017 470.45C496.554 475.726 498.566 481.239 500.025 486.909C500.844 490.205 501.275 493.586 501.309 496.982C501.268 500.378 500.781 503.753 499.86 507.022C498.221 512.713 495.83 518.16 492.75 523.218C491.335 525.637 489.804 527.958 488.207 530.197C486.611 532.435 484.915 534.608 483.27 536.698C479.834 540.901 476.099 544.851 472.094 548.516C471.092 549.409 469.804 549.915 468.462 549.945C467.12 549.974 465.811 549.525 464.771 548.676C463.73 547.828 463.026 546.637 462.785 545.317C462.543 543.996 462.78 542.633 463.453 541.471L463.601 541.224C468.712 532.932 473.18 524.26 476.966 515.285C478.664 511.24 479.901 507.016 480.653 502.693C480.928 500.958 481 499.196 480.867 497.443C480.668 495.709 480.293 493.999 479.747 492.341C478.324 488.132 476.534 484.057 474.398 480.161C472.209 476.03 469.74 471.931 467.107 467.767C464.473 463.603 461.708 459.538 458.877 455.538L454.548 449.514C453.1 447.556 451.586 445.465 450.22 443.671L450.121 443.54C448.266 441.187 447.421 438.193 447.773 435.218C448.125 432.242 449.644 429.528 451.997 427.673C454.35 425.818 457.344 424.973 460.319 425.325C463.295 425.677 466.009 427.196 467.864 429.549H467.93Z" fill="#285580"/>
<path d="M311.108 550.968L451.142 544.631C451.584 544.602 452.027 544.663 452.444 544.809C452.862 544.955 453.246 545.184 453.574 545.482C453.901 545.78 454.165 546.141 454.349 546.544C454.534 546.946 454.635 547.382 454.648 547.824L307.915 554.408C307.895 553.971 307.962 553.535 308.113 553.125C308.263 552.715 308.493 552.339 308.791 552.019C309.088 551.699 309.446 551.441 309.844 551.26C310.241 551.08 310.671 550.98 311.108 550.968Z" fill="#285580"/>
<g opacity="0.6">
<path d="M311.108 550.968L451.142 544.631C451.584 544.602 452.027 544.663 452.444 544.809C452.862 544.955 453.246 545.184 453.574 545.482C453.901 545.78 454.165 546.141 454.349 546.544C454.534 546.946 454.635 547.382 454.648 547.824L307.915 554.408C307.895 553.971 307.962 553.535 308.113 553.125C308.263 552.715 308.493 552.339 308.791 552.019C309.088 551.699 309.446 551.441 309.844 551.26C310.241 551.08 310.671 550.98 311.108 550.968Z" fill="white"/>
</g>
<path d="M288.822 486.004L388.449 481.494C389.088 481.503 389.709 481.708 390.227 482.082C390.745 482.456 391.136 482.981 391.345 483.584L410.471 544.269C410.574 544.52 410.613 544.792 410.586 545.062C410.558 545.331 410.465 545.59 410.313 545.814C410.162 546.039 409.957 546.223 409.718 546.35C409.478 546.476 409.211 546.542 408.94 546.54L309.313 551.05C308.678 551.044 308.06 550.842 307.544 550.47C307.028 550.099 306.64 549.577 306.433 548.976L287.308 488.275C287.205 488.026 287.165 487.755 287.192 487.487C287.219 487.219 287.311 486.961 287.461 486.737C287.61 486.513 287.812 486.328 288.05 486.201C288.287 486.073 288.552 486.005 288.822 486.004Z" fill="#285580"/>
<path opacity="0.6" d="M288.822 486.004L388.449 481.494C389.088 481.503 389.709 481.708 390.227 482.082C390.745 482.456 391.136 482.981 391.345 483.584L410.471 544.269C410.574 544.52 410.613 544.792 410.586 545.062C410.558 545.331 410.465 545.59 410.313 545.814C410.162 546.039 409.957 546.223 409.718 546.35C409.478 546.476 409.211 546.542 408.94 546.54L309.313 551.05C308.678 551.044 308.06 550.842 307.544 550.47C307.028 550.099 306.64 549.577 306.433 548.976L287.308 488.275C287.205 488.026 287.165 487.755 287.192 487.487C287.219 487.219 287.311 486.961 287.461 486.737C287.61 486.513 287.812 486.328 288.05 486.201C288.287 486.073 288.552 486.005 288.822 486.004Z" fill="white"/>
<path opacity="0.5" d="M391.379 483.568L410.504 544.253C410.611 544.504 410.653 544.778 410.627 545.05C410.601 545.322 410.508 545.583 410.357 545.81C410.205 546.037 409.999 546.223 409.757 546.35C409.516 546.478 409.247 546.543 408.973 546.541L388.482 481.478C389.121 481.486 389.742 481.692 390.26 482.066C390.779 482.44 391.169 482.964 391.379 483.568Z" fill="#285580"/>
<path opacity="0.5" d="M414.323 546.294L451.142 544.648C451.583 544.619 452.026 544.679 452.444 544.826C452.862 544.972 453.246 545.201 453.573 545.499C453.901 545.797 454.165 546.158 454.349 546.56C454.534 546.963 454.635 547.398 454.647 547.841L411.13 549.799C411.101 549.358 411.161 548.915 411.307 548.497C411.454 548.079 411.683 547.695 411.981 547.368C412.279 547.04 412.64 546.777 413.042 546.592C413.445 546.407 413.88 546.306 414.323 546.294Z" fill="#285580"/>
<path d="M460.836 540.78L451.421 542.146L461.066 555.56C461.066 555.56 476.39 553.108 474.612 546.31L471.32 543.578C469.866 542.404 468.181 541.549 466.375 541.067C464.569 540.585 462.682 540.487 460.836 540.78Z" fill="#FF8B7B"/>
<path d="M439.9 546.162L451.701 556.449L461.066 555.56L451.421 542.146L439.9 546.162Z" fill="#FF8B7B"/>
<defs>
<linearGradient id="paint0_linear_186_979" x1="714" y1="106.2" x2="711.6" y2="1870.8" gradientUnits="userSpaceOnUse">
<stop stop-color="#9EC7EF"/>
<stop offset="1" stop-color="#EBEBEB"/>
</linearGradient>
</defs>
</svg>
